<?xml version="1.0" encoding="UTF-8"?>
<svg id="Layer_2" data-name="Layer 2" xmlns="http://www.w3.org/2000/svg" viewBox="0 0 71.79 64.09">
  <defs>
    <style>
      .cls-1 {
        fill: #221f1f;
      }
    </style>
  </defs>
  <g id="Layer_1-2" data-name="Layer 1">
    <path class="cls-1" d="M66.43,44.56c-2.58-.98-5.26-1.71-8-2.01-1.21-.13-2.74-.35-2.73-1.89,.02-4.66,.02-9.33,.03-13.99,0-3.56,.02-7.12,.03-10.68,0-1.2-.75-2.27-1.88-2.67-1.44-.52-2.86-.99-4.33-1.42-.98-.29-2.49-.71-2.76-1.87-.21-.91,.02-1.86,.02-2.77,0-1.66-2.45-1.98-3.64-2.4-3.02-1.06-6.04-2.13-9.06-3.19-1.2-.42-6.58-3.26-6.58-.38,0,1.06,.35,2.78-.06,3.76-.29,.68-1.26,1.26-1.83,1.73-1.02,.87-2.03,1.73-3.05,2.6-1.42,1.21-2.85,2.42-4.27,3.63-1.17,1-1.85,2.47-1.85,4.01,0,.88,0,1.76,0,2.65,0,4.9,0,9.81,0,14.71,0,1.95,0,3.9,0,5.85,0,.65,.11,1.3-.45,1.75-.67,.54-1.88,.55-2.7,.67-1.08,.16-2.17,.28-3.23,.53-1.83,.43-3.65,.93-5.4,1.62-1.6,.63-4.71,1.85-4.71,4s2.98,3.31,4.55,3.94c1.72,.69,3.51,1.19,5.3,1.62,.95,.23,1.92,.46,2.89,.6,1.32,.19,2.25,.65,.79,1.76-.58,.44-1.28,.94-1.28,1.75,0,3.11,10.58,5.63,23.64,5.63,2.87,0,5.75-.12,8.61-.39,3.75-.35,7.62-.87,11.17-2.16,2.17-.79,5.56-2.59,2.52-4.8-.24-.18-.49-.37-.63-.64-.65-1.26,1.81-1.2,2.47-1.34,.97-.2,1.93-.42,2.89-.66,1.62-.42,3.24-.91,4.78-1.57,1.47-.63,4.08-1.8,4.08-3.75,0-2.45-3.54-3.54-5.36-4.23ZM37.44,15.22c-.67,.53-1.34,1.07-2.01,1.6-.68,.54-1.45,1.18-2.36,1.24-.93,.06-2.01-.38-2.88-.67-1.57-.51-3.1-1.13-4.62-1.76-.89-.37-2.39-1.05-3.03,.08-.4,.71-.03,1.71,.73,1.99,1.58,.57,3.17,1.14,4.75,1.71,1.99,.72,3.72,1.5,4.18,3.78,.32,1.27,.16,2.65,.16,3.95,0,1.47-.01,2.93-.02,4.4-.01,2.9-.03,5.8-.03,8.7,0,1.93,0,3.86,0,5.78,0,.71-.25,1.53-1,1.77-.82,.26-1.82-.33-2.55-.64-2.22-.92-4.53-1.65-6.8-2.46-1.02-.36-2.85-.57-3.42-1.61-.31-.56-.17-1.32-.17-1.94,0-.87,0-1.74,0-2.6,0-3.32-.01-6.64,0-9.97,.01-3.38,.14-6.76-.06-10.14-.06-.94-.1-1.92,.27-2.81,.33-.81,1.04-1.39,1.7-1.92,.73-.59,1.44-1.2,2.16-1.81l3.03-2.58c.76-.64,1.62-1.71,2.59-2.03,1.35-.45,2.63,.32,3.84,.82,.83,.34,1.72,.55,2.57,.82,1.67,.53,3.73,1.32,4.1,3.27,.22,1.15-.22,2.33-1.13,3.05Zm5.79-6.83c0,.18,0,.36,0,.54,0,.21,.05,.31-.16,.32-.37,.01-.69-.21-1-.37-1.15-.57-2.47-.9-3.68-1.33-1.2-.43-2.41-.86-3.61-1.3-.21-.08-.43-.15-.64-.23l-.37-.13c-.09-.03-.22-.11-.31-.11-.91-.33-1.82-.65-2.73-.98-.26-.09-.51-.19-.77-.28-.15-.05-.43-.07-.52-.21-.06-.09,0-.39,0-.49,0-.27-.02-.55,0-.82,.01-.22-.03-.22,.17-.22,.12,0,.29,.09,.4,.13,.55,.18,1.1,.37,1.64,.56,1.11,.39,2.2,.8,3.31,1.19,1.86,.66,3.73,1.31,5.59,1.97,.65,.23,1.3,.46,1.95,.69,.18,.06,.51,.11,.66,.23,.02,.02,.04,.04,.06,.07,.12,.2,.04,.58,.04,.78Z"/>
  </g>
</svg>