<?xml version="1.0" encoding="UTF-8"?>
<svg id="Layer_2" data-name="Layer 2" xmlns="http://www.w3.org/2000/svg" viewBox="0 0 80.12 80.12">
  <defs>
    <style>
      .cls-1 {
        fill: #231f20;
      }
    </style>
  </defs>
  <g id="Layer_1-2" data-name="Layer 1">
    <path class="cls-1" d="M40.06,0C17.94,0,0,17.94,0,40.06s17.94,40.06,40.06,40.06,40.06-17.94,40.06-40.06S62.19,0,40.06,0Zm17.8,60.61H22.26l10.97-11.38c2.89-3.01,5.16-5.56,6.8-7.65,1.64-2.09,2.86-3.86,3.67-5.31,.8-1.45,1.3-2.62,1.5-3.52,.2-.9,.29-1.66,.29-2.29,0-.66-.11-1.31-.32-1.94-.21-.62-.54-1.18-.97-1.67-.43-.49-.95-.88-1.55-1.17-.61-.29-1.32-.44-2.14-.44-1.56,0-2.79,.51-3.67,1.53s-1.32,2.29-1.32,3.81c0,.43,.06,1.06,.18,1.88h-12.55c0-2.58,.42-4.93,1.26-7.04,.84-2.11,2.02-3.93,3.55-5.45,1.53-1.52,3.33-2.7,5.43-3.52,2.09-.82,4.39-1.23,6.89-1.23s4.74,.39,6.83,1.17c2.09,.78,3.9,1.88,5.42,3.28,1.53,1.41,2.72,3.08,3.58,5.01,.86,1.94,1.29,4.04,1.29,6.3,0,2.42-.52,4.66-1.55,6.71-1.04,2.05-2.69,4.16-4.96,6.31l-7.33,6.86h14.31v9.74Z"/>
  </g>
</svg>