<?xml version="1.0" encoding="UTF-8"?>
<svg id="Layer_2" data-name="Layer 2" xmlns="http://www.w3.org/2000/svg" viewBox="0 0 80.12 80.12">
  <defs>
    <style>
      .cls-1 {
        fill: #231f20;
      }
    </style>
  </defs>
  <g id="Layer_1-2" data-name="Layer 1">
    <path class="cls-1" d="M40.06,0C17.94,0,0,17.94,0,40.06s17.94,40.06,40.06,40.06,40.06-17.94,40.06-40.06S62.19,0,40.06,0Zm16.25,53.87c-.86,1.8-2.06,3.34-3.61,4.63-1.55,1.29-3.38,2.29-5.51,2.99-2.13,.7-4.47,1.06-7.01,1.06-3.4,0-6.47-.67-9.21-1.99-2.74-1.33-4.93-3.44-6.57-6.33-.74-1.29-1.24-2.58-1.5-3.87-.25-1.29-.38-2.6-.38-3.93h11.38c.08,2.07,.68,3.65,1.82,4.72,1.13,1.08,2.66,1.61,4.57,1.61,2.03,0,3.52-.55,4.46-1.64,.94-1.09,1.41-2.44,1.41-4.05,0-1.92-.57-3.36-1.7-4.34s-2.48-1.47-4.05-1.47c-.39,0-.76,.03-1.11,.09-.35,.06-.74,.13-1.17,.21v-7.21c.31,.04,.58,.06,.79,.06h.56c1.45,0,2.62-.43,3.52-1.29,.9-.86,1.35-1.97,1.35-3.34s-.42-2.4-1.26-3.23-1.93-1.23-3.25-1.23c-1.41,0-2.54,.47-3.4,1.41-.86,.94-1.29,2.15-1.29,3.64h-10.62c.27-2.31,.85-4.36,1.73-6.16,.88-1.8,2-3.31,3.37-4.55,1.37-1.23,2.97-2.17,4.81-2.82,1.84-.64,3.87-.97,6.1-.97s4.17,.3,5.95,.91c1.78,.61,3.3,1.47,4.58,2.58,1.27,1.11,2.25,2.46,2.93,4.05,.68,1.58,1.03,3.35,1.03,5.31,0,2.11-.4,3.84-1.2,5.19-.8,1.35-1.95,2.51-3.43,3.49,2.27,.7,4.04,1.96,5.31,3.78,1.27,1.82,1.91,4.06,1.91,6.72,0,2.19-.43,4.18-1.29,5.98Z"/>
  </g>
</svg>