<?xml version="1.0" encoding="UTF-8"?>
<svg id="Layer_2" data-name="Layer 2" xmlns="http://www.w3.org/2000/svg" viewBox="0 0 106.68 117.21">
  <defs>
    <style>
      .cls-1 {
        fill: none;
      }

      .cls-2 {
        fill: #fff;
      }

      .cls-3 {
        fill: #231f20;
      }
    </style>
  </defs>
  <g id="Layer_1-2" data-name="Layer 1">
    <g>
      <rect class="cls-3" x="10.79" y="23.72" width="85.09" height="93.49"/>
      <rect class="cls-2" x="19.11" y="31.33" width="68.47" height="78.26"/>
      <rect class="cls-3" x="30.28" y="42.84" width="46.12" height="55.26"/>
      <rect class="cls-1" x="0" y="0" width="106.68" height="117.21" transform="translate(106.68 117.21) rotate(-180)"/>
      <g>
        <path class="cls-2" d="M39.35,70.28c-.71-.29-1.06-.79-1.06-1.49,0-.29,.06-.55,.17-.78,.11-.23,.27-.43,.47-.6,.2-.17,.44-.3,.73-.39,.28-.09,.6-.13,.94-.13s.65,.04,.94,.13c.29,.09,.53,.22,.73,.39,.2,.17,.36,.37,.47,.6,.11,.23,.17,.49,.17,.78,0,.18-.02,.34-.05,.48s-.1,.27-.18,.39c-.09,.12-.2,.23-.34,.33-.14,.1-.32,.2-.53,.3,.92,.36,1.38,.94,1.38,1.74,0,.29-.06,.55-.19,.8-.13,.25-.31,.46-.54,.64-.23,.18-.5,.32-.82,.42-.31,.1-.66,.15-1.04,.15s-.71-.05-1.02-.15-.59-.24-.82-.42c-.23-.18-.42-.39-.55-.64-.13-.25-.2-.52-.2-.81,0-.82,.45-1.4,1.34-1.74Zm.44,1.53c0,.11,.02,.22,.06,.32,.04,.1,.1,.19,.17,.26,.07,.08,.16,.13,.26,.18s.21,.07,.32,.07c.11,0,.21-.02,.31-.07s.19-.1,.26-.18c.08-.07,.13-.16,.18-.26,.04-.1,.06-.21,.06-.32,0-.23-.08-.42-.24-.58-.16-.16-.35-.24-.57-.24s-.42,.08-.58,.24c-.16,.16-.23,.35-.23,.57Zm.06-3c0,.21,.07,.39,.22,.54,.14,.15,.32,.22,.53,.22,.11,0,.21-.02,.3-.06s.17-.1,.23-.17c.07-.07,.12-.15,.16-.24,.04-.09,.06-.18,.06-.28,0-.2-.07-.38-.22-.53-.14-.15-.32-.22-.53-.22s-.39,.07-.53,.22c-.14,.14-.22,.32-.22,.52Z"/>
        <path class="cls-2" d="M49.36,70.24l-2.11-3.16h2.18l.92,1.75,1.13-1.75h2.18l-2.24,3.16,2.53,3.61h-2.15l-1.36-2.21-1.59,2.21h-2.13l2.65-3.61Z"/>
        <path class="cls-2" d="M59.37,68.57h-.99v-1.49h2.75v6.78h-1.76v-5.29Z"/>
        <path class="cls-2" d="M62.92,70.46c0-.54,.07-1.03,.21-1.47,.14-.44,.34-.82,.59-1.13,.25-.31,.56-.55,.91-.72,.35-.17,.74-.26,1.16-.26s.81,.09,1.16,.26c.35,.17,.66,.41,.91,.72,.25,.31,.45,.69,.59,1.13,.14,.44,.21,.93,.21,1.47s-.07,1.03-.21,1.47c-.14,.44-.34,.82-.59,1.13-.25,.32-.55,.56-.91,.73s-.74,.26-1.16,.26-.81-.08-1.16-.26-.65-.41-.91-.73c-.25-.31-.45-.69-.59-1.13-.14-.44-.21-.93-.21-1.47Zm1.74,0c0,.3,.03,.57,.08,.82,.05,.25,.13,.46,.23,.64,.1,.18,.22,.32,.36,.42s.29,.15,.47,.15,.32-.05,.46-.15c.14-.1,.26-.24,.35-.42s.17-.39,.22-.64c.05-.25,.08-.52,.08-.82s-.03-.57-.08-.81c-.05-.25-.13-.46-.22-.64s-.21-.31-.35-.41c-.14-.1-.3-.15-.46-.15s-.33,.05-.47,.15c-.14,.1-.26,.24-.36,.41-.1,.18-.17,.39-.23,.64-.05,.25-.08,.52-.08,.81Z"/>
      </g>
    </g>
  </g>
</svg>