<?xml version="1.0" encoding="UTF-8"?>
<svg id="Layer_1" data-name="Layer 1" xmlns="http://www.w3.org/2000/svg" viewBox="0 0 158.49 63.65">
  <defs>
    <style>
      .cls-1 {
        fill: #221f1f;
      }
    </style>
  </defs>
  <g>
    <path class="cls-1" d="M8.75,29.79c-.63,.08-1.15,.13-1.58,.16-.43,.03-.89,.04-1.39,.04-2.01,0-3.47-.2-4.39-.59-.92-.39-1.39-.99-1.39-1.8,0-.36,.05-.68,.16-.94,.1-.26,.27-.51,.51-.74,.05-.05,.12-.11,.2-.18,.08-.06,.2-.16,.35-.29,.1-.08,.18-.14,.23-.18,.05-.04,.1-.08,.16-.14,.34-.31,.58-.64,.72-.98,.14-.34,.23-.74,.25-1.21,.03-.57,.05-1.64,.08-3.2,.03-1.56,.04-3.05,.04-4.45,0-.36,0-1.68,.02-3.96,.01-2.28,0-3.57-.02-3.89-.03-.49-.1-.91-.21-1.25-.12-.34-.31-.61-.57-.82-.08-.05-.16-.12-.25-.19-.09-.08-.23-.17-.41-.27-.08-.05-.14-.09-.18-.12-.04-.03-.07-.05-.1-.08-.39-.29-.64-.57-.74-.84s-.16-.62-.16-1.04C.08,1.99,.58,1.36,1.58,.96c1-.4,2.56-.61,4.67-.61,1.02,0,1.9,.02,2.65,.06,.75,.04,1.5,.11,2.23,.22,.26,.05,.46,.08,.59,.1s.26,.02,.39,.02,.34,0,.62-.02c.29-.01,.82-.06,1.6-.14,1.28-.08,2.23-.14,2.85-.18,.63-.04,1.15-.06,1.56-.06,2.99,0,5.34,.59,7.03,1.78,1.69,1.19,2.54,2.86,2.54,5.02,0,1.61-.48,2.99-1.43,4.12-.95,1.13-2.25,1.91-3.89,2.32-.13,.03-.23,.09-.31,.18-.08,.09-.12,.19-.12,.29,0,.13,.05,.23,.14,.31,.09,.08,.22,.13,.37,.16,2.21,.44,3.89,1.27,5.02,2.48,1.13,1.21,1.7,2.79,1.7,4.74,0,2.65-1.07,4.7-3.22,6.13-2.15,1.43-5.2,2.15-9.16,2.15-1.2,0-2.28-.02-3.24-.06-.96-.04-1.94-.11-2.93-.21-.34-.03-.57-.05-.7-.06-.13-.01-.25-.02-.35-.02-.18,0-.37,0-.57,.02-.2,.01-.49,.05-.88,.1ZM13.71,12.65h.86c.99,0,1.8-.31,2.42-.94,.62-.63,.94-1.45,.94-2.46,0-1.09-.31-1.96-.92-2.62-.61-.65-1.4-.98-2.36-.98h-.66c-.55,0-.96,.09-1.23,.27-.27,.18-.45,.49-.53,.94-.03,.23-.05,.56-.08,.98-.03,.42-.04,.88-.04,1.41v2.15c0,.55,.1,.89,.29,1.03,.2,.14,.63,.22,1.31,.22Zm.08,11.52h1.02c1.25,0,2.23-.32,2.93-.98,.7-.65,1.05-1.56,1.05-2.73,0-1.04-.39-1.87-1.17-2.48-.78-.61-1.85-.92-3.2-.92h-.55c-.65,0-1.1,.1-1.35,.31-.25,.21-.37,.59-.37,1.13v2.46c0,.44,0,.79,.02,1.03,.01,.25,.03,.49,.06,.72,.08,.52,.24,.89,.49,1.11,.25,.22,.6,.33,1.07,.33Z"/>
    <path class="cls-1" d="M57.9,16.79c0,4.35-1.07,7.66-3.22,9.94-2.15,2.28-5.29,3.42-9.43,3.42s-7.17-.95-9.1-2.85c-1.93-1.9-2.89-4.89-2.89-8.98,0-3.77,0-6.44-.02-7.99-.01-1.55-.03-2.48-.06-2.79-.03-.23-.07-.44-.12-.63-.05-.18-.14-.38-.27-.59-.1-.16-.23-.31-.37-.45-.14-.14-.37-.32-.68-.53-.39-.29-.68-.6-.88-.94-.2-.34-.29-.69-.29-1.05,0-.65,.18-1.18,.53-1.6,.35-.42,.88-.72,1.58-.9,.65-.16,1.51-.28,2.58-.37,1.07-.09,2.28-.14,3.63-.14,1.28,0,2.42,.03,3.44,.1s1.84,.16,2.46,.29c.73,.16,1.26,.4,1.58,.72,.32,.33,.49,.8,.49,1.43,0,.42-.09,.79-.27,1.11-.18,.33-.52,.71-1.02,1.15-.49,.42-.79,.67-.88,.76s-.18,.19-.25,.29c-.16,.21-.27,.4-.35,.57-.08,.17-.14,.4-.2,.68-.13,.68-.2,2.25-.2,4.71s.05,4.22,.16,5.29c.13,1.43,.53,2.52,1.19,3.26,.66,.74,1.58,1.11,2.75,1.11,1.38,0,2.38-.51,3.01-1.52,.62-1.02,.94-2.71,.94-5.08,0-1.3-.04-2.71-.12-4.22-.08-1.51-.17-2.67-.27-3.47-.03-.26-.09-.49-.18-.7-.09-.21-.2-.4-.33-.59-.1-.13-.21-.25-.31-.35-.1-.1-.25-.22-.43-.35-.81-.6-1.31-1.07-1.5-1.41-.2-.34-.29-.74-.29-1.21,0-.6,.17-1.07,.51-1.43,.34-.35,.86-.61,1.56-.76,.62-.16,1.24-.26,1.85-.31,.61-.05,1.43-.08,2.44-.08,.91,0,1.65,.03,2.23,.08,.57,.05,1.09,.16,1.56,.31,.6,.18,1.03,.43,1.31,.74s.41,.74,.41,1.29c0,.42-.06,.77-.18,1.07s-.36,.62-.72,.96c-.26,.23-.46,.45-.61,.64-.14,.2-.27,.41-.37,.64-.08,.18-.14,.39-.2,.62-.05,.23-.09,.92-.12,2.07-.03,1.07-.05,2.3-.06,3.71-.01,1.41-.02,2.84-.02,4.3Z"/>
    <path class="cls-1" d="M92.81,27.14c0,.96-.63,1.72-1.89,2.26-1.26,.55-3.05,.82-5.37,.82-2.06,0-3.57-.49-4.53-1.46-.96-.98-1.58-2.7-1.84-5.17-.13-1.2-.29-2.12-.47-2.77-.18-.65-.44-1.18-.78-1.6-.21-.26-.5-.47-.88-.64-.38-.17-.78-.25-1.19-.25h-.86c-.31,0-.55,.12-.72,.37-.17,.25-.25,.59-.25,1.03,0,1.12,0,1.97,.02,2.54,.01,.57,.02,.95,.02,1.13,.03,.29,.06,.49,.12,.61,.05,.12,.13,.23,.23,.33s.22,.2,.35,.27,.26,.14,.39,.2c.78,.26,1.35,.57,1.7,.92,.35,.35,.53,.79,.53,1.31,0,.65-.19,1.18-.57,1.58-.38,.4-.94,.7-1.7,.88-.7,.18-1.51,.31-2.42,.39-.91,.08-1.97,.12-3.16,.12-1.3,0-2.41-.03-3.32-.1s-1.65-.18-2.23-.33c-.68-.18-1.18-.43-1.52-.74-.34-.31-.51-.71-.51-1.21,0-.36,.05-.68,.16-.94,.1-.26,.27-.51,.51-.74,.05-.05,.12-.11,.2-.18,.08-.06,.2-.16,.35-.29,.1-.08,.18-.14,.23-.18,.05-.04,.1-.08,.16-.14,.34-.31,.58-.64,.72-.98,.14-.34,.23-.74,.25-1.21,.03-.57,.05-1.64,.08-3.2,.03-1.56,.04-3.05,.04-4.45,0-.36,0-1.68,.02-3.96,.01-2.28,0-3.57-.02-3.89-.03-.49-.1-.91-.21-1.25-.12-.34-.31-.61-.57-.82-.08-.05-.16-.12-.25-.19-.09-.08-.23-.17-.41-.27-.08-.05-.14-.09-.18-.12-.04-.03-.07-.05-.1-.08-.39-.29-.64-.57-.74-.84s-.16-.62-.16-1.04c0-.86,.5-1.49,1.5-1.89,1-.4,2.56-.61,4.67-.61,.57,0,1.15,.02,1.74,.06,.59,.04,1.32,.11,2.21,.22,.47,.08,.8,.12,1,.14,.19,.01,.37,.02,.53,.02,.13,0,.29,0,.47-.02,.18-.01,.53-.05,1.05-.1,1.09-.13,1.98-.21,2.65-.25,.68-.04,1.34-.06,1.99-.06,3.38,0,5.97,.62,7.75,1.85,1.78,1.24,2.67,3.03,2.67,5.37,0,1.67-.5,3.14-1.5,4.41-1,1.28-2.41,2.28-4.24,3.01-.18,.08-.31,.16-.39,.23-.08,.08-.12,.17-.12,.27,0,.13,.05,.23,.16,.31s.27,.13,.51,.16c.7,.13,1.33,.33,1.87,.61s1.03,.63,1.45,1.07c.49,.55,.92,1.25,1.27,2.11,.35,.86,.63,1.93,.84,3.2,.03,.18,.07,.36,.14,.53,.07,.17,.15,.37,.25,.61,.05,.1,.13,.22,.23,.35,.1,.13,.26,.27,.47,.43,.08,.05,.25,.18,.53,.39s.47,.38,.61,.51c.16,.18,.27,.38,.35,.6,.08,.22,.12,.48,.12,.76Zm-18.78-15.7c0,1.12,.1,1.85,.31,2.19,.21,.34,.61,.51,1.21,.51h.39c1.28,0,2.27-.38,2.99-1.13,.72-.75,1.07-1.82,1.07-3.2,0-1.28-.38-2.3-1.15-3.08-.77-.78-1.75-1.17-2.95-1.17h-.31c-.42,0-.74,.09-.96,.27-.22,.18-.38,.52-.49,1.02-.03,.16-.05,.55-.08,1.17-.03,.63-.04,.99-.04,1.09v2.34Z"/>
    <path class="cls-1" d="M105.98,29.56c-.52,.16-1.18,.27-1.99,.33s-1.8,.1-2.97,.1c-1.04,0-1.86-.02-2.46-.06s-1.15-.1-1.64-.18c-.76-.13-1.31-.36-1.66-.7-.35-.34-.53-.82-.53-1.44,0-.44,.08-.83,.25-1.15,.17-.33,.49-.64,.96-.96,.23-.16,.43-.31,.59-.47s.29-.31,.39-.47c.13-.21,.22-.42,.27-.64,.05-.22,.09-.49,.12-.8,.03-.57,.05-1.66,.08-3.26,.03-1.6,.04-3.12,.04-4.55v-5.74c0-.99-.01-1.61-.04-1.87-.03-.36-.09-.7-.2-1-.1-.3-.26-.58-.47-.84-.05-.05-.16-.14-.31-.27s-.38-.29-.66-.47c-.57-.39-.92-.7-1.05-.92-.13-.22-.19-.49-.19-.8,0-.68,.21-1.22,.62-1.64s1.07-.73,1.95-.94c.52-.1,1.15-.19,1.89-.25,.74-.06,1.58-.1,2.52-.1,1.04,0,1.94,.05,2.69,.16,.75,.1,1.45,.27,2.07,.51,.81,.29,1.57,.77,2.28,1.44,.72,.68,1.58,1.74,2.6,3.2,1.51,2.16,2.67,3.86,3.49,5.1,.82,1.24,1.59,2.44,2.32,3.61,.1,.18,.21,.31,.33,.39,.12,.08,.24,.12,.37,.12s.23-.07,.31-.2,.12-.31,.12-.55v-3.98c0-.6-.02-1.13-.06-1.6-.04-.47-.11-.98-.22-1.52-.05-.21-.12-.4-.21-.57-.09-.17-.2-.31-.33-.41-.16-.13-.31-.24-.45-.33-.14-.09-.29-.16-.45-.22-.83-.31-1.41-.66-1.74-1.03s-.49-.84-.49-1.39c0-.73,.16-1.28,.47-1.66s.81-.66,1.48-.84c.44-.13,1.04-.22,1.8-.27,.75-.05,1.69-.08,2.81-.08,1.25,0,2.24,.03,2.97,.1,.73,.07,1.26,.18,1.6,.33,.49,.21,.85,.48,1.07,.8,.22,.33,.33,.74,.33,1.23,0,.47-.09,.87-.25,1.21s-.53,.7-1.07,1.09c-.13,.1-.25,.2-.37,.29-.12,.09-.22,.2-.29,.33-.16,.18-.27,.4-.33,.64s-.1,.53-.1,.84v.94c0,.42-.01,1.17-.04,2.26-.03,1.48-.04,2.56-.04,3.24v3.69c0,.82,.01,2.01,.04,3.57v1.91c0,2.53-.36,4.35-1.09,5.49-.73,1.13-1.94,1.7-3.63,1.7-1.28,0-2.32-.2-3.14-.61-.82-.4-1.7-1.15-2.64-2.25-.83-.99-1.83-2.32-2.99-4-1.16-1.68-3.04-4.52-5.64-8.53-.21-.34-.38-.57-.53-.7s-.29-.2-.45-.2c-.18,0-.31,.09-.39,.27-.08,.18-.12,.47-.12,.86v1.95c0,1.74,0,3.12,.02,4.14,.01,1.02,.03,1.65,.06,1.91,.03,.29,.1,.55,.23,.78,.13,.23,.33,.46,.59,.66,.16,.13,.34,.25,.55,.37,.21,.12,.53,.27,.98,.45,.57,.23,1,.54,1.29,.92,.29,.38,.43,.83,.43,1.35,0,.55-.15,1-.45,1.37-.3,.37-.74,.63-1.31,.78Z"/>
    <path class="cls-1" d="M142.87,29.99c-1.9,0-3.32-.03-4.26-.08-.94-.05-1.7-.14-2.3-.27-.83-.18-1.43-.46-1.8-.84s-.55-.92-.55-1.62c0-.57,.14-1.05,.43-1.43,.29-.38,.74-.68,1.37-.92,.31-.1,.61-.23,.88-.37,.27-.14,.51-.29,.72-.45,.23-.18,.42-.4,.55-.64,.13-.25,.22-.54,.27-.88,.08-.42,.14-1.26,.18-2.54,.04-1.28,.06-2.82,.06-4.65s-.01-3.29-.04-4.65c-.03-1.35-.05-2.24-.08-2.66-.03-.23-.08-.44-.16-.62-.08-.18-.21-.36-.39-.55-.13-.13-.27-.23-.43-.29-.16-.06-.33-.11-.51-.14-.13-.03-.24-.04-.33-.04h-.37c-.23,0-.45,.05-.64,.16-.2,.1-.36,.26-.49,.47-.1,.13-.2,.29-.29,.49-.09,.2-.23,.51-.41,.96-.18,.42-.32,.73-.41,.94s-.19,.39-.29,.55c-.37,.65-.78,1.13-1.25,1.45-.47,.31-1,.47-1.6,.47-.91,0-1.62-.29-2.13-.88-.51-.59-.76-1.44-.76-2.56,0-1.43,.18-2.76,.55-3.98,.36-1.22,.88-2.25,1.56-3.08,.34-.42,.71-.74,1.13-.98,.42-.23,.85-.35,1.29-.35,.31,0,.59,.03,.82,.08s.51,.17,.82,.35c.26,.18,.49,.3,.7,.35,.21,.05,.46,.08,.74,.08h2.65c1.04-.03,1.96-.04,2.75-.04h2.64c1.04,0,1.97,0,2.79,.02,.82,.01,1.71,.02,2.67,.02,.52,.03,.9,.04,1.15,.04h.76c.16,0,.32-.02,.49-.06s.4-.14,.68-.29c.44-.21,.82-.35,1.13-.43,.31-.08,.66-.12,1.05-.12,.36,0,.72,.07,1.05,.22s.66,.36,.98,.64c.7,.65,1.25,1.6,1.64,2.85,.39,1.25,.59,2.68,.59,4.29,0,1.15-.27,2.06-.82,2.75-.55,.69-1.26,1.03-2.15,1.03-.65,0-1.22-.17-1.7-.51-.48-.34-.94-.94-1.39-1.8-.68-1.43-1.16-2.29-1.45-2.58-.08-.08-.16-.15-.25-.21-.09-.07-.21-.14-.37-.21-.13-.05-.25-.08-.35-.1-.1-.01-.22-.02-.35-.02-.26,0-.48,.01-.66,.04-.18,.03-.34,.07-.47,.12-.18,.08-.31,.2-.39,.37-.08,.17-.14,.41-.19,.72-.05,.34-.09,.9-.1,1.7-.01,.79-.02,2.79-.02,5.99,0,2.03,.01,3.66,.04,4.9,.03,1.24,.07,2,.12,2.28,.05,.29,.14,.55,.25,.78,.12,.23,.31,.48,.57,.74,.08,.08,.25,.19,.51,.33,.26,.14,.61,.31,1.05,.49,.7,.29,1.16,.6,1.39,.94,.22,.34,.33,.78,.33,1.33,0,.65-.2,1.17-.61,1.56-.4,.39-1.05,.68-1.93,.86-.73,.16-1.64,.27-2.73,.35-1.09,.08-2.41,.12-3.94,.12Z"/>
  </g>
  <g>
    <path class="cls-1" d="M17.65,63.34c-1.9,0-3.32-.03-4.26-.08-.94-.05-1.7-.14-2.3-.27-.83-.18-1.43-.46-1.8-.84s-.55-.92-.55-1.62c0-.57,.14-1.05,.43-1.43,.29-.38,.74-.68,1.37-.92,.31-.1,.61-.23,.88-.37,.27-.14,.51-.29,.72-.45,.23-.18,.42-.4,.55-.64,.13-.25,.22-.54,.27-.88,.08-.42,.14-1.26,.18-2.54,.04-1.28,.06-2.82,.06-4.65s-.01-3.29-.04-4.65-.05-2.24-.08-2.66c-.03-.23-.08-.44-.16-.62-.08-.18-.21-.36-.39-.55-.13-.13-.27-.23-.43-.29-.16-.06-.33-.11-.51-.14-.13-.03-.24-.04-.33-.04h-.37c-.23,0-.45,.05-.64,.16-.2,.1-.36,.26-.49,.47-.1,.13-.2,.29-.29,.49-.09,.2-.23,.51-.41,.96-.18,.42-.32,.73-.41,.94s-.19,.39-.29,.55c-.37,.65-.78,1.13-1.25,1.45-.47,.31-1,.47-1.6,.47-.91,0-1.62-.29-2.13-.88-.51-.59-.76-1.44-.76-2.56,0-1.43,.18-2.76,.55-3.98,.36-1.22,.88-2.25,1.56-3.08,.34-.42,.71-.74,1.13-.98,.42-.23,.85-.35,1.29-.35,.31,0,.59,.03,.82,.08s.51,.17,.82,.35c.26,.18,.49,.3,.7,.35,.21,.05,.46,.08,.74,.08h2.65c1.04-.03,1.96-.04,2.75-.04h2.64c1.04,0,1.97,0,2.79,.02,.82,.01,1.71,.02,2.67,.02,.52,.03,.9,.04,1.15,.04h.76c.16,0,.32-.02,.49-.06s.4-.14,.68-.29c.44-.21,.82-.35,1.13-.43,.31-.08,.66-.12,1.05-.12,.36,0,.72,.07,1.05,.22s.66,.36,.98,.64c.7,.65,1.25,1.6,1.64,2.85,.39,1.25,.59,2.68,.59,4.29,0,1.15-.27,2.06-.82,2.75-.55,.69-1.26,1.03-2.15,1.03-.65,0-1.22-.17-1.7-.51-.48-.34-.94-.94-1.39-1.8-.68-1.43-1.16-2.29-1.45-2.58-.08-.08-.16-.15-.25-.21-.09-.07-.21-.14-.37-.21-.13-.05-.25-.08-.35-.1-.1-.01-.22-.02-.35-.02-.26,0-.48,.01-.66,.04-.18,.03-.34,.07-.47,.12-.18,.08-.31,.2-.39,.37-.08,.17-.14,.41-.19,.72-.05,.34-.09,.9-.1,1.7-.01,.79-.02,2.79-.02,5.99,0,2.03,.01,3.66,.04,4.9,.03,1.24,.07,2,.12,2.28,.05,.29,.14,.55,.25,.78,.12,.23,.31,.48,.57,.74,.08,.08,.25,.19,.51,.33,.26,.14,.61,.31,1.05,.49,.7,.29,1.16,.6,1.39,.94,.22,.34,.33,.78,.33,1.33,0,.65-.2,1.17-.61,1.56-.4,.39-1.05,.68-1.93,.86-.73,.16-1.64,.27-2.73,.35-1.09,.08-2.41,.12-3.94,.12Z"/>
    <path class="cls-1" d="M64.86,48.35c0,4.56-1.41,8.23-4.24,11.03-2.82,2.8-6.55,4.2-11.19,4.2s-8.05-1.33-10.8-3.98c-2.75-2.65-4.12-6.16-4.12-10.5s1.47-8.12,4.41-11.01c2.94-2.89,6.62-4.33,11.05-4.33s7.88,1.37,10.68,4.1c2.8,2.73,4.2,6.23,4.2,10.5Zm-18.78,3.51c.81,1.33,1.72,2.38,2.73,3.16s1.98,1.17,2.89,1.17c1.04,0,1.89-.36,2.54-1.07s.98-1.66,.98-2.83c0-2.63-.8-5.17-2.4-7.61-1.6-2.45-3.33-3.67-5.17-3.67-1.07,0-1.92,.35-2.56,1.05-.64,.7-.98,1.64-1.03,2.81-.03,1.12,.14,2.28,.49,3.49,.35,1.21,.87,2.38,1.54,3.49Z"/>
    <path class="cls-1" d="M70.47,63.34c-.91,0-1.68-.03-2.3-.08-.63-.05-1.19-.13-1.68-.23-.73-.16-1.26-.38-1.58-.68-.33-.3-.49-.71-.49-1.23,0-.49,.1-.92,.31-1.29,.21-.36,.57-.75,1.09-1.17,.21-.18,.4-.38,.59-.59,.18-.21,.35-.44,.51-.7,.23-.42,.47-.87,.72-1.35,.25-.48,.49-1.01,.72-1.58,.16-.36,.32-.75,.49-1.17,.17-.42,.42-1.03,.76-1.84,.49-1.22,.87-2.15,1.13-2.79,.26-.64,.51-1.24,.74-1.82,.68-1.61,1.26-2.97,1.74-4.06,.48-1.09,.92-2.09,1.31-3.01,.57-1.3,1.02-2.25,1.33-2.83,.31-.59,.62-1.06,.94-1.43,.49-.63,1.07-1.07,1.74-1.35,.66-.27,1.5-.41,2.52-.41,.96,0,1.74,.1,2.32,.31,.59,.21,1.1,.55,1.54,1.02,.29,.31,.57,.72,.86,1.21,.29,.49,.7,1.33,1.25,2.5,.29,.63,.82,1.87,1.6,3.73,.78,1.86,1.28,3.05,1.48,3.57,.68,1.59,1.37,3.25,2.07,4.98s1.34,3.31,1.91,4.74c.16,.36,.29,.66,.41,.9,.12,.23,.28,.47,.49,.7,.1,.16,.23,.31,.39,.45,.16,.14,.42,.36,.78,.64,.47,.36,.77,.68,.92,.96,.14,.27,.21,.67,.21,1.19,0,.62-.23,1.13-.68,1.52-.46,.39-1.13,.65-2.01,.78-.83,.13-1.73,.23-2.67,.29-.95,.07-1.97,.1-3.07,.1-1.46,0-2.69-.04-3.71-.12-1.02-.08-1.77-.18-2.26-.31-.49-.13-.87-.35-1.13-.66-.26-.31-.39-.72-.39-1.21,0-.44,.1-.83,.31-1.17s.52-.63,.94-.86c.05-.03,.19-.1,.41-.21,.22-.12,.38-.22,.49-.29,.29-.26,.48-.48,.57-.66s.14-.4,.14-.66c0-.31-.04-.61-.12-.88-.08-.27-.22-.59-.43-.96-.13-.26-.31-.44-.53-.53-.22-.09-.57-.14-1.03-.14h-6.36c-.34,0-.59,.05-.76,.16-.17,.1-.32,.29-.45,.55-.18,.36-.31,.66-.37,.9-.07,.23-.1,.47-.1,.7,0,.21,.04,.4,.14,.57,.09,.17,.21,.32,.37,.45,.13,.1,.29,.2,.49,.29s.46,.2,.8,.33c.52,.21,.9,.48,1.15,.8,.25,.33,.37,.75,.37,1.27,0,.55-.16,1-.47,1.37-.31,.36-.78,.64-1.41,.82-.49,.13-1.21,.24-2.15,.33-.94,.09-1.9,.14-2.89,.14Zm6.13-14.56c-.16,.44-.17,.77-.04,.98,.13,.21,.42,.31,.86,.31h3.2c.39,0,.64-.12,.74-.35s.08-.59-.08-1.05c-.21-.52-.47-1.15-.78-1.87-.31-.73-.57-1.3-.78-1.72-.18-.36-.33-.6-.43-.7-.1-.1-.23-.16-.39-.16s-.29,.05-.41,.16c-.12,.1-.25,.35-.41,.74-.18,.39-.42,.94-.7,1.64-.29,.7-.55,1.38-.78,2.03Z"/>
    <path class="cls-1" d="M105.31,62.76c-.29,.31-.59,.54-.92,.68-.33,.14-.72,.21-1.19,.21-.52,0-.97-.08-1.35-.25-.38-.17-.7-.42-.96-.76-.34-.44-.62-.9-.84-1.39-.22-.48-.46-1.16-.72-2.05-.18-.6-.33-1.24-.43-1.91-.1-.68-.16-1.41-.16-2.19,0-1.09,.2-1.95,.61-2.58,.4-.62,.97-.94,1.7-.94,.36,0,.73,.09,1.11,.25,.38,.17,.79,.45,1.23,.84,.18,.16,.38,.33,.59,.51,.21,.18,.53,.48,.98,.9,.36,.36,.64,.63,.84,.8,.19,.17,.38,.33,.57,.49,.91,.76,1.76,1.29,2.54,1.62s1.59,.49,2.42,.49c.65,0,1.16-.19,1.54-.57s.57-.88,.57-1.5-.32-1.22-.96-1.72c-.64-.49-1.93-1.08-3.89-1.76l-1.91-.66c-2.66-.91-4.56-2.04-5.72-3.4-1.16-1.35-1.74-3.05-1.74-5.08,0-2.73,.9-4.93,2.71-6.6,1.81-1.67,4.18-2.5,7.13-2.5,.52,0,1.03,.02,1.52,.06,.49,.04,.96,.11,1.41,.22,.52,.08,1.09,.21,1.72,.39,.62,.18,1,.29,1.13,.31,.23,.08,.46,.13,.68,.16,.22,.03,.42,.04,.61,.04,.13,0,.25-.02,.37-.06,.12-.04,.24-.11,.37-.22,.08-.05,.18-.14,.31-.25,.13-.12,.22-.2,.27-.25,.26-.21,.51-.35,.76-.43,.25-.08,.53-.12,.84-.12,.65,0,1.22,.2,1.72,.61,.49,.4,.94,1.02,1.33,1.85,.18,.34,.34,.74,.49,1.21,.14,.47,.25,.92,.33,1.37,.08,.49,.14,.98,.2,1.44,.05,.47,.08,.92,.08,1.37,0,1.04-.18,1.82-.55,2.32-.37,.51-.92,.76-1.68,.76-.39,0-.79-.08-1.19-.25-.4-.17-.85-.45-1.35-.84-.16-.13-.33-.27-.51-.41-.18-.14-.46-.37-.82-.68-.55-.47-.96-.82-1.25-1.05-.29-.23-.56-.44-.82-.62-.7-.49-1.35-.85-1.93-1.07-.59-.22-1.18-.33-1.78-.33-.68,0-1.21,.18-1.6,.55-.39,.36-.59,.85-.59,1.45,0,.55,.29,1.03,.88,1.44,.59,.42,1.8,.92,3.65,1.52l1.48,.47c3.2,1.02,5.48,2.26,6.83,3.73,1.35,1.47,2.03,3.29,2.03,5.45,0,2.84-1,5.16-2.99,6.97-1.99,1.81-4.56,2.71-7.71,2.71-.7,0-1.38-.05-2.03-.16-.65-.1-1.78-.43-3.4-.98-.29-.1-.52-.18-.7-.21-.18-.04-.35-.06-.51-.06-.26,0-.49,.05-.7,.16-.21,.1-.43,.27-.66,.51Z"/>
    <path class="cls-1" d="M140.26,63.34c-1.9,0-3.32-.03-4.26-.08-.94-.05-1.7-.14-2.3-.27-.83-.18-1.43-.46-1.8-.84s-.55-.92-.55-1.62c0-.57,.14-1.05,.43-1.43,.29-.38,.74-.68,1.37-.92,.31-.1,.61-.23,.88-.37,.27-.14,.51-.29,.72-.45,.23-.18,.42-.4,.55-.64,.13-.25,.22-.54,.27-.88,.08-.42,.14-1.26,.18-2.54,.04-1.28,.06-2.82,.06-4.65s-.01-3.29-.04-4.65-.05-2.24-.08-2.66c-.03-.23-.08-.44-.16-.62-.08-.18-.21-.36-.39-.55-.13-.13-.27-.23-.43-.29-.16-.06-.33-.11-.51-.14-.13-.03-.24-.04-.33-.04h-.37c-.23,0-.45,.05-.64,.16-.2,.1-.36,.26-.49,.47-.1,.13-.2,.29-.29,.49-.09,.2-.23,.51-.41,.96-.18,.42-.32,.73-.41,.94s-.19,.39-.29,.55c-.37,.65-.78,1.13-1.25,1.45-.47,.31-1,.47-1.6,.47-.91,0-1.62-.29-2.13-.88-.51-.59-.76-1.44-.76-2.56,0-1.43,.18-2.76,.55-3.98,.36-1.22,.88-2.25,1.56-3.08,.34-.42,.71-.74,1.13-.98,.42-.23,.85-.35,1.29-.35,.31,0,.59,.03,.82,.08s.51,.17,.82,.35c.26,.18,.49,.3,.7,.35,.21,.05,.46,.08,.74,.08h2.65c1.04-.03,1.96-.04,2.75-.04h2.64c1.04,0,1.97,0,2.79,.02,.82,.01,1.71,.02,2.67,.02,.52,.03,.9,.04,1.15,.04h.76c.16,0,.32-.02,.49-.06s.4-.14,.68-.29c.44-.21,.82-.35,1.13-.43,.31-.08,.66-.12,1.05-.12,.36,0,.72,.07,1.05,.22s.66,.36,.98,.64c.7,.65,1.25,1.6,1.64,2.85,.39,1.25,.59,2.68,.59,4.29,0,1.15-.27,2.06-.82,2.75-.55,.69-1.26,1.03-2.15,1.03-.65,0-1.22-.17-1.7-.51-.48-.34-.94-.94-1.39-1.8-.68-1.43-1.16-2.29-1.45-2.58-.08-.08-.16-.15-.25-.21-.09-.07-.21-.14-.37-.21-.13-.05-.25-.08-.35-.1-.1-.01-.22-.02-.35-.02-.26,0-.48,.01-.66,.04-.18,.03-.34,.07-.47,.12-.18,.08-.31,.2-.39,.37-.08,.17-.14,.41-.19,.72-.05,.34-.09,.9-.1,1.7-.01,.79-.02,2.79-.02,5.99,0,2.03,.01,3.66,.04,4.9,.03,1.24,.07,2,.12,2.28,.05,.29,.14,.55,.25,.78,.12,.23,.31,.48,.57,.74,.08,.08,.25,.19,.51,.33,.26,.14,.61,.31,1.05,.49,.7,.29,1.16,.6,1.39,.94,.22,.34,.33,.78,.33,1.33,0,.65-.2,1.17-.61,1.56-.4,.39-1.05,.68-1.93,.86-.73,.16-1.64,.27-2.73,.35-1.09,.08-2.41,.12-3.94,.12Z"/>
  </g>
</svg>