<?xml version="1.0" encoding="UTF-8"?>
<svg id="Layer_2" data-name="Layer 2" xmlns="http://www.w3.org/2000/svg" viewBox="0 0 68.83 70.28">
  <g id="Layer_1-2" data-name="Layer 1">
    <path d="M40.45,2.06c-3.54-2.74-8.5-2.74-12.06,0L0,23.97V61.73c0,4.72,3.84,8.55,8.55,8.55H60.28c4.72,0,8.55-3.84,8.55-8.55V23.97L40.45,2.06Zm21.85,29.42v27.24l-15-14.99,15-12.26Zm-32.27,13c2.42-2.41,6.36-2.42,8.77,0l19.29,19.27H10.74l19.29-19.27ZM9.15,25.16L32.39,7.23c1.19-.92,2.87-.92,4.08,0l23.24,17.94-17.09,13.95c-2.38-2-5.29-3.01-8.2-3.01s-5.82,1-8.19,3L9.15,25.16Zm12.38,18.57l-15,14.97V31.48s15,12.26,15,12.26Z"/>
  </g>
</svg>