<?xml version="1.0" encoding="utf-8"?>
<!-- Generator: Adobe Illustrator 21.0.2, SVG Export Plug-In . SVG Version: 6.00 Build 0)  -->
<svg version="1.1" id="Layer_1" xmlns="http://www.w3.org/2000/svg" xmlns:xlink="http://www.w3.org/1999/xlink" x="0px" y="0px"
	 viewBox="0 0 1920 1080" style="enable-background:new 0 0 1920 1080;" xml:space="preserve">
<style type="text/css">
	.st0{fill:#FFFFFF;}
</style>
<title>logo</title>
<g>
	<path class="st0" d="M262.2,512.6c3.2,7.8,49.9,118.5,143.1,204.5c4.3,4.4,28.1,28.6,46.8,38c5.1,2.8,10.8,4.3,16.6,4.1h0.1l0,0
		c5.8,0.2,11.5-1.2,16.5-4.1c18.7-9.4,42.6-33.6,46.9-38c93.2-86,139.9-196.8,143.1-204.5c43.9-98.9,42.4-201.3,42.2-209.9
		c0.5-33.7-3.9-83.5-4-85.6l-0.2-1.5c-1.8-14.9-14.6-26-29.6-25.5H253.9c-15-0.4-27.8,10.7-29.6,25.5l-0.2,1.5
		c-0.2,2.1-4.5,52-4,85.6C219.8,311.3,218.4,413.7,262.2,512.6z M231.8,217.7l0.1-0.9c1.2-11.1,10.6-19.4,21.8-19.2h430.3
		c11.1-0.2,20.6,8.1,21.8,19.2l0.1,0.9c0.2,2.1,4.5,51.7,4,85c0.2,7.1,2,108.8-41.6,206.9c-2.7,6.6-48.8,116.7-141.4,202
		c-3.7,3.8-27.4,27.9-45.2,36.8c-3.9,2.2-8.3,3.3-12.8,3.1l0,0h-0.1c-4.5,0.2-8.9-0.9-12.9-3.1c-17.8-8.9-41.5-33-45.2-36.8
		c-92.6-85.3-138.7-195.4-141.4-202c-43.6-98.1-41.8-199.8-41.6-206.9C227.3,269.4,231.6,219.8,231.8,217.7z"/>
	<path class="st0" d="M249.2,303.1c0,0.4-0.5,19.9,2.5,49.5c2.8,28.4,8.7,66.1,21.2,105.5c4.5,14.3,9.8,28.7,16.2,43l0.1,0.3
		c0.2,0.4,7.8,18.8,22.8,46c21.9,39.8,59.4,98.4,112.4,147.6c0.4,0.4,0.8,0.8,1.2,1.1l0.5,0.5c6.8,7.1,27.4,26.9,39.9,32.9l1.1,0.5
		c0.6,0.1,1.2,0.1,1.8,0.1c0.6,0,1.2,0,1.7-0.1l1.1-0.5c12.6-6,33.1-25.8,39.9-32.9l0.5-0.5c0.7-0.7,1.5-1.4,2.2-2
		c52.5-49,89.8-107.1,111.5-146.7c15-27.2,22.6-45.6,22.7-46l0.1-0.3c6.4-14.3,11.7-28.8,16.2-43c12.4-39.4,18.4-77.1,21.2-105.5
		c2.9-29.6,2.5-49,2.4-49.5v-0.5c0.5-30.4-3.4-77.1-3.9-82.5c-0.1-0.4-0.2-0.7-0.3-1.1H253.5c-0.1,0.3-0.2,0.7-0.3,1.1
		c-0.5,5.4-4.4,52.1-3.9,82.5V303.1z M268.4,313.5c-4.1,3.4-7.8,7.3-11,11.5c-0.2-4.1-0.3-7.6-0.4-10.6
		C260.8,315.1,264.7,314.7,268.4,313.5z M680.6,314.4c-0.1,3-0.2,6.5-0.4,10.6c-3.3-4.2-6.9-8.1-11-11.5
		C672.9,314.7,676.8,315.1,680.6,314.4z M260.3,226.7l417,0c1.1,14.6,3.8,50.9,3.4,75.8v0.8c0,0.1,0,2.1,0,5.6c-1.8-2-5.2-2.3-7.4-4
		c-3.8-2.6-7.4-5.5-10.9-8.7c-8.8-8.2-15.3-18-24.5-25.9c-5.6-5-12-8.9-19-11.5c-1.4-0.5-2.8-0.7-4.3-0.7c-2.1-1.6-3.8-3.9-6-5.5
		c-3.8-4.1-9.4-6-14.9-5.2l0,0c-2.6,0.8-4.9,2.6-6.2,5.1c-0.5,1.4-0.8,1.8-1.3,3.6c-0.6,0.7-1.9,1.1-2.6,1.6
		c-4.9,3.4-8.6,8.3-10.4,13.9c-0.3,1.7-1.5,3.9,0.1,5.2c0.1,0,0.2,0.1,0.3,0.1c0.7,0.2,1.4-0.2,1.6-0.9c1.9-3.8,4.7-7,8.2-9.5
		c2.2-1.7,5-2.3,7.7-1.8c1.8,0.4,3.4,1.4,4.4,2.9c0.5,5.2,3.1,10,7.3,13.3c1.9,1.5,4,2.6,6.3,3.5c0.2,1.2,1.4,4.8,1.4,4.8
		c3.7,8.2,9.1,15.6,15.8,21.7c1.6,2,2.5,4.5,2.7,7.1c0.3,3.8,0,7.5-1,11.2c-0.2,0.5-0.4,1.1-0.7,1.6c-0.3,1.5-6.3,4.7-10.3,5.3
		c-2.9,0.4-5.8,1.3-8.3,2.8c-1.3,0.7-2.2,3-0.9,4.2c0.6,0.6,1.4,0.9,2.2,0.8c5.9-0.7,11.1-4.3,17.5-3c3.1,0.2,6.1,1,8.9,2.4
		c1,0.4,2.1,0.4,3.1-0.1c0.9-0.5,1.4-1.4,1.3-2.4c0.1-2-5-4.6-8.1-6l-0.4-0.2c2.2-7.1,5.2-14,9.1-20.3c1.3-2.8,4.4-1.6,6.4-1
		c6.5,2.6,10.8,9,16.7,13.2c4.4,1.2,8.7,3.1,12.6,5.5c0.9,0.5,1.9,0.6,2.8,0.1c-0.4,6.1-0.9,12.9-1.7,20.4l-164,0v105.5h142.5
		c-4.3,13.3-9.3,26.7-15.2,39.9l-0.2,0.5c-0.2,0.5-8.3,20.1-24.4,48.9H514.2v136.1c-2.4,2.3-4.9,4.7-7.4,7l-0.8,0.8
		c-9,9.3-26.9,25.8-37.2,31.1c-10.3-5.2-28.2-21.7-37.2-31.1l-0.8-0.8c-2.2-2-4.3-4-6.4-6.1V547.4H320.7
		c-16-28.7-24.2-48.4-24.4-48.9l-0.2-0.5c-5.9-13.3-10.9-26.7-15.2-39.9h143.4V352.6l-164.9,0c-0.8-7.5-1.3-14.4-1.7-20.5
		c0.9,0.5,1.9,0.4,2.8-0.1c3.9-2.4,8.2-4.3,12.6-5.5c5.9-4.3,10.2-10.6,16.7-13.3c2-0.5,5.1-1.8,6.4,1c3.9,6.4,6.9,13.2,9.1,20.3
		l-0.4,0.2c-3.1,1.4-8.3,4-8.1,6c-0.1,1,0.4,1.9,1.3,2.4c1,0.5,2.1,0.5,3.1,0.1c2.8-1.4,5.8-2.2,8.9-2.4c6.4-1.3,11.6,2.3,17.5,3
		c0.8,0.2,1.7-0.1,2.2-0.8c1.3-1.2,0.4-3.5-0.9-4.2c-2.5-1.5-5.4-2.5-8.3-2.8c-3.9-0.6-10-3.8-10.3-5.3c-0.3-0.5-0.5-1.1-0.7-1.6
		c-1-3.6-1.3-7.4-1-11.2c0.1-2.6,1.1-5,2.7-7.1c6.7-6.1,12.1-13.5,15.8-21.7c0,0,1.2-3.6,1.4-4.8c2.2-0.9,4.4-2,6.3-3.5
		c4.1-3.3,6.8-8.1,7.3-13.3c1.1-1.5,2.7-2.5,4.4-2.9c2.7-0.5,5.5,0.1,7.7,1.8c3.4,2.5,6.3,5.8,8.2,9.5c0,0.1,0.1,0.2,0.1,0.3
		c0.3,0.6,1.1,0.9,1.8,0.6c1.6-1.3,0.4-3.6,0.1-5.2c-1.9-5.7-5.5-10.5-10.4-13.9c-0.7-0.5-2-0.9-2.6-1.6c-0.5-1.8-0.9-2.2-1.3-3.6
		l0,0c-1.3-2.4-3.5-4.2-6.2-5.1c-5.5-0.8-11.1,1.1-14.9,5.2c-2.2,1.6-3.9,3.9-6,5.5c-1.5,0-2.9,0.2-4.3,0.7c-7,2.6-13.5,6.5-19,11.5
		c-9.2,7.9-15.7,17.6-24.5,25.9c-3.4,3.1-7,6-10.8,8.7c-2.2,1.7-5.6,2-7.4,4c0-3.5,0-5.5,0-5.6v-0.8
		C256.5,277.5,259.2,241.3,260.3,226.7z M599.4,270.3c0.5,0.2,0.9,0.5,1.3,0.9c2.2,2.1,3.9,4.6,4.9,7.5c1.2,2.4-0.6,1.3-0.6,1.3
		c-0.9-0.5-1.7-1.1-2.5-1.8c-1.8-1.9-3.2-4.2-4.2-6.6C597.4,269.2,599.4,270.3,599.4,270.3L599.4,270.3z M332,278.7
		c1-2.8,2.7-5.4,4.9-7.5l0,0c0.4-0.4,0.8-0.7,1.3-0.9c0,0,2-1.1,1.2,1.3c-1,2.4-2.5,4.6-4.2,6.6c-0.7,0.7-1.6,1.3-2.5,1.8
		C332.6,280,330.8,281,332,278.7z"/>
	<path class="st0" d="M395.6,311.1v-65.2c-10.2,6-15,6.5-16.6,6.4l0,69.3C391.6,317,395.1,311.9,395.6,311.1z"/>
	<path class="st0" d="M406.1,312.8c6.8,0.1,13.5-1.3,19.8-4c15.6-8.4,25.6-7.2,26.1-7.1c7.1,0,12.4,1.6,16.3,4v-60.5
		c-5.9-5.5-13.8-8.5-21.9-8.3c-4.2-0.1-8.3,0.6-12.2,2c-11.3,4.5-19.1,7.1-19.2,7.1c-6,1.4-12.3,1.3-18.3-0.3l0,65.3
		C397.8,312.4,403.1,312.9,406.1,312.8z M426.3,303.4c-2.6,1.2-5.4,2.1-8.2,2.7v-1c2.6-0.6,5.2-1.5,7.7-2.6c3.9-2.1,8-3.9,12.3-5.2
		l0,1.1h0.1C434.1,299.6,430.1,301.3,426.3,303.4z M414.5,278.2c5-1.1,9.9-2.7,14.6-4.8l0.8-0.3c0.7-0.4,1.3-0.6,2-1l0,1h0.3
		c-0.6,0.3-1.2,0.6-1.9,0.9l-0.8,0.3c-4.8,2.1-9.8,3.7-15,4.9V278.2z M411.9,270.4c-0.7,0.2-1.5,0.3-2.2,0.4v-1
		c0.7-0.1,1.4-0.2,2-0.4h0.1c3.7-0.4,7.4-1.3,10.9-2.8l0,1h0.1C419.4,269,415.7,270,411.9,270.4z M443.6,286.9v1
		c-4.6,0.8-9.1,2.3-13.4,4.4v-1h-0.3C434.2,289.2,438.8,287.7,443.6,286.9z M437.7,280.2v-1.1c3.9-1.1,7.9-1.7,12-1.7h0.3
		c0.3,0,0.7,0,1.1,0v1h-1.4C445.6,278.5,441.6,279,437.7,280.2z M434.5,281.3c-1.7,0.6-3.3,1.4-4.9,2.2v-1h-0.2c0,0,0,0,0,0v0h0
		c1.6-0.8,3.3-1.6,5.1-2.2V281.3z M425.9,266.5v-1.1c1.7-0.7,3.4-1.3,5.2-2v0c1.9-1,3.9-1.8,6-2.3v1c-1.9,0.5-3.8,1.3-5.6,2.2
		C429.6,265,427.7,265.8,425.9,266.5z M427,292.8l0,1.1h0.1l-0.2,0.1c-1,0.4-2.7,1.2-4.9,1.9v-1h-0.2c2.1-0.7,3.7-1.4,4.7-1.8
		L427,292.8z M465.2,298.9c-7.6-2.8-15.9-3.3-23.8-1.4v-1.1l0,0c3.4-0.9,7-1.3,10.6-1c4.7-0.1,9.3,0.8,13.7,2.6L465.2,298.9z
		 M465.2,290.5c-4.4-2.2-9.3-3.2-14.3-3.1h-0.4c-1.3,0-2.5,0-3.8,0.1v-1c1.3-0.1,2.5-0.1,3.8-0.1l0.3,0c5.1-0.2,10.2,0.9,14.8,3.2
		L465.2,290.5z M465.2,282.1c-3.3-1.9-7.1-3.1-10.9-3.4v-1c4,0.3,8,1.6,11.5,3.6L465.2,282.1z M465.3,273.8
		c-4.9-3-10.5-4.4-16.2-4.2c-4.8,0-9.6,0.8-14.1,2.4v-1.1c0,0,0,0,0,0l0,0v0c4.5-1.6,9.3-2.4,14.1-2.3c5.9-0.2,11.7,1.3,16.8,4.4
		L465.3,273.8z M440.3,261.3v-1c2.6-0.5,5.2-0.7,7.8-0.7h0.6l0,0c1.8,0,3.5,0.2,5.3,0.4v1.1c-1.8-0.3-3.7-0.5-5.5-0.5h-0.3
		C445.5,260.6,442.9,260.9,440.3,261.3z M465.3,265.4c-2.5-1.7-5.3-2.9-8.2-3.7l0-1c3.1,0.8,6.1,2.1,8.7,3.9L465.3,265.4z
		 M456.3,243.1c3.5,1.1,6.7,2.7,9.7,4.8l-0.6,0.8c-2.8-2-5.8-3.5-9.1-4.6L456.3,243.1z M442.6,241.9c1.1-0.1,2.3-0.2,3.6-0.2l0,0
		c2.3-0.1,4.6,0,6.9,0.5v1.1c-2.2-0.5-4.5-0.7-6.8-0.6c-1.3,0-2.5,0.1-3.7,0.2V241.9z M440,251.3c2.4-0.4,4.7-0.6,7.1-0.6l0.2,0
		c6.6-0.2,13.1,1.8,18.5,5.6l-0.6,0.8c-5.2-3.7-11.5-5.6-17.9-5.4h-0.3c-2.4,0-4.8,0.2-7.1,0.6V251.3z M435.2,243.3
		c1.4-0.4,2.8-0.7,4.2-1v1c-1.4,0.2-2.8,0.6-4.2,1V243.3z M432.4,253.6c1.4-0.7,2.9-1.3,4.5-1.6v1c-1.4,0.4-2.8,0.9-4,1.5
		c-3.6,1.4-8.6,3.4-12.8,4.8v-1.1C423.3,257.1,427.5,255.5,432.4,253.6L432.4,253.6z M419.6,249.1c3.1-1.1,7.4-2.7,12.5-4.7v1.1
		c-5.2,2-9.5,3.6-12.5,4.7V249.1z M400.4,251.3c4.7,0.9,9.6,0.7,14.2-0.4l0,0c0,0,0.7-0.2,1.8-0.6v1.1l-1.5,0.5
		c-2.6,0.7-5.3,1-7.9,1c-2.3,0-4.5-0.2-6.7-0.6L400.4,251.3z M400.1,260.3c4.3,0.8,8.7,0.7,13-0.2h0.1l0,0c1.2-0.1,2.4-0.4,3.6-0.9
		v1.1c-1.1,0.4-2.3,0.6-3.5,0.8c-2.2,0.6-4.5,0.9-6.7,0.8c-2.2,0-4.5-0.2-6.7-0.6L400.1,260.3z M399.9,269.4L399.9,269.4
		c2.2,0.4,4.4,0.6,6.6,0.6v1h-0.3c-2.2,0-4.4-0.2-6.5-0.6L399.9,269.4z M399.6,278.5c3.5,0.8,7.1,0.8,10.7,0.2h0.1l0,0
		c0.3,0,0.6,0,0.9-0.1v1c-0.3,0-0.5,0-0.8,0c-1.5,0.4-3,0.5-4.6,0.5c-2.2,0-4.4-0.2-6.5-0.6L399.6,278.5z M399.4,287.6
		c3.1,0.7,6.3,0.8,9.5,0.3h0.1l0,0c6-0.3,12-1.7,17.5-4.2v1.1c-5.5,2.4-11.4,3.8-17.4,4.1c-1.1,0.2-2.2,0.3-3.4,0.3
		c-2.2,0-4.4-0.2-6.5-0.7L399.4,287.6z M399.1,296.7c2.7,0.6,5.5,0.8,8.3,0.5h0.1l0,0c3.8,0,7.6-0.6,11.2-1.6v1
		c-3.6,1-7.4,1.5-11.2,1.5c-0.7,0.1-1.5,0.2-2.2,0.1c-2.2,0-4.4-0.2-6.5-0.7L399.1,296.7z M398.9,305.8c2.4,0.5,4.8,0.7,7.2,0.7
		c3,0,6-0.3,8.9-0.8v1c-2.9,0.5-5.9,0.8-8.9,0.8h-0.4c-2.4,0-4.8-0.2-7.1-0.8L398.9,305.8z"/>
	<path class="st0" d="M389.1,318.1c-1.1,0.7-2.3,1.4-3.5,1.9c-1.1,0.5-2.2,1-3.4,1.4c-0.3,0.1-0.6,0.2-0.9,0.3l0,0h0.1h1.4h75.5
		c0.2-1.6,1.4-6.8,5.6-11.6c0.2-0.2,0.3-0.4,0.5-0.5c0.2-0.2,0.3-0.4,0.5-0.5c0.9-0.9,1.9-1.7,3-2.5c-3.8-2.3-9-3.9-16.1-3.9
		c-9-0.2-17.8,2.3-25.5,7c-3,1.3-6.1,2.3-9.3,3c-3.6,0.8-7.2,1.2-10.9,1.1c-1,0.1-2,0-3,0c-2.2-0.2-4.4-0.7-6.5-1.7c0,0,0,0,0,0
		c-0.1,0-0.2-0.1-0.3-0.1c0,0.1-0.1,0.1-0.1,0.2c0,0,0,0,0,0c-0.1,0.2-0.3,0.3-0.4,0.4c0,0-0.1,0.1-0.1,0.1
		C393.7,314.8,391.5,316.6,389.1,318.1z"/>
	<path class="st0" d="M485.7,301.7c0.4-0.1,10.4-1.3,26,7.1c6.2,2.7,13,4.1,19.8,4c2.2,0.1,8.2-0.2,9.5-1.9v-65.3
		c-6,1.6-12.2,1.7-18.2,0.3c-0.1,0-7.9-2.6-19.2-7.1c-3.9-1.4-8-2.1-12.2-2c-8.1-0.2-16,2.7-22,8.3c0,0,0,0,0,0l0,60.5c0,0,0,0,0,0
		C473.3,303.3,478.6,301.7,485.7,301.7z M471.7,264.6c2.7-1.8,5.6-3.1,8.8-3.9v1c-2.9,0.8-5.7,2-8.2,3.7L471.7,264.6z M488.5,268.6
		c4.8,0,9.5,0.7,14.1,2.3v1.1c-4.5-1.6-9.3-2.4-14.1-2.4c-5.7-0.2-11.3,1.3-16.2,4.2l-0.6-0.8C476.8,269.9,482.6,268.3,488.5,268.6z
		 M483.6,261.1v-1c1.8-0.3,3.5-0.4,5.3-0.4h0.6c2.6,0,5.2,0.2,7.8,0.7v1c-2.6-0.5-5.2-0.7-7.8-0.7h-0.6v0
		C487.1,260.6,485.4,260.8,483.6,261.1z M523.1,278.2v1c-5.1-1.1-10.1-2.8-14.9-4.9l-0.8-0.3c-0.6-0.3-1.3-0.6-1.9-0.9l0.3,0v-1
		c0.7,0.3,1.4,0.6,2.1,1l0.7,0.3C513.3,275.5,518.1,277.1,523.1,278.2z M514.7,267.6l0.1,0v-1c3.5,1.5,7.1,2.4,10.9,2.8h0.1
		c0.7,0.2,1.3,0.3,2,0.4v1c-0.8-0.1-1.5-0.2-2.2-0.4C521.9,270,518.2,269.1,514.7,267.6z M511.1,293c1,0.4,2.6,1.1,4.7,1.8h-0.2v1
		c-2.2-0.7-3.9-1.4-4.9-1.9l-0.2-0.1l0.1,0v-1.1L511.1,293z M494,286.9c4.7,0.8,9.4,2.3,13.7,4.4h-0.3v1c-4.2-2.1-8.7-3.5-13.4-4.4
		V286.9z M487.9,278.5h-0.3l0,0c-0.3,0-0.7,0-1.1,0v-1h1.8c3.9,0,7.8,0.5,11.6,1.7v1.1C496,279,492,278.5,487.9,278.5z M503.1,281.3
		v-1.1c1.7,0.7,3.4,1.4,5.1,2.3H508v1h0C506.4,282.7,504.7,281.9,503.1,281.3z M511.7,266.5c-1.8-0.7-3.7-1.4-5.6-2.2
		c-1.8-0.9-3.7-1.7-5.7-2.2V261c2.1,0.6,4.2,1.3,6.1,2.4c1.7,0.7,3.4,1.4,5.1,2V266.5z M483.3,277.7v1h0c-3.9,0.3-7.6,1.5-10.9,3.5
		l-0.5-0.9C475.3,279.3,479.3,278,483.3,277.7z M486.7,286.4h1.3c1,0,1.9,0.1,2.8,0.1v1c-1.3-0.1-2.5-0.1-3.8-0.1h-0.4v0
		c-4.9-0.2-9.8,0.9-14.3,3.1l-0.5-0.9C476.5,287.3,481.6,286.2,486.7,286.4z M496.2,297.5c-3.4-0.9-6.9-1.3-10.4-1.1
		c-4.6-0.1-9.2,0.8-13.4,2.5l-0.4-0.9c4.4-1.8,9-2.7,13.7-2.6c3.5-0.2,7.1,0.1,10.5,1.1V297.5z M519.4,306.1
		c-2.8-0.6-5.5-1.5-8.1-2.7c-3.8-2.1-7.8-3.8-11.9-5h0.1v-1.1c4.3,1.3,8.4,3.1,12.3,5.2l0,0c2.5,1.1,5,2,7.7,2.6V306.1z
		 M531.9,307.5h-0.4c-3,0-6-0.3-8.9-0.8v-1c2.9,0.5,5.9,0.8,8.9,0.8c2.4,0,4.8-0.2,7.2-0.7l0.3,1
		C536.7,307.3,534.3,307.5,531.9,307.5z M538.7,297.7c-2.1,0.5-4.3,0.7-6.5,0.7c-0.7,0-1.5,0-2.2-0.2h0c-3.8,0-7.5-0.5-11.2-1.5v-1
		c3.7,1,7.4,1.5,11.2,1.5h0.1c2.8,0.3,5.6,0.1,8.3-0.5L538.7,297.7z M538.4,288.6c-2.1,0.4-4.3,0.7-6.5,0.7c-1.1,0-2.3-0.1-3.4-0.3
		l0,0c-6-0.3-11.9-1.7-17.4-4.1v-1.1c5.5,2.5,11.4,3.9,17.5,4.2h0.1c3.1,0.5,6.4,0.3,9.5-0.3L538.4,288.6z M538.2,279.5
		c-2.1,0.4-4.3,0.6-6.5,0.6c-1.5,0-3.1-0.1-4.6-0.5v0c-0.3,0-0.5,0-0.8,0v-1c0.3,0,0.6,0.1,0.9,0.1h0.1c3.5,0.7,7.2,0.6,10.7-0.2
		L538.2,279.5z M537.9,270.4c-2.2,0.4-4.3,0.6-6.5,0.6c-0.1,0-0.2,0-0.3,0v-1c2.2,0,4.5-0.2,6.6-0.6L537.9,270.4z M521.1,250.2
		c1.2,0.4,1.8,0.6,1.8,0.6c4.7,1.2,9.5,1.3,14.2,0.4l0.2,1c-2.2,0.4-4.5,0.6-6.7,0.6c-2.7,0-5.3-0.3-7.9-1l0,0c0,0-0.6-0.2-1.5-0.5
		V250.2z M520.7,259.3c1.2,0.4,2.4,0.7,3.6,0.8h0.1c4.3,1,8.7,1.1,13,0.2l0.2,1c-2.2,0.4-4.4,0.6-6.7,0.6c-2.3,0-4.5-0.3-6.7-0.8
		l0,0c-1.2-0.1-2.4-0.4-3.5-0.8V259.3z M505.5,244.4c5.1,2,9.4,3.6,12.5,4.7v1.1c-3-1.1-7.3-2.6-12.5-4.7V244.4z M505.2,253.6
		c4.9,2,9.1,3.5,12.3,4.6v1.1c-4.1-1.4-9.2-3.3-12.7-4.8c-1.3-0.7-2.7-1.2-4.1-1.6v-1C502.3,252.3,503.8,252.8,505.2,253.6z
		 M498.1,242.3c1.4,0.2,2.8,0.5,4.2,1v1c-1.4-0.4-2.8-0.8-4.2-1V242.3z M497.5,252.3c-2.4-0.4-4.8-0.6-7.1-0.6h-0.3l0,0
		c-6.4-0.2-12.7,1.7-17.9,5.4l-0.6-0.8c5.4-3.8,11.9-5.7,18.5-5.6h0.2c2.4,0,4.8,0.2,7.1,0.6V252.3z M484.5,242.3
		c2.3-0.5,4.6-0.7,6.9-0.5c1.3,0,2.5,0.1,3.6,0.2v1c-1.1-0.1-2.3-0.2-3.6-0.2l0,0c-2.3-0.1-4.6,0.1-6.9,0.6V242.3z M481.3,243v1.1
		c-3.3,1-6.3,2.5-9.1,4.6l-0.6-0.8C474.5,245.7,477.8,244.1,481.3,243z"/>
	<path class="st0" d="M558.6,321.5v-69.3c-1.7,0.1-6.4-0.4-16.6-6.4V311C542.5,311.9,546,316.9,558.6,321.5z"/>
	<path class="st0" d="M466.5,308.9c-0.2,0.2-0.4,0.4-0.6,0.5c-0.2,0.2-0.4,0.4-0.6,0.5c-4.5,4.6-5.6,10-5.9,11.7v0l0,0h18.8h0
		c-0.6-4.5-2.6-8.6-5.7-11.7c-0.2-0.2-0.4-0.4-0.6-0.6c-0.2-0.2-0.4-0.4-0.6-0.5c-0.6-0.5-1.3-1-2-1.5c0,0,0,0,0,0c0,0,0,0,0,0
		c-0.1-0.1-0.3-0.2-0.4-0.3c0,0,0,0,0,0c0,0,0,0,0,0c-0.2,0.1-0.3,0.2-0.5,0.3c0,0,0,0,0,0C467.6,308,467,308.5,466.5,308.9z"/>
	<path class="st0" d="M531.5,313.8c-3.7,0-7.3-0.3-10.9-1.1c-3.2-0.7-6.3-1.7-9.3-3c-7.6-4.7-16.5-7.2-25.4-7
		c-7.1,0-12.3,1.6-16.1,3.8c1.2,0.7,2.3,1.6,3.3,2.6c0.2,0.2,0.4,0.4,0.5,0.5c0.2,0.2,0.4,0.4,0.5,0.6c2.9,3.2,4.7,7.2,5.1,11.5
		h75.5h1.4h0.2c-0.4-0.1-0.8-0.3-1.2-0.4c-0.9-0.3-1.7-0.6-2.6-1c-1.3-0.6-2.6-1.3-3.9-2.1c-2.4-1.5-4.7-3.4-6.6-5.6
		c0,0-0.1-0.1-0.1-0.1c-0.1-0.2-0.3-0.3-0.4-0.5c0,0,0,0,0,0c0,0-0.1-0.1-0.1-0.1c-0.1,0.1-0.3,0.1-0.4,0.2c0,0,0,0,0,0
		c-2,0.9-4.2,1.5-6.4,1.6C533.5,313.9,532.5,313.9,531.5,313.8z"/>
	<path class="st0" d="M204.5,767l1.9-3.7l1.7-3.3l2.4-4.7l1.2-2.4l2.8-5.4l0.9-1.6l1.9-3.6c0,0,0,0,0,0c-0.8-0.7-1.6-1.5-2.3-2.4
		c-1.1-1.2-2-2.6-2.7-4.1c-0.2-0.5-0.4-1.1-0.6-1.6c-0.1-0.1-0.1-0.3-0.2-0.4c-0.1-0.2-0.2-0.4-0.3-0.7l-0.5,0.9l-0.5,0.9
		c-2,3.5-4.3,7.5-6.8,11.7c-2.9,4.9-6.1,10-9.4,15c-4.6,7.1-9.7,13.8-15.3,20.2c-2,2.3-4.3,4.4-6.6,6.4c0,3.8,0.2,7.6,0.8,11.3
		c0.9,6.2,2.6,12.3,5.1,18.1l14.7-28l2.5-4.8l1.1-2l1.1-2l2.5-4.8l1-2l1.3-2.5L204.5,767z"/>
	<path class="st0" d="M755.7,781.7c-5.6-6.3-10.7-13.1-15.3-20.2c-0.9-1.4-1.8-2.7-2.7-4.1c-2.1-3.3-4.1-6.5-6.1-9.7
		c-0.2-0.4-0.5-0.8-0.7-1.1c-0.5-0.8-0.9-1.6-1.4-2.4c-1.1-1.9-2.2-3.8-3.3-5.6c-1.1-2-2.2-3.9-3.2-5.6c-0.1,0.4-0.3,0.7-0.4,1.1
		c-0.8,2.1-1.9,4-3.3,5.7c-0.7,0.9-1.5,1.7-2.3,2.4l0,0l17.6,33.7l2.5,4.8l1.1,2l1,2l2.5,4.8l14.7,28c3.9-9.3,5.9-19.3,5.8-29.4
		c0,0,0,0,0,0C760,786.1,757.8,784,755.7,781.7z"/>
	<path class="st0" d="M225,801.3l2.9-4.9l2.4-4l2.8-4.7l2.8-4.6l2.3-3.9l3.2-5.3l1.9-3.2l3.6-6l1.4-2.4l2.7-4.6l1.3-2.1l1-1.6
		l3.4-5.8h0h0l0,0l0.5-0.9l0,0l1.4,0.6l0.5,0.2l0.3,0.1c2.1,0,4.2-0.2,6.3-0.7c1.2-0.3,2.4-0.7,3.6-1.2c1.8-0.7,3.3-2.1,4.1-3.9
		c2.2-6-6.7-16.6-23.5-22.7c-8.2-3-15.6-3.9-21.4-3.4c-5.3,0.5-9.1,2.2-10.8,4.7c-0.2,0.3-0.4,0.7-0.5,1.1l-1.6,3.4
		c-0.7,2.4-0.6,4.9,0.3,7.1c0.3,0.9,0.7,1.7,1.2,2.5c1.1,1.8,2.6,3.3,4.3,4.6l0.4,0.2l0.1,0.1l1.2,0.8l-0.9,1.8l-2.8,5.3l-0.1,0.3
		l-3.7,7l-0.6,1.2l-3.2,6.1l-1.2,2.3l-2.6,5l-1.9,3.5l-1.9,3.7l-0.4,0.7l-2.6,4.8c1.7,0.7,3.3,1.4,4.9,2.2c5,2.4,9.5,5.6,13.4,9.5
		c0.7,0.8,1.4,1.5,2.1,2.4c1.2,1.5,2.3,3.2,3,5L225,801.3z"/>
	<path class="st0" d="M675.2,753.5c-1.9,0.7-5.3,2-9.8,3.5c-63.9,21.4-130.7,32.7-198.1,33.3h-0.1c-67.4-0.7-134.2-11.9-198.1-33.3
		c-3.4-1.1-6.1-2.1-8-2.8c-0.7-0.3-1.3-0.5-1.8-0.7l-1.5,2.6l-3,5l-2.1,3.5l-3.7,6.1l-1.5,2.5l-4.5,7.6l-0.7,1.1l-17.2,28.9
		l-2.7,4.5c0,0,0,0,0,0c11.7,7.6,24,14.2,36.8,19.7c134.3,49.6,281.8,49.6,416.1,0c12.7-5.6,25-12.2,36.7-19.7c0,0,0,0,0,0l-2.7-4.5
		L675.2,753.5z M253.4,820.2l20.8-51.7l22,8.8l-3,7.6l-14.3-5.7l-5.3,13.1l13.4,5.3l-3.1,7.6l-13.4-5.3l-9.4,23.4L253.4,820.2z
		 M625.3,838.5l-8.6,2.4l-5.1-56.4l10.9-3.1l25.1,50.8l-8.6,2.4l-6-13l-9.4,2.7L625.3,838.5z M603.2,842.4c-1.6,1.5-3.6,2.4-5.8,2.7
		l-15.1,3.2l-11.5-54.5l17.1-3.6c3.8-0.5,7.6,1.2,9.8,4.4c3.4,5.6,5.5,11.8,6.4,18.3C606.3,823.7,608.9,836.2,603.2,842.4z
		 M535.6,799.3l8.3-1.2l5.6,37.5c0.8,5.3,1.9,10.5,7.5,9.7c5.4-0.8,4.9-6.1,4.1-11.4l-5.6-37.5l8.3-1.2l5.8,38.4
		c1.8,12.2-0.5,18.5-11.3,20.1c-10.9,1.6-15-3.7-16.8-15.9L535.6,799.3z M537.4,855.1l-8.9,0.9l-3.6-13.8l-9.8,1l-0.8,14.2l-8.9,0.9
		l5.1-56.4l11.2-1.1L537.4,855.1z M452.1,826l-0.5,8.2l-13.9-0.9l-1,17.1l15.1,0.9l-0.5,8.1l-23.5-1.4l3.5-55.6l23.5,1.4l-0.5,8.1
		l-15.2-0.9l-0.9,14L452.1,826z M396,806c-2.8-0.3-4.7,0.8-5.2,4.6c-0.4,3.3,1.1,6.5,3.8,8.5c3.3,3.2,6.3,6.6,9,10.3
		c2.3,3.6,3.1,7.9,2.3,12c-1.3,10.5-7.5,15.2-15.7,14.2c-10-1.2-12.7-8.6-11.4-18.5l0.5-4.1l8.3,1l-0.4,3.2c-0.8,5.4,0,9.4,4.1,9.9
		c3.5,0.4,5.4-1.6,5.9-5.9c0.5-2.8-0.4-5.7-2.4-7.7c-4.5-4.3-8.3-9.1-11.5-14.3c-1.1-2.8-1.4-5.8-1.1-8.7c1.2-9.4,6.1-14.1,14.8-13
		c13.2,1.6,11.3,14.2,10.7,19.7l-8-1C400.3,811.5,400.5,806.6,396,806z M355.3,842c5.3,1,6.6-4.3,7.5-9.5l6.7-37.3l8.2,1.5
		l-6.9,38.2c-2.2,12.1-6.4,17.3-17.2,15.4c-10.9-1.9-13-8.3-10.8-20.4l6.9-38.2l8.2,1.5l-6.7,37.3C350.3,835.7,349.7,841,355.3,842z
		 M315.8,783.4l16.9,4.2c3.7,1.2,6.3,4.4,6.8,8.2c0.5,6.5-0.3,13.1-2.4,19.2c-2.7,10.6-5.8,23-13.7,26.1c-2.1,0.7-4.3,0.6-6.4-0.1
		l-15-3.8L315.8,783.4z M291.7,834.1l-8-2.5l17.1-53l8,2.5L291.7,834.1z M456.9,812.8l-0.2-8.2l27.9-0.7l0.2,8.2l-9.7,0.2l1.2,47.5
		l-8.4,0.2l-1.2-47.5L456.9,812.8z M672.8,822.9l-9.4-11c-1.6-1.9-3-3.9-4.2-6l-0.1,0.1c0.8,3.5,1.2,7.1,1.1,10.7l0.2,10.9l-8.5,3.3
		l0.1-30.3l-19.8-21.9l8.8-3.3l8.8,10.2c1.6,1.8,3,3.8,4,5.9l0.2-0.1c-0.8-3.4-1.2-6.9-1.1-10.5l-0.4-10l8.8-3.3l-0.1,29.5
		l20.6,22.3L672.8,822.9z"/>
	<path class="st0" d="M780,786.7L780,786.7l-0.1-7.6l-6.1-4.5c-9.7-7.1-27.2-35-39.5-58c-0.7-1.6-1.5-3.1-2.5-4.6l-4.5-7l-1.1,0.8
		c-6.9-5-15.2-7.5-23.7-7.1c-8.2,0.1-16.4,1.6-24.1,4.5c-24.7,8.9-38.6,25.9-34.9,42.1c-114.7,36.3-237.8,36.3-352.5,0
		c3.6-16.2-10.2-33.2-34.9-42.1c-7.8-2.9-16.1-4.5-24.4-4.6c-13.3,0-23.9,4.9-29,13.5c-0.9,1.4-1.7,2.9-2.4,4.4
		c-12.3,23-29.9,50.9-39.5,58l-6.1,4.5l-0.1,7.6c-0.1,4.8,0.1,29.8,11.5,44.6l14.7,19.1l24.2-46.2c0.8,0.6,1.6,1.3,2.3,2l-7.6,12.8
		l9.7,8.4c10.9,9.5,37.6,21.5,42.9,23.9l0.4,0.2c68.8,25.1,141.4,38.1,214.7,38.5h0.1c73.3-0.4,146-13.4,214.9-38.6l0.4-0.2
		c5.2-2.3,31.9-14.4,42.8-23.9l9.7-8.4l-7.6-12.8c0.7-0.7,1.5-1.4,2.3-2l24.2,46.2l14.7-19.1C779.9,816.5,780.1,791.6,780,786.7z
		 M762.4,826.6l-7.3,9.6l-22.4-42.8c-4,1.9-7.7,4.5-10.8,7.5c-1.6,1.4-2.8,3.3-3.4,5.3l6.7,11.2l-4.8,4.2
		c-10.3,9-37.8,21.3-40.9,22.7l-0.3,0.1c-67.9,24.8-139.6,37.6-211.8,38h-0.1c-72.3-0.4-143.9-13.2-211.8-38l-0.3-0.1
		c-3.1-1.4-30.6-13.7-40.9-22.6l-4.8-4.2l6.7-11.2c-0.6-2.1-1.7-3.9-3.4-5.3c-3.2-3.1-6.8-5.6-10.8-7.5l-22.4,42.8l-7.3-9.6
		c-10-13.1-9.9-37.1-9.9-39.8l0.1-3.8l3-2.2c12.9-9.5,33.2-44.5,41.9-60.9c0.6-1.3,1.2-2.5,2-3.7v0c6.2-10.5,24.1-12.9,44.2-5.7
		c21.7,7.8,34.1,22.7,29.4,35.4c-0.6,1.5-1.4,3-2.4,4.3c121.3,40.2,252.3,40.2,373.6,0c-1-1.3-1.8-2.7-2.4-4.3
		c-4.6-12.7,7.8-27.5,29.4-35.4c19.8-7.2,38-4.6,44.2,5.7c0.8,1.2,1.5,2.5,2,3.8c8.7,16.3,29,51.4,41.9,60.9l3,2.2l0.1,3.8l0,0
		C772.4,789.5,772.5,813.6,762.4,826.6z"/>
	<path class="st0" d="M730.5,777.6l-19.2-36.7l0,0l1.6-1.1c1.7-1.3,3.2-2.8,4.3-4.6c1.2-1.8,1.8-3.8,1.9-5.9
		c0.1-1.2-0.1-2.5-0.4-3.7l-1.5-3.2c-0.2-0.4-0.4-0.8-0.6-1.2c-3.6-5.3-16.5-7-32.1-1.3c-15.2,5.5-23.9,14.7-23.8,20.8
		c0,0.6,0.1,1.3,0.3,1.8c0.8,1.8,2.3,3.2,4.1,3.9c3.1,1.3,6.5,2,9.9,1.9l0.3-0.1l2-0.8l0.5,0.9h0.1l5.9,10l25.8,43.2l0,0
		c0.8-1.8,1.8-3.5,3-5c0.6-0.8,1.3-1.6,2.1-2.4c3.9-3.9,8.4-7.1,13.4-9.5c1.6-0.8,3.2-1.5,4.9-2.2l0-0.1L730.5,777.6z"/>
	<path class="st0" d="M517.3,811.1c-0.2-1.3-0.4-2.5-0.7-3.7h-0.1c0,1.2,0,2.5,0.1,3.7c0,2.6,0.1,5.1-0.1,7.8l-0.9,16l7.1-0.7
		l-3.8-15.5C518.2,816.1,517.8,813.7,517.3,811.1z"/>
	<path class="st0" d="M328.6,813.9c3.2-12.7,3.5-18-1.4-19.2l-5.3-1.3l-9.7,38.1l3.5,0.9C323,834.2,324.6,829.5,328.6,813.9z"/>
	<path class="st0" d="M620,792.5c-0.4-1.2-0.9-2.4-1.3-3.5l-0.1,0c0.2,1.2,0.4,2.4,0.7,3.7c0.5,2.6,1,5,1.3,7.7l2,15.9l6.9-2
		l-6.5-14.6C621.8,797.3,620.9,794.9,620,792.5z"/>
	<path class="st0" d="M586,799l-5.4,1.1l8.1,38.5l3.6-0.7c7.3-1.5,6.8-6.4,3.4-22.2C593.1,802.8,590.9,798,586,799z"/>
</g>
<g>
	<path class="st0" d="M1350.7,283.5C1350.7,283.5,1350.7,283.5,1350.7,283.5c0-0.4-0.5-6.4-8.1-6.7c-7.5-0.4-13.2,7.7-13.6,8.2
		c0,0,0,0-0.1,0c-1.1,0-2.2,0.2-3.3,0.5c-5.4,2-10.3,5-14.5,8.8c-7,6.1-12,13.5-18.7,19.9c-2.6,2.4-5.4,4.6-8.3,6.7
		c-2.1,1.6-10.7,7.3-10.7,7.3s12.4,1.2,14.4-1.1c-2.9,3.3-13,10.8-12.6,21.6c0,0,17.5-19,26.3-20.2c3.8-0.4,6.1,0.6,8.2,2.3
		c3,2.3,4.2,4.8,5.8,12.9c-0.8,0.1-3.6,1.2-5.3,2.9c-1.2,1.2-1,2.6-1,2.6c3.4-0.6,7.7-1,12.6-1c5,0,9.5,0.4,12.9,1
		c0.1-0.9-0.5-1.8-1.1-2.2c-2.1-1.2-3.8-1.6-6.3-2.2c-1.2-0.3-6.2-1.6-8.4-5.3c-1.8-3-0.8-6.5-0.7-8.6c0.1-2,0.8-3.9,2.1-5.4
		c2.1-1.9,4.5-4.4,6.9-7.7c3.3-4.8,5.2-9.3,6.2-12.7c1.3-0.5,3.1-1.3,4.8-2.7c4.3-3.6,5.3-8.6,5.5-10.2c0.8-1.1,2-1.9,3.4-2.2
		c2.1-0.4,4.2,0.1,5.9,1.4c2.6,1.9,4.5,4.5,6.2,7.3C1359.1,298.8,1362.8,290.1,1350.7,283.5 M1337.2,298c-2.2,2.6-4.7,4.2-5.6,3.4
		c-0.9-0.8,0.2-3.5,2.4-6.1c2.2-2.6,4.7-4.2,5.6-3.4C1340.5,292.6,1339.4,295.3,1337.2,298z"/>
	<path class="st0" d="M1555.5,283.5C1555.5,283.5,1555.5,283.5,1555.5,283.5c0-0.4,0.5-6.4,8.1-6.7c7.5-0.4,13.2,7.7,13.6,8.2
		c0,0,0,0,0.1,0c1.1,0,2.2,0.2,3.3,0.5c5.4,2,10.3,5,14.5,8.8c7,6.1,12,13.5,18.7,19.9c2.6,2.4,5.4,4.6,8.3,6.7
		c2.1,1.6,10.7,7.3,10.7,7.3s-12.4,1.2-14.4-1.1c2.9,3.3,13,10.8,12.6,21.6c0,0-17.5-19-26.3-20.2c-3.8-0.4-6.1,0.6-8.2,2.3
		c-3,2.3-4.2,4.8-5.8,12.9c0.8,0.1,3.6,1.2,5.3,2.9c1.2,1.2,1.1,2.6,1.1,2.6c-3.4-0.6-7.7-1-12.6-1c-5,0-9.5,0.4-12.9,1
		c-0.1-0.9,0.5-1.8,1.1-2.2c2.1-1.2,3.8-1.6,6.3-2.2c1.3-0.3,6.2-1.6,8.4-5.3c1.8-3,0.9-6.5,0.7-8.6c-0.1-2-0.8-3.9-2.1-5.4
		c-2.1-1.9-4.5-4.4-6.9-7.7c-3.4-4.8-5.2-9.3-6.2-12.7c-1.3-0.5-3.1-1.3-4.8-2.7c-4.3-3.6-5.3-8.6-5.5-10.2c-0.8-1.1-2-1.9-3.4-2.2
		c-2.1-0.4-4.2,0.1-5.9,1.4c-2.6,1.9-4.5,4.5-6.2,7.3C1547,298.8,1543.4,290.1,1555.5,283.5 M1568.9,298c2.2,2.6,4.7,4.2,5.6,3.4
		c0.9-0.8-0.2-3.5-2.4-6.1c-2.2-2.6-4.7-4.2-5.6-3.4C1565.6,292.6,1566.7,295.3,1568.9,298z"/>
	<g>
		<path class="st0" d="M1201.2,744.1c-10.8,17.3-31.5,49.9-37.3,56.6c-2.3,2.6-4.7,5-7.3,7.2c0.2,7.1,1.1,14.1,2.9,20.9l43.9-82.5
			C1202.6,745.6,1201.9,744.8,1201.2,744.1z"/>
		<path class="st0" d="M1245.7,748.8c6.5-0.3,9.7-2.3,9.9-3.3c0.1-0.5-0.6-2.6-4-5.5c-4.2-3.5-10.6-6.6-17.5-8.5
			c-7-2-14-2.6-19.4-1.8c-4.5,0.7-6.2,2.2-6.3,2.6c-0.2,0.6,1.1,3.6,6.4,7.3l4.5,3.1l-28.6,53.9c8.4,2.4,15.8,6.1,21.2,10.5
			l29.9-60.3L1245.7,748.8z"/>
		<path class="st0" d="M1320.1,810.3l-3.3-0.5c-0.3,0-0.5,0.1-0.6,0.4l-2.9,18.8c0,0.3,0.1,0.5,0.4,0.6l3.3,0.5
			c2.3,0.4,3.8-0.2,4.8-1.6c0.9-1.3,1.4-4.7,1.9-7.5c0.4-2.8,0.9-6.2,0.5-7.7C1323.7,811.7,1322.4,810.6,1320.1,810.3z"/>
		<path class="st0" d="M1608.2,807.7c-0.1-0.3-0.2-0.4-0.3-0.4l-0.2,0c-0.2,0-0.2,0.2-0.2,0.5l-0.1,11.5c0,0.3,0.2,0.5,0.5,0.4
			l4.6-0.9c0.3-0.1,0.4-0.3,0.3-0.6L1608.2,807.7z"/>
		<path class="st0" d="M1451.6,795c-82.4,0-159.8-12.2-204.4-32l-32,64.5c50.9,22.8,140.4,36.9,236.4,36.9c96,0,185.5-14,236.4-36.9
			l-32-64.5C1611.4,782.9,1534,795,1451.6,795z M1275.4,801.6l-13.1-3.6c-0.3-0.1-0.5,0.1-0.6,0.3l-1.5,5.5
			c-0.1,0.3,0.1,0.5,0.4,0.6l12.6,3.5c0.5,0.1,0.9,0.7,0.7,1.2l-1.3,4.6c-0.1,0.5-0.7,0.8-1.2,0.7l-12.6-3.5c-0.3-0.1-0.5,0-0.6,0.3
			l-3.2,11.5c-0.1,0.5-0.7,0.8-1.2,0.7l-4.9-1.4c-0.5-0.1-0.9-0.7-0.7-1.2l8.4-30.4c0.1-0.5,0.7-0.8,1.2-0.7l19.4,5.4
			c0.5,0.1,0.9,0.7,0.7,1.2l-1.3,4.6C1276.5,801.4,1276,801.7,1275.4,801.6z M1303.1,806.2c-0.1,0.5-0.6,0.8-1.2,0.7l-5.5-1.1
			c-0.3-0.1-0.5,0.1-0.6,0.4l-3.9,19.2c-0.1,0.3,0.1,0.5,0.4,0.6l6,1.2c0.5,0.1,0.9,0.6,0.8,1.1l-0.9,4.4c-0.1,0.5-0.6,0.8-1.2,0.7
			l-19.9-4.1c-0.5-0.1-0.9-0.6-0.8-1.1l0.9-4.4c0.1-0.5,0.6-0.8,1.2-0.7l6,1.2c0.3,0.1,0.5-0.1,0.6-0.4l3.9-19.2
			c0.1-0.3-0.1-0.5-0.4-0.6l-5.5-1.1c-0.5-0.1-0.9-0.6-0.8-1.1l0.9-4.4c0.1-0.5,0.6-0.8,1.2-0.7l18.9,3.9c0.5,0.1,0.9,0.6,0.8,1.1
			L1303.1,806.2z M1330.8,822c-0.7,4.2-1.3,7.5-3,10c-2.3,3.4-6.4,5.4-11.9,4.6l-9.8-1.5c-0.6-0.1-0.9-0.6-0.9-1.1l4.9-31.1
			c0.1-0.5,0.6-0.9,1.2-0.8l9.8,1.5c5.4,0.8,8.7,4,9.9,8C1331.9,814.5,1331.5,817.8,1330.8,822z M1359.3,832.1
			c-0.7,6.2-6.6,9.9-12.9,9.2c-6.2-0.7-11.2-5.6-10.5-11.8l2.5-22.3c0.1-0.5,0.6-0.9,1.1-0.8l5.1,0.6c0.6,0.1,1,0.5,0.9,1.1
			l-2.5,22.3c-0.2,2.1,1.3,4,4.1,4.3c2.9,0.3,4.8-1.2,5.1-3.3l2.5-22.3c0.1-0.5,0.6-0.9,1.1-0.8l5.1,0.6c0.6,0.1,1,0.5,0.9,1.1
			L1359.3,832.1z M1389.1,820.6l0,0.2c0,0.5-0.5,0.9-1.1,0.9l-5.1-0.4c-0.6,0-1-0.5-0.9-1l0-0.2c0.2-2.1-1.5-3.7-4-3.9
			c-2.8-0.2-4.5,0.8-4.6,2.8c-0.1,1.7,1,3,6.8,4.8c6.6,2.2,9,5.7,8.6,10.8c-0.5,6.3-5.7,10-13.2,9.5c-7.3-0.6-12-5.2-11.5-11.4
			l0.1-0.9c0-0.5,0.5-0.9,1.1-0.9l5.4,0.4c0.6,0,1,0.5,0.9,1l-0.1,1c-0.2,2.3,1.7,4.1,4.6,4.3c3,0.2,5.1-1,5.3-3
			c0.2-2.2-0.7-3.4-7.1-5.5c-6.2-2.1-8.7-5.8-8.3-10.8c0.4-5.2,5.3-9,12.5-8.5C1385.7,810.2,1389.6,814.7,1389.1,820.6z
			 M1446.9,818.7c0,0.5-0.5,1-1,0.9l-13.3-0.2c-0.3,0-0.5,0.2-0.5,0.5l-0.1,5.7c0,0.3,0.2,0.5,0.5,0.5l12.9,0.2c0.6,0,1,0.4,1,1
			l-0.1,4.8c0,0.5-0.5,1-1,0.9l-12.9-0.2c-0.3,0-0.5,0.2-0.5,0.5l-0.1,5.7c0,0.3,0.2,0.5,0.5,0.5l13.5,0.2c0.6,0,1,0.4,1,1l-0.1,4.8
			c0,0.5-0.5,1-1,0.9l-20.1-0.3c-0.6,0-1-0.4-1-1l0.5-31.5c0-0.5,0.5-0.9,1-0.9l19.9,0.3c0.6,0,1,0.4,1,1L1446.9,818.7z
			 M1476.4,819.4l-7.9,0.1c-0.3,0-0.5,0.2-0.5,0.5l0.3,25.3c0,0.5-0.4,1-1,1l-5.1,0.1c-0.6,0-1-0.4-1-0.9l-0.3-25.3
			c0-0.3-0.2-0.5-0.5-0.5l-7.9,0.1c-0.6,0-1-0.4-1-0.9l-0.1-4.8c0-0.5,0.4-1,1-1l23.8-0.3c0.6,0,1,0.4,1,0.9l0.1,4.8
			C1477.4,819,1477,819.4,1476.4,819.4z M1536.4,842.8l-5.3,0.4c-0.5,0-0.8-0.2-1-0.6l-1.9-4.8c-0.2-0.4-0.4-0.7-0.8-0.7l-7.7,0.6
			c-0.5,0-0.6,0.3-0.7,0.8l-1,5c-0.1,0.5-0.5,0.8-0.9,0.8l-5.3,0.4c-0.7,0-1-0.2-1.1-0.6c0-0.2,0-0.4,0.1-1l6.5-31.6
			c0.1-0.5,0.5-0.7,0.9-0.8l6.8-0.5c0.5,0,0.8,0.2,1,0.6l11.1,30.3c0.2,0.5,0.3,0.7,0.3,0.9C1537.4,842.5,1537.1,842.8,1536.4,842.8
			z M1553,841.6c-6.2,0.7-12.1-3-12.8-9.2l-2.4-22.3c-0.1-0.5,0.4-1,0.9-1.1l5.1-0.6c0.6-0.1,1.1,0.3,1.1,0.8l2.4,22.3
			c0.2,2.1,2.1,3.6,5,3.3c2.9-0.3,4.5-2.2,4.2-4.3l-2.4-22.3c-0.1-0.5,0.4-1,0.9-1.1l5.1-0.6c0.6-0.1,1.1,0.3,1.1,0.8l2.4,22.3
			C1564.3,836.1,1559.3,840.9,1553,841.6z M1592.7,829.3c-1.2,3.9-4.5,7.1-9.9,7.9l-9.8,1.5c-0.6,0.1-1.1-0.3-1.2-0.8l-4.7-31.2
			c-0.1-0.5,0.3-1,0.9-1.1l9.8-1.5c5.4-0.8,9.5,1.2,11.8,4.6c1.7,2.5,2.3,5.8,2.9,10C1593.2,823.1,1593.6,826.4,1592.7,829.3z
			 M1624.9,829.6l-5.2,1c-0.4,0.1-0.8-0.1-1.1-0.5l-2.5-4.5c-0.2-0.4-0.4-0.6-0.9-0.6l-7.6,1.5c-0.4,0.1-0.6,0.4-0.6,0.9l-0.4,5.1
			c-0.1,0.5-0.4,0.8-0.8,0.9l-5.2,1c-0.6,0.1-1.1-0.1-1.1-0.5c0-0.2,0-0.4,0-1l2.6-32.2c0.1-0.5,0.4-0.8,0.8-0.9l6.7-1.3
			c0.4-0.1,0.8,0.1,1.1,0.5l14.7,28.7c0.3,0.5,0.3,0.7,0.4,0.9C1625.8,829.2,1625.5,829.5,1624.9,829.6z M1655.6,821.6l-5.9,1.6
			c-0.4,0.1-0.8,0-1.1-0.4l-7.5-9.7c-0.2-0.2-0.2-0.2-0.4-0.2c-0.1,0-0.2,0.1-0.2,0.4l-1.6,12.2c-0.1,0.6-0.3,0.8-0.7,0.9l-5.9,1.6
			c-0.6,0.2-1-0.2-1.1-0.5c-0.1-0.3-0.1-0.6,0.1-1.2l2.9-16.7c0.1-0.2,0-0.4,0-0.5c0-0.1-0.1-0.3-0.3-0.5l-10-11.6
			c-0.2-0.2-0.3-0.4-0.3-0.6c-0.1-0.4,0.1-0.8,0.7-0.9l5.5-1.5c0.4-0.1,0.7,0,1.1,0.4l6.7,8.4c0.2,0.2,0.2,0.2,0.4,0.2
			c0.1,0,0.2-0.1,0.2-0.4l1.5-10.6c0.1-0.6,0.3-0.8,0.7-0.9l5.5-1.5c0.7-0.2,1,0.1,1.1,0.4c0.1,0.2,0.1,0.4,0,0.6l-2.7,15
			c0,0.2,0,0.4,0,0.5c0,0.1,0.1,0.3,0.3,0.5l11,12.9c0.4,0.4,0.6,0.7,0.6,1C1656.4,820.9,1656.3,821.4,1655.6,821.6z"/>
		<path class="st0" d="M1583.6,812.5c-0.9-1.4-2.5-1.9-4.8-1.6l-3.3,0.5c-0.3,0-0.5,0.3-0.4,0.5l2.8,18.8c0,0.3,0.3,0.4,0.6,0.4
			l3.3-0.5c2.3-0.3,3.6-1.4,4.1-2.9c0.4-1.5,0-4.9-0.4-7.7C1585,817.1,1584.4,813.7,1583.6,812.5z"/>
		<path class="st0" d="M1522.5,819c-0.1-0.3-0.1-0.4-0.3-0.4l-0.2,0c-0.2,0-0.2,0.2-0.2,0.4l-1.5,11.4c0,0.3,0.1,0.5,0.4,0.5
			l4.7-0.3c0.3,0,0.4-0.2,0.4-0.6L1522.5,819z"/>
		<path class="st0" d="M1738.5,800.8c-5.8-6.6-26.5-39.3-37.3-56.6c-0.7,0.7-1.4,1.5-2.2,2.2l43.9,82.5c1.7-6.8,2.7-13.8,2.8-20.9
			C1743.2,805.8,1740.8,803.3,1738.5,800.8z"/>
		<path class="st0" d="M1770.5,795.9l-7.1-5.8c-2.3-1.9-4.6-4-6.5-6.3c-3.8-4.3-23.6-35.2-40.1-61.7c-5-11.6-17.5-18.3-34.7-18.3
			c-6.8,0-14.2,1.1-21.4,3.1c-10.5,3-20.1,7.8-27,13.6c-12.5,10.4-13.8,21.4-13.1,28c-40.3,12.4-97.1,19.9-157.2,20.9
			c84.2-53.1,157-148.2,200.3-262.1c40.1-105.3,50.8-214.2,30.2-306.7l-2.3-10.5h-482.4l-2.3,10.5c-20.6,92.5-9.8,201.4,30.2,306.7
			c43.4,114,116.1,209,200.3,262.1c-60.2-1-117-8.6-157.2-21c0.7-6.7-0.7-17.5-13.1-27.9c-7-5.8-16.6-10.6-27-13.6
			c-7.2-2-14.6-3.1-21.3-3.1c-3.1,0-6.1,0.2-8.9,0.7c-16.5,2.5-23.2,11.5-25.9,17.6c-16.5,26.6-36.3,57.5-40.1,61.7
			c-2,2.3-4.2,4.4-6.6,6.3l-7.1,5.8l-0.1,9.1c-0.1,16.2,3,31.9,9.3,46.8l16,37.7l26.2-49.3l15.8,7.8c53,25.9,150,42,253.2,42
			c103.2,0,200.3-16.1,253.2-42.1l15.2-7.5l26.1,49.1l16-37.7c6.3-14.9,9.4-30.7,9.3-46.8L1770.5,795.9z M1250.4,502.4
			c-40.4-106.3-48.8-213-29.7-299.1h461c19.1,86,10.8,192.8-29.7,299.1c-45,118.2-119.9,210.4-200.8,259.2
			C1370.3,712.9,1295.4,620.6,1250.4,502.4z M1749.8,846.6l-5,11.8l-26.9-50.7c-0.7,0.2-1.5,0.3-2.2,0.5c-8.8,2.5-15.3,6.3-18.8,9.7
			l7.5,15.2l-5.5,2.7c-51.3,25.1-146,40.7-247.3,40.7c-101.3,0-196.1-15.6-247.4-40.7l-5.5-2.7l7.3-14.8c-3.3-3.5-10-7.6-19.2-10.2
			c-0.7-0.2-1.5-0.3-2.2-0.5l-26.9,50.7l-5-11.8c-5.6-13.2-8.3-27.2-8.2-41.5l0-2.9l2.2-1.8c2.9-2.4,5.6-5,8.1-7.8
			c5.7-6.5,31.9-48.2,42-64.5c1.3-3.5,5.1-8.8,15.9-10.4c7.1-1.1,15.8-0.4,24.6,2.1c8.7,2.4,16.5,6.3,22.1,10.9
			c9.2,7.7,9,14.7,8,18.2c-0.8,2.8-2.5,5.2-5,7.2c44.2,16.7,114.3,26.8,189.2,26.8c74.5,0,144.5-10,188.7-26.6
			c-2.6-1.9-4.4-4.4-5.2-7.3c-1-3.5-1.2-10.5,8-18.2c5.5-4.6,13.4-8.5,22.1-11c17.2-4.8,36.3-3.4,40.5,8.4
			c10.1,16.3,36.3,58,42,64.5c2.5,2.8,5.2,5.4,8.1,7.8l2.2,1.8l0,2.9C1758.1,819.5,1755.4,833.4,1749.8,846.6z"/>
		<path class="st0" d="M1687.8,739.7c5.3-3.6,6.5-6.6,6.4-7.3c-0.5-1.9-10.2-5.2-25.7-0.8c-7,2-13.4,5.1-17.5,8.6
			c-3.5,2.9-4.2,5.1-4,5.5c0.3,0.9,3.6,3.1,10.4,3.3l4.3-2.1l29.7,59.9c5.3-4.2,12.5-7.7,20.6-10.1l-28.6-53.9L1687.8,739.7z"/>
	</g>
	<g>
		<path class="st0" d="M1384,337.4v-56.8c-6.5,3.2-10.4,4.4-12.5,4.8v60.2C1380.9,341.8,1383.6,338,1384,337.4z"/>
		<path class="st0" d="M1412.5,334.7c14.6-7.9,24.3-6.7,24.7-6.7c0,0,0,0,0,0c5.5,0,9.7,1,13.2,2.6v-52c-6-3.4-12.1-5.2-18.6-5.4
			c-9.2-0.4-14.5,1.9-19.7,4.1c-6.4,2.7-12.6,5.3-24.4,2.7v57.4c1.2,0.5,4.2,1,7.1,0.9C1401.2,338.3,1407,337.1,1412.5,334.7z
			 M1392.9,287.1c7.7,0.8,12.1-1.1,17.3-3.3c5.3-2.3,11.2-4.8,21.3-4.4c4.8,0.2,9.5,1.2,14,2.9l-1.4,3.5c-4.1-1.6-8.4-2.5-12.8-2.6
			c-9.2-0.4-14.5,1.9-19.7,4.1c-4.4,1.9-8.9,3.8-15.4,3.8c-1.2,0-2.5-0.1-3.8-0.2L1392.9,287.1z M1392.9,296.5
			c7.7,0.9,12.1-1.1,17.3-3.3c5.3-2.3,11.3-4.8,21.3-4.4c4.8,0.2,9.5,1.2,14,2.9l-1.4,3.5c-4.1-1.6-8.4-2.5-12.8-2.6
			c-9.2-0.4-14.5,1.9-19.7,4.1c-4.4,1.9-8.9,3.8-15.4,3.8c-1.2,0-2.5-0.1-3.8-0.2L1392.9,296.5z M1392.9,305.9
			c7.7,0.8,12.1-1.1,17.3-3.3c5.3-2.3,11.2-4.8,21.3-4.4c4.8,0.2,9.5,1.2,14,2.9l-1.4,3.5c-4.1-1.6-8.4-2.5-12.8-2.6
			c-9.2-0.4-14.5,1.9-19.7,4.1c-4.4,1.9-8.9,3.8-15.4,3.8c-1.2,0-2.5-0.1-3.8-0.2L1392.9,305.9z M1392.9,315.3
			c7.7,0.9,12.1-1.1,17.3-3.3c5.3-2.3,11.3-4.8,21.3-4.4c4.8,0.2,9.5,1.2,14,2.9l-1.4,3.5c-4.1-1.6-8.4-2.5-12.8-2.6
			c-9.2-0.3-14.5,1.9-19.7,4.1c-4.4,1.9-8.9,3.8-15.4,3.8c-1.2,0-2.5-0.1-3.8-0.2L1392.9,315.3z M1393,325.1
			c7.6,0.9,12.1-1.2,17.2-3.7c5.3-2.5,11.3-5.4,21.4-5c4.8,0.2,9.6,1.3,14,3.2l-1.5,3.5c-4.1-1.8-8.3-2.7-12.7-2.9
			c-9.1-0.4-14.4,2.2-19.6,4.6c-4.4,2.1-8.9,4.3-15.5,4.3c-1.2,0-2.5-0.1-3.9-0.2L1393,325.1z"/>
		<path class="st0" d="M1492.6,334.7c5.4,2.4,11.3,3.6,17.5,3.5c3,0,6.2-0.4,7.3-1v-57.3c-11.8,2.6-18,0.1-24.4-2.7
			c-5.2-2.2-10.5-4.5-19.7-4.1c-6.7,0.3-13,2.2-19.2,5.7v52c3.6-1.7,8.1-2.9,13.9-2.9C1468.3,327.9,1478,326.7,1492.6,334.7z
			 M1473.8,279.4c10-0.4,16,2.2,21.3,4.4c5.2,2.2,9.7,4.1,17.3,3.3l0.4,3.8c-1.4,0.1-2.6,0.2-3.8,0.2c-6.5,0-11-1.9-15.4-3.8
			c-5.2-2.2-10.5-4.5-19.7-4.1c-4.4,0.2-8.7,1.1-12.8,2.6l-1.4-3.5C1464.2,280.5,1468.9,279.6,1473.8,279.4z M1473.8,288.8
			c10-0.4,16,2.2,21.3,4.4c5.2,2.2,9.6,4.2,17.3,3.3l0.4,3.8c-1.4,0.1-2.6,0.2-3.8,0.2c-6.5,0-11-1.9-15.4-3.8
			c-5.2-2.2-10.4-4.5-19.7-4.1c-4.4,0.2-8.7,1.1-12.8,2.6l-1.4-3.5C1464.2,289.9,1469,288.9,1473.8,288.8z M1473.8,298.1
			c10-0.4,16,2.2,21.3,4.4c5.2,2.2,9.7,4.1,17.3,3.3l0.4,3.8c-1.4,0.1-2.6,0.2-3.8,0.2c-6.5,0-11-1.9-15.4-3.8
			c-5.2-2.2-10.5-4.5-19.7-4.1c-4.4,0.2-8.7,1.1-12.8,2.6l-1.4-3.5C1464.3,299.3,1469,298.3,1473.8,298.1z M1473.8,307.5
			c10-0.4,16,2.2,21.3,4.4c5.2,2.2,9.6,4.2,17.3,3.3l0.4,3.8c-1.4,0.2-2.6,0.2-3.8,0.2c-6.5,0-11-1.9-15.4-3.8
			c-5.2-2.2-10.4-4.5-19.7-4.1c-4.4,0.2-8.7,1-12.8,2.6l-1.4-3.5C1464.2,308.7,1469,307.7,1473.8,307.5z M1459.7,319.7
			c4.5-1.9,9.2-3,14-3.2c10.1-0.4,16.1,2.4,21.4,5c5.2,2.5,9.6,4.6,17.2,3.7l0.5,3.8c-1.4,0.2-2.7,0.2-3.9,0.2
			c-6.5,0-11.1-2.2-15.5-4.3c-5.1-2.5-10.5-5.1-19.6-4.6c-4.4,0.2-8.6,1.2-12.7,2.9L1459.7,319.7z"/>
		<path class="st0" d="M1449.1,334.2c-3.1-1.5-7-2.4-12.2-2.4c-0.3,0-9.2-1-22.7,6.3c-6.2,2.8-12.6,4.1-19.3,4c-1.9,0-6,0-8.7-1.3
			c-1.2,1.4-3.5,3.5-7.6,5.7h63.2C1442.4,343.8,1444.2,338.4,1449.1,334.2z"/>
		<path class="st0" d="M1658.2,231.7h-414c-12.6,79.7-1.3,171.3,32.7,260.6c38.6,101.4,101.5,186.2,174.3,235.6
			c72.7-49.4,135.7-134.2,174.3-235.6C1659.5,403,1670.9,311.4,1658.2,231.7z M1607.8,485.6c-10,26.4-21.8,51.6-35,75.3H1496v104.6
			c-14.3,14.7-29.3,27.9-44.8,39.3c-15.2-11.2-29.8-24.1-43.8-38.3V560.9h-77.8c-13.1-23.7-24.9-48.9-35-75.3
			c-1.7-4.4-3.3-8.9-4.9-13.3h117.6v-85.9h88.6v85.9h116.7C1611.1,476.7,1609.5,481.2,1607.8,485.6z M1637.2,376.9l-372,0
			c-7.2-43.7-8.8-86.7-4.4-126.3h380.8C1646,290.2,1644.5,333.2,1637.2,376.9z"/>
		<path class="st0" d="M1521.2,280.6v57c0.7,1,3.7,4.5,12.4,8c0-17.7,0-52.3,0.1-60.2C1531.6,285,1527.7,283.8,1521.2,280.6z"/>
		<path class="st0" d="M1518.9,340.7c-2.7,1.2-6.8,1.3-8.8,1.3c-6.5,0.1-13-1.2-19.1-3.9c-13.6-7.4-22.5-6.4-22.6-6.4
			c-5.2,0-9.2,1-12.3,2.5c4.8,4.3,6.6,9.6,7.2,12.3h63.2C1522.4,344.2,1520.1,342.2,1518.9,340.7z"/>
		<path class="st0" d="M1452.6,336.3c-4.4,3.3-6.2,7.6-6.9,10.2h13.7C1458.7,343.9,1456.9,339.6,1452.6,336.3z"/>
	</g>
</g>
<g>
	<path class="st0" d="M1404,103.6h9.1c1.8,0,3.3,0.5,4.4,1.5c1.1,1,1.7,2.5,1.7,4.3c0,1.6-0.5,3-1.5,4.1c-1,1.2-2.5,1.8-4.5,1.8
		h-6.3v8.6h-2.8V103.6z M1414.7,106.4c-0.6-0.3-1.4-0.4-2.5-0.4h-5.4v7h5.4c1.2,0,2.2-0.3,3-0.8s1.1-1.5,1.1-2.8
		C1416.3,107.9,1415.8,106.9,1414.7,106.4z"/>
	<path class="st0" d="M1422.4,109.1h2.4v2.6c0.2-0.5,0.7-1.1,1.4-1.8c0.8-0.7,1.6-1.1,2.6-1.1c0,0,0.1,0,0.2,0c0.1,0,0.3,0,0.6,0.1
		v2.6c-0.1,0-0.3,0-0.4-0.1c-0.1,0-0.3,0-0.4,0c-1.3,0-2.2,0.4-2.9,1.2s-1,1.7-1,2.8v8.5h-2.5V109.1z"/>
	<path class="st0" d="M1440.9,109.5c1,0.5,1.7,1.1,2.2,1.9c0.5,0.7,0.8,1.6,1,2.6c0.1,0.7,0.2,1.8,0.2,3.3h-10.8
		c0,1.5,0.4,2.7,1.1,3.6c0.7,0.9,1.7,1.4,3.1,1.4c1.3,0,2.3-0.4,3.1-1.3c0.4-0.5,0.7-1.1,0.9-1.7h2.4c-0.1,0.5-0.3,1.2-0.6,1.8
		c-0.4,0.7-0.8,1.2-1.2,1.6c-0.8,0.7-1.7,1.2-2.8,1.5c-0.6,0.1-1.3,0.2-2,0.2c-1.8,0-3.4-0.7-4.7-2c-1.3-1.3-1.9-3.2-1.9-5.6
		c0-2.4,0.6-4.3,1.9-5.8c1.3-1.5,3-2.2,5-2.2C1438.9,108.7,1439.9,109,1440.9,109.5z M1441.8,115.3c-0.1-1.1-0.3-1.9-0.7-2.6
		c-0.7-1.2-1.8-1.8-3.4-1.8c-1.1,0-2.1,0.4-2.9,1.2c-0.8,0.8-1.2,1.9-1.2,3.1H1441.8z"/>
	<path class="st0" d="M1449,119.2c0.1,0.8,0.3,1.5,0.6,1.9c0.6,0.8,1.8,1.2,3.3,1.2c0.9,0,1.8-0.2,2.5-0.6c0.7-0.4,1.1-1,1.1-1.9
		c0-0.6-0.3-1.1-0.9-1.5c-0.4-0.2-1.1-0.4-2.2-0.7l-2-0.5c-1.3-0.3-2.2-0.7-2.8-1.1c-1.1-0.7-1.6-1.6-1.6-2.8c0-1.4,0.5-2.5,1.5-3.4
		c1-0.9,2.4-1.3,4.1-1.3c2.3,0,3.9,0.7,4.9,2c0.6,0.8,0.9,1.7,0.9,2.7h-2.4c0-0.6-0.2-1.1-0.6-1.5c-0.6-0.7-1.6-1-3-1
		c-1,0-1.7,0.2-2.2,0.5c-0.5,0.4-0.7,0.8-0.7,1.4c0,0.6,0.3,1.2,1,1.5c0.4,0.2,0.9,0.4,1.7,0.6l1.7,0.4c1.8,0.4,3,0.9,3.7,1.3
		c1,0.6,1.5,1.6,1.5,3c0,1.3-0.5,2.5-1.5,3.4s-2.6,1.4-4.6,1.4c-2.2,0-3.8-0.5-4.7-1.5c-0.9-1-1.4-2.2-1.5-3.7H1449z"/>
	<path class="st0" d="M1470.8,109.5c1,0.5,1.7,1.1,2.2,1.9c0.5,0.7,0.8,1.6,1,2.6c0.1,0.7,0.2,1.8,0.2,3.3h-10.8
		c0,1.5,0.4,2.7,1.1,3.6c0.7,0.9,1.7,1.4,3.1,1.4c1.3,0,2.3-0.4,3.1-1.3c0.4-0.5,0.7-1.1,0.9-1.7h2.5c-0.1,0.5-0.3,1.2-0.6,1.8
		c-0.4,0.7-0.8,1.2-1.2,1.6c-0.8,0.7-1.7,1.2-2.8,1.5c-0.6,0.1-1.3,0.2-2,0.2c-1.8,0-3.4-0.7-4.7-2c-1.3-1.3-1.9-3.2-1.9-5.6
		c0-2.4,0.6-4.3,1.9-5.8c1.3-1.5,3-2.2,5-2.2C1468.8,108.7,1469.9,109,1470.8,109.5z M1471.7,115.3c-0.1-1.1-0.3-1.9-0.7-2.6
		c-0.7-1.2-1.8-1.8-3.4-1.8c-1.1,0-2.1,0.4-2.9,1.2c-0.8,0.8-1.2,1.9-1.2,3.1H1471.7z"/>
	<path class="st0" d="M1477.4,109.1h2.4v2.1c0.7-0.9,1.4-1.5,2.2-1.9s1.7-0.6,2.6-0.6c2.1,0,3.5,0.7,4.3,2.2c0.4,0.8,0.6,2,0.6,3.4
		v9.5h-2.5v-9.3c0-0.9-0.1-1.6-0.4-2.2c-0.4-0.9-1.2-1.4-2.4-1.4c-0.6,0-1.1,0.1-1.5,0.2c-0.7,0.2-1.3,0.6-1.8,1.2
		c-0.4,0.5-0.7,1-0.8,1.5c-0.1,0.5-0.2,1.3-0.2,2.2v7.8h-2.5V109.1z"/>
	<path class="st0" d="M1493.7,104.9h2.5v4.1h2.4v2h-2.4v9.7c0,0.5,0.2,0.9,0.5,1c0.2,0.1,0.5,0.2,1,0.2c0.1,0,0.2,0,0.4,0
		c0.1,0,0.3,0,0.5,0v2c-0.3,0.1-0.6,0.1-0.9,0.2c-0.3,0-0.6,0.1-1,0.1c-1.2,0-2-0.3-2.4-0.9c-0.4-0.6-0.6-1.4-0.6-2.3v-9.8h-2v-2h2
		V104.9z"/>
</g>
<g>
	<path class="st0" d="M441.3,103.6h9.1c1.8,0,3.3,0.5,4.4,1.5c1.1,1,1.7,2.5,1.7,4.3c0,1.6-0.5,3-1.5,4.1c-1,1.2-2.5,1.8-4.5,1.8
		h-6.3v8.6h-2.8V103.6z M452,106.4c-0.6-0.3-1.4-0.4-2.5-0.4h-5.4v7h5.4c1.2,0,2.2-0.3,3-0.8c0.8-0.5,1.1-1.5,1.1-2.8
		C453.7,107.9,453.1,106.9,452,106.4z"/>
	<path class="st0" d="M467.6,114.9c0.6-0.1,1-0.3,1.1-0.7c0.1-0.2,0.2-0.5,0.2-1c0-0.9-0.3-1.5-0.9-1.9c-0.6-0.4-1.5-0.6-2.6-0.6
		c-1.3,0-2.2,0.4-2.8,1.1c-0.3,0.4-0.5,1-0.6,1.7h-2.3c0-1.8,0.6-3.1,1.8-3.8s2.5-1.1,4-1.1c1.7,0,3.2,0.3,4.2,1
		c1.1,0.7,1.6,1.7,1.6,3.1v8.5c0,0.3,0.1,0.5,0.2,0.6c0.1,0.2,0.3,0.2,0.7,0.2c0.1,0,0.2,0,0.4,0c0.1,0,0.3,0,0.4-0.1v1.8
		c-0.4,0.1-0.7,0.2-0.9,0.2s-0.5,0-0.8,0c-0.9,0-1.5-0.3-1.9-0.9c-0.2-0.3-0.3-0.8-0.4-1.4c-0.5,0.7-1.2,1.2-2.2,1.7
		c-1,0.5-2,0.7-3.1,0.7c-1.4,0-2.5-0.4-3.4-1.3s-1.3-1.9-1.3-3.1c0-1.4,0.4-2.4,1.3-3.2c0.9-0.8,2-1.2,3.4-1.4L467.6,114.9z
		 M462.3,121.6c0.5,0.4,1.1,0.6,1.9,0.6c0.9,0,1.7-0.2,2.5-0.6c1.4-0.7,2.1-1.8,2.1-3.3v-2c-0.3,0.2-0.7,0.4-1.2,0.5
		c-0.5,0.1-0.9,0.2-1.4,0.3l-1.5,0.2c-0.9,0.1-1.6,0.3-2,0.6c-0.8,0.4-1.2,1.1-1.2,2.1C461.5,120.7,461.8,121.2,462.3,121.6z"/>
	<path class="st0" d="M476.9,119.2c0.1,0.8,0.3,1.5,0.6,1.9c0.6,0.8,1.8,1.2,3.3,1.2c0.9,0,1.8-0.2,2.5-0.6c0.7-0.4,1.1-1,1.1-1.9
		c0-0.6-0.3-1.1-0.9-1.5c-0.4-0.2-1.1-0.4-2.2-0.7l-2-0.5c-1.3-0.3-2.2-0.7-2.8-1.1c-1.1-0.7-1.6-1.6-1.6-2.8c0-1.4,0.5-2.5,1.5-3.4
		s2.4-1.3,4.1-1.3c2.3,0,3.9,0.7,4.9,2c0.6,0.8,0.9,1.7,0.9,2.7H484c0-0.6-0.3-1.1-0.6-1.5c-0.6-0.7-1.6-1-3-1c-1,0-1.7,0.2-2.2,0.5
		c-0.5,0.4-0.7,0.8-0.7,1.4c0,0.6,0.3,1.2,1,1.5c0.4,0.2,0.9,0.4,1.7,0.6l1.7,0.4c1.8,0.4,3,0.9,3.7,1.3c1,0.6,1.5,1.6,1.5,3
		c0,1.3-0.5,2.5-1.5,3.4s-2.6,1.4-4.6,1.4c-2.2,0-3.8-0.5-4.7-1.5c-0.9-1-1.4-2.2-1.5-3.7H476.9z"/>
	<path class="st0" d="M490.1,104.9h2.5v4.1h2.4v2h-2.4v9.7c0,0.5,0.2,0.9,0.5,1c0.2,0.1,0.5,0.2,1,0.2c0.1,0,0.2,0,0.4,0
		c0.1,0,0.3,0,0.5,0v2c-0.3,0.1-0.6,0.1-0.9,0.2c-0.3,0-0.6,0.1-1,0.1c-1.2,0-2-0.3-2.4-0.9c-0.4-0.6-0.6-1.4-0.6-2.3v-9.8h-2v-2h2
		V104.9z"/>
</g>
</svg>
