<?xml version="1.0" encoding="utf-8"?>
<!-- Generator: Adobe Illustrator 21.0.2, SVG Export Plug-In . SVG Version: 6.00 Build 0)  -->
<svg version="1.1" id="Layer_1" xmlns="http://www.w3.org/2000/svg" xmlns:xlink="http://www.w3.org/1999/xlink" x="0px" y="0px"
	 viewBox="0 0 1920 1943.9" style="enable-background:new 0 0 1920 1943.9;" xml:space="preserve">
<style type="text/css">
	.st0{fill:#FFFFFF;}
</style>
<g>
	<path class="st0" d="M682.1,467.4l-0.5-0.1c-8.8-1.7-20.2-2.6-32.1-2.6c-11.4,0-22.5,0.9-31.3,2.4l-0.5,0.1l-0.1-0.5
		c0-0.2-0.4-3.8,2.7-6.9c3.9-3.8,10.4-6.6,13-7.3c-3.7-19.2-6.7-25.8-14.1-31.5c-4.5-3.4-10-6.5-20-5.5
		c-21.5,2.8-64.8,49.8-65.3,50.3l-0.8,0.9l0-1.2c-0.9-22.8,16.3-39.5,26.6-49.5c0.9-0.9,1.7-1.7,2.5-2.4c-9.4,3.3-32,1.1-33.2,1
		l-1.4-0.1l1.2-0.8c0.2-0.1,21.5-14.2,26.7-18.2c7.3-5.1,14.2-10.7,20.6-16.6c7.6-7.2,14.5-15.2,21.1-22.8
		c7.9-9.2,16-18.6,25.6-26.9c10.7-9.7,22.9-17.1,36.4-22.1c2.7-0.9,5.4-1.3,8.2-1.3c1.8-2.6,15.7-21.6,34.1-20.7
		c18.2,0.9,20.3,14.5,20.5,17c15.6,8.6,20.5,18.6,21.8,25.5c1.5,7.5-0.7,13-0.8,13.2l-0.4,0.9l-0.5-0.8c-4-6.5-8.6-13.2-15.4-18.2
		c-4.1-3.1-9.2-4.4-14.2-3.4c-3.2,0.7-6.1,2.6-8.1,5.3c-0.9,6.1-4,17.4-14,25.7c-3.4,2.9-7.4,5.1-11.8,6.7
		c-3.5,11.3-8.8,21.9-15.5,31.6c-5,7-10.7,13.6-17.2,19.4c-2.9,3.7-4.7,8.3-4.9,13.2c-0.1,1-0.2,2.2-0.3,3.5
		c-0.6,5-1.4,11.8,2.1,17.8c5.3,8.9,17,12.2,20.5,13c6.5,1.5,10.7,2.6,15.9,5.5c1.9,1.1,3.3,3.7,3.1,6L682.1,467.4z M649.5,463.7
		c11.7,0,22.9,0.9,31.7,2.5c-0.1-1.8-1.2-3.7-2.6-4.5c-5.1-2.9-9.3-3.9-15.6-5.4c-3.6-0.8-15.7-4.2-21.1-13.5
		c-3.7-6.2-2.8-13.3-2.2-18.4c0.1-1.2,0.3-2.4,0.3-3.4c0.3-5.1,2.1-9.9,5.2-13.8c6.5-5.8,12.2-12.3,17.1-19.3
		c6.7-9.6,11.9-20.2,15.5-31.6l0.1-0.2l0.2-0.1c4.4-1.5,8.3-3.8,11.7-6.6c9.8-8.2,12.8-19.4,13.6-25.3l0-0.1l0.1-0.1
		c2.1-2.9,5.2-4.9,8.8-5.7c5.3-1,10.8,0.3,15,3.6c6.6,4.8,11.2,11.2,15.1,17.5c1.3-4.3,4.7-22.5-21.1-36.6l-0.2-0.1l-0.1-0.4
		c-0.1-1.5-1.6-15.4-19.6-16.3c-18.2-0.9-31.8,18.2-33.3,20.4l-0.4,0.3l-0.2,0c-2.7,0-5.4,0.4-8,1.3c-13.3,5-25.5,12.3-36,21.9
		c-9.5,8.2-17.6,17.7-25.5,26.8c-6.6,7.7-13.5,15.7-21.2,22.9c-6.5,6-13.4,11.6-20.7,16.7c-4.5,3.5-21,14.4-25.6,17.4
		c6.1,0.5,29.8,2.2,34.1-2.7c0,0,0,0,0,0l0.7,0.7l0,0c-1.2,1.4-3,3.1-5,5c-10,9.7-26.6,25.8-26.4,47.5c2.8-3,12.4-13.1,23.8-23.3
		c18.2-16.3,32.1-25.2,41.3-26.5c10.4-1,16.1,2.2,20.7,5.7c7.7,6,10.7,12.7,14.6,32.6l0.1,0.5l-0.5,0.1c-2,0.4-8.9,3.1-12.9,7.1
		c-2.1,2.1-2.4,4.5-2.5,5.5C627.3,464.6,638.3,463.7,649.5,463.7z M675.5,347.9c-0.7,0-1.3-0.2-1.8-0.6c-2.8-2.3,0.8-10,5.8-16
		c4.3-5.2,9.3-8.9,12.5-9.2c0.9-0.1,1.6,0.1,2.2,0.6c1.3,1.1,1.3,3.3,0.1,6.5c-1.1,2.9-3.2,6.3-5.9,9.6l0,0
		C683.6,344.4,678.6,347.9,675.5,347.9z M692.3,323.1c-0.1,0-0.2,0-0.3,0c-2.8,0.3-7.7,3.9-11.8,8.8c-5.7,6.8-7.7,13.2-5.9,14.6
		c1.8,1.5,7.5-1.6,13.3-8.5l0,0c2.6-3.2,4.7-6.5,5.7-9.3c1-2.6,1.1-4.6,0.2-5.3C693.2,323.2,692.8,323.1,692.3,323.1z"/>
	<path class="st0" d="M1270.8,467.4l0-0.5c-0.2-2.3,1.2-4.9,3.1-6c5.2-2.9,9.4-4,15.9-5.5c3.5-0.8,15.2-4.1,20.5-13
		c3.5-6,2.7-12.8,2.1-17.8c-0.1-1.2-0.3-2.4-0.3-3.5c-0.3-4.9-2-9.5-5-13.3c-6.4-5.7-12.2-12.2-17.1-19.3
		c-6.8-9.7-12-20.3-15.5-31.6c-4.4-1.6-8.4-3.8-11.8-6.7c-10-8.4-13-19.7-14-25.7c-2-2.7-4.8-4.5-8.1-5.3c-5-1-10.2,0.3-14.2,3.4
		c-6.8,5-11.4,11.7-15.4,18.2l-0.5,0.8l-0.4-0.9c-0.1-0.2-8.9-22.2,21-38.7c0.2-2.2,2.3-16.2,20.5-17c18.7-0.9,32.9,18.9,34.1,20.7
		c2.7,0,5.5,0.4,8.2,1.3c13.5,5,25.7,12.5,36.4,22.1c9.6,8.3,17.7,17.7,25.6,26.9c6.6,7.7,13.4,15.6,21.1,22.8
		c6.4,6,13.3,11.6,20.6,16.6c5.2,4,26.5,18,26.7,18.2l1.2,0.8l-1.4,0.1c-1.1,0.1-23.8,2.4-33.2-1c0.8,0.8,1.6,1.6,2.5,2.4
		c10.3,10,27.5,26.8,26.6,49.5l0,1.2l-0.8-0.9c-0.4-0.5-43.8-47.5-65.3-50.3c-10.1-0.9-15.6,2.1-20,5.5
		c-7.4,5.7-10.4,12.3-14.1,31.5c2.6,0.7,9,3.3,13,7.3c3.1,3.1,2.8,6.7,2.8,6.9l-0.1,0.5l-0.5-0.1c-8.8-1.6-19.9-2.4-31.3-2.4
		c-11.9,0-23.2,0.9-32.1,2.6L1270.8,467.4z M1237.1,317.9c1.2,0,2.4,0.1,3.6,0.3c3.5,0.8,6.6,2.8,8.8,5.8l0.1,0.1l0,0.1
		c0.9,5.9,3.9,17.1,13.6,25.3c3.4,2.9,7.4,5.1,11.7,6.6l0.2,0.1l0.1,0.2c3.5,11.3,8.7,21.9,15.5,31.6c4.9,7,10.7,13.5,17,19.2
		c3.2,4,5,8.8,5.3,13.9c0.1,1,0.2,2.2,0.3,3.4c0.6,5.1,1.4,12.1-2.2,18.4c-5.5,9.3-17.6,12.7-21.1,13.5c-6.4,1.5-10.5,2.5-15.6,5.4
		c-1.4,0.8-2.5,2.7-2.6,4.5c8.8-1.6,20-2.5,31.7-2.5c11.2,0,22.1,0.8,30.9,2.3c0-1-0.4-3.4-2.5-5.5c-4-4-11-6.7-12.9-7.1l-0.5-0.1
		l0.1-0.5c3.8-19.9,6.8-26.6,14.6-32.6c4.6-3.6,10.3-6.7,20.7-5.7c9.2,1.2,23.1,10.1,41.3,26.5c11.4,10.2,21,20.3,23.8,23.3
		c0.2-21.7-16.4-37.8-26.4-47.5c-2-2-3.7-3.6-5-5l0.7-0.7c4.3,4.9,28.1,3.2,34.1,2.7c-4.6-3-21.1-14-25.6-17.4
		c-7.3-5.1-14.2-10.7-20.7-16.7c-7.7-7.2-14.5-15.2-21.1-22.9c-7.9-9.1-16-18.6-25.5-26.8c-10.6-9.6-22.7-17-36-22
		c-2.6-0.9-5.3-1.3-8-1.3l-0.2,0l-0.4-0.3c-0.6-0.9-14.6-21.3-33.3-20.4c-7.7,0.4-13.3,3.1-16.7,8.2c-2.6,3.9-2.9,7.7-2.9,8.2l0,0.1
		l-0.2,0.3l-0.1,0.1c-15.4,8.4-20.2,18.2-21.6,24.9c-1.1,5.5-0.1,9.8,0.4,11.7c3.9-6.3,8.5-12.7,15.1-17.6
		C1229,319.2,1233,317.9,1237.1,317.9z M1277.4,347.9c-3.3,0-8.7-4.2-12.9-9.2l0,0c-5-6.1-8.6-13.7-5.8-16c2.8-2.3,9.6,2.5,14.7,8.6
		c5,6.1,8.6,13.7,5.8,16C1278.7,347.7,1278.1,347.9,1277.4,347.9z M1260.5,323.1c-0.5,0-0.9,0.1-1.2,0.4c-1.8,1.5,0.2,7.7,5.9,14.6
		l0,0c5.7,6.9,11.5,10,13.3,8.5c1.7-1.5-0.3-7.8-5.9-14.6C1267.9,326.2,1263,323.1,1260.5,323.1z"/>
	<g>
		<path class="st0" d="M245.3,1667.2l-0.3-1.2c-4.3-17-6.7-34.6-7.1-52.3l0-0.2l0.2-0.2c6.4-5.6,12.5-11.7,18.1-18.1
			c14.3-16.3,64.3-95.6,92.8-141.4l0.3-0.6l0.4,0.5c1.7,1.9,3.5,3.7,5.3,5.4l0.3,0.3l-0.2,0.3L245.3,1667.2z M238.9,1613.9
			c0.4,17.2,2.7,34.2,6.8,50.6l108.5-204.9c-1.6-1.5-3.2-3.1-4.7-4.7c-28.6,45.9-78.3,124.7-92.5,140.9
			C251.3,1602.2,245.2,1608.3,238.9,1613.9z"/>
		<path class="st0" d="M375.5,1612.3l-0.5-0.4c-13.5-11-32.1-20.3-52.5-26.1l-0.6-0.2l0.3-0.5l71.1-134.4l-10.9-7.5
			c-13.6-9.4-16.5-17-16-18.7c0.4-1.5,5-5.2,16.1-6.9c13.5-2,31.2-0.4,48.6,4.5c17.4,4.9,33.4,12.7,43.8,21.5
			c8.6,7.2,10.6,12.9,10.2,14.3c-0.4,1.5-3.1,3.4-6.9,5c-3.4,1.4-9.4,3.1-18.3,3.5l-0.1,0l-9.9-4.8L375.5,1612.3z M323.4,1585
			c20,5.8,38.4,15,51.8,25.8l74.4-150.6l10.5,5.2c15.9-0.7,23.6-5.8,24.2-7.8c0.2-0.6-0.9-5.7-9.9-13.3
			c-10.3-8.7-26.1-16.4-43.4-21.3c-17.2-4.9-34.8-6.5-48.1-4.4c-11.6,1.8-15.2,5.6-15.3,6.2c-0.4,1.3,2.5,8.6,15.6,17.6l11.6,8
			l-0.2,0.4L323.4,1585z"/>
		<path class="st0" d="M640.7,1669.6c-1,0-2-0.1-3.2-0.3l-8.2-1.3c-1-0.2-1.6-1-1.5-1.9l7.3-46.9c0.1-0.5,0.3-0.9,0.6-1.1
			c0.4-0.3,0.8-0.4,1.4-0.3l8.2,1.3c5.7,0.9,9.2,3.5,10.5,7.7c1.1,3.6,0.1,11.5-1.2,19.5c-1.2,8-2.7,15.8-4.8,18.9
			C647.9,1668.1,644.8,1669.6,640.7,1669.6z M636.8,1618.7c-0.2,0-0.3,0-0.4,0.1c-0.1,0.1-0.2,0.3-0.2,0.5l-7.3,46.9
			c-0.1,0.6,0.4,0.8,0.7,0.8l8.2,1.3c5.3,0.8,9.1-0.4,11.4-3.7c2-2.9,3.4-10.6,4.6-18.5c1.2-7.9,2.2-15.6,1.2-19
			c-1.1-3.8-4.4-6.2-9.7-7l-8.2-1.3C636.9,1618.8,636.9,1618.7,636.8,1618.7z"/>
		<path class="st0" d="M1361.6,1643.8c-0.4,0-0.7-0.1-0.9-0.3c-0.2-0.2-0.5-0.6-0.6-1.3l0.4-28.7c0-0.5,0-1.5,0.8-1.7l0.5-0.1
			c0.8-0.2,1.2,0.7,1.4,1.2l11.3,26.3c0.3,0.7,0.1,1.2,0,1.5c-0.1,0.3-0.4,0.6-1.1,0.7l-11.4,2.3
			C1361.9,1643.8,1361.7,1643.8,1361.6,1643.8z M1362,1612.7l-0.4,0.1c0,0,0,0.2,0,0.7l-0.4,28.7c0,0.2,0.1,0.5,0.2,0.5
			c0.1,0.1,0.3,0.1,0.4,0l11.4-2.3c0.1,0,0.3-0.1,0.4-0.2c0.1-0.1,0.1-0.3,0-0.6l-11.3-26.3C1362.1,1612.8,1362,1612.7,1362,1612.7z
			"/>
		<path class="st0" d="M972.7,1755.4c-117.1,0-233.5-8.5-336.5-24.7c-102.8-16.1-190.1-39.5-252.4-67.5l-0.5-0.2l0.2-0.5l79.9-161.7
			l0.4,0.2c54.5,24.3,130.3,44.6,219,58.6c89,14,189.2,21.4,289.8,21.4c100.6,0,200.7-7.4,289.8-21.4c88.8-14,164.5-34.2,219-58.6
			l0.4-0.2l0.2,0.4l79.9,161.8l-0.5,0.2c-62.2,28-149.5,51.4-252.3,67.5C1206.2,1746.9,1089.8,1755.4,972.7,1755.4z M384.7,1662.5
			c62.1,27.9,149.1,51.1,251.6,67.2c103,16.2,219.3,24.7,336.4,24.7c117.1,0,233.4-8.5,336.4-24.7c102.5-16.1,189.5-39.3,251.6-67.2
			l-79.2-160.4c-54.6,24.3-130.2,44.5-218.9,58.4c-89.1,14-189.3,21.4-289.9,21.4c-100.6,0-200.9-7.4-289.9-21.4
			c-88.6-14-164.3-34.2-218.9-58.4L384.7,1662.5z M958,1710.4C958,1710.4,958,1710.4,958,1710.4l-50.2-0.8c-0.8,0-1.6-0.3-2.2-0.9
			c-0.5-0.5-0.8-1.3-0.8-2l1.3-78.8c0-1.6,1.4-2.8,3-2.8c0,0,0,0,0,0l49.7,0.8c0.8,0,1.5,0.3,2.1,0.9c0.6,0.6,0.9,1.3,0.9,2.1
			l-0.2,11.9c0,0.7-0.3,1.4-0.9,2c-0.6,0.6-1.4,0.9-2.2,0.9l-33.2-0.5c-0.5,0-0.8,0.2-0.8,0.7l-0.2,14.3c0,0.2,0.1,0.4,0.2,0.5
			c0.1,0.1,0.3,0.2,0.6,0.2l32.2,0.5c0.8,0,1.6,0.4,2.2,0.9c0.5,0.5,0.8,1.3,0.8,2l-0.2,11.9c0,1.6-1.4,2.8-3,2.8c0,0,0,0-0.1,0
			l-32.2-0.5c-0.5,0-0.8,0.2-0.8,0.7l-0.2,14.3c0,0.2,0.1,0.4,0.2,0.5c0.1,0.1,0.3,0.2,0.6,0.2l33.7,0.5c0.8,0,1.6,0.3,2.2,0.9
			c0.5,0.5,0.8,1.3,0.8,2l-0.2,11.9C961,1709.2,959.6,1710.4,958,1710.4z M909.1,1626.1c-1.1,0-2,0.8-2,1.9l-1.3,78.8
			c0,0.5,0.2,0.9,0.5,1.3c0.4,0.4,0.9,0.6,1.5,0.6l50.2,0.8c1.1,0,2-0.8,2.1-1.9l0.2-11.9c0-0.5-0.2-0.9-0.5-1.3
			c-0.4-0.4-0.9-0.6-1.5-0.6l-33.7-0.5c-0.5,0-1-0.2-1.3-0.5c-0.3-0.3-0.5-0.7-0.5-1.2l0.2-14.3c0-1,0.8-1.7,1.8-1.7c0,0,0,0,0,0
			l32.2,0.5c0,0,0,0,0,0c1.1,0,2-0.8,2-1.9l0.2-11.9c0-0.5-0.2-0.9-0.5-1.3c-0.4-0.4-0.9-0.6-1.5-0.6l-32.2-0.5
			c-0.5,0-1-0.2-1.3-0.5c-0.3-0.3-0.5-0.7-0.5-1.2l0.2-14.3c0-1,0.7-1.7,1.8-1.7l33.2,0.5c0.6,0,1.1-0.2,1.5-0.6
			c0.4-0.3,0.6-0.8,0.6-1.3v0l0.2-11.9c0-0.5-0.2-1-0.6-1.3c-0.4-0.4-0.9-0.6-1.4-0.6L909.1,1626.1
			C909.2,1626.1,909.2,1626.1,909.1,1626.1z M999.3,1710.2c-0.8,0-1.6-0.3-2.2-0.9c-0.5-0.5-0.8-1.2-0.8-2l-0.8-63.3
			c0-0.4-0.3-0.7-0.8-0.7c0,0,0,0,0,0l-19.6,0.3c-1.7,0-3-1.3-3.1-2.8l-0.2-12c0-1.6,1.3-2.9,3-2.9l59.4-0.8c0,0,0,0,0,0
			c1.7,0,3,1.3,3,2.9l0.1,11.9c0,0.7-0.3,1.4-0.8,2c-0.6,0.6-1.4,0.9-2.2,0.9h0l-19.6,0.3c-0.2,0-0.4,0.1-0.6,0.2
			c-0.1,0.1-0.2,0.3-0.2,0.5l0.8,63.3c0,0.8-0.3,1.5-0.9,2.1c-0.6,0.5-1.3,0.9-2.1,0.9L999.3,1710.2
			C999.4,1710.2,999.4,1710.2,999.3,1710.2z M994.8,1642.4c1,0,1.7,0.7,1.8,1.7l0.8,63.3c0,0.5,0.2,0.9,0.5,1.3
			c0.4,0.4,0.9,0.6,1.5,0.6l12.6-0.2c0.5,0,1.1-0.2,1.4-0.6c0.4-0.4,0.6-0.8,0.6-1.3l-0.8-63.3c0-0.5,0.2-0.9,0.5-1.2
			c0.3-0.3,0.7-0.5,1.2-0.5l19.6-0.3c0.6,0,1.1-0.2,1.5-0.6c0.3-0.4,0.5-0.8,0.5-1.3l-0.1-11.9c0-1-0.9-1.9-2-1.9c0,0,0,0,0,0
			l-59.4,0.8c-1.1,0-2,0.9-2,1.9l0.2,11.9c0,1,0.9,1.9,2,1.9c0,0,0,0,0,0L994.8,1642.4C994.8,1642.4,994.8,1642.4,994.8,1642.4z
			 M1122,1706.1c-1.9,0-2.7-1-2.8-2.1c0-0.7,0-1.2,0.3-2.6l16.3-79.1c0.3-1.4,1.3-2.2,2.7-2.3l16.9-1.3c1.4-0.1,2.5,0.6,3,1.9
			l27.7,75.8c0.5,1.3,0.7,1.8,0.7,2.5c0.1,1.1-0.6,2.3-2.8,2.5l0,0l-13.2,1c-1.4,0.1-2.5-0.6-3-1.9l-4.8-12c-0.4-1-0.7-1.4-1.5-1.3
			l-19.1,1.4c-0.8,0.1-1,0.4-1.3,1.6l-2.6,12.5c-0.3,1.4-1.3,2.3-2.7,2.4l-13.2,1C1122.3,1706.1,1122.1,1706.1,1122,1706.1z
			 M1155.7,1619.7c-0.1,0-0.1,0-0.2,0l-16.9,1.3c-1,0.1-1.6,0.6-1.8,1.6l-16.3,79c-0.3,1.4-0.4,1.8-0.3,2.3c0.1,1.2,1.5,1.2,2.1,1.1
			l13.2-1c1-0.1,1.6-0.6,1.8-1.6l2.6-12.5c0.3-1.2,0.7-2.2,2.2-2.3l19.2-1.4c1.5-0.1,2.1,0.9,2.5,1.9l4.8,12c0.4,0.9,1.1,1.4,2,1.3
			l13.2-1c0.8-0.1,2-0.3,1.9-1.5c0-0.5-0.2-1-0.7-2.2l-27.7-75.7C1157.2,1620.2,1156.5,1619.7,1155.7,1619.7z M787.2,1704.6
			c-1.2,0-2.5-0.1-3.8-0.2c-18.3-1.4-30.3-13.4-29-29l0.2-2.4c0.1-0.7,0.4-1.4,1-1.9c0.6-0.5,1.4-0.8,2.3-0.7l13.3,1.1
			c1.7,0.1,2.9,1.5,2.8,3.1l-0.2,2.4c-0.2,2.3,0.5,4.5,2,6.2c1.9,2.3,5.1,3.7,9,4c4.3,0.3,8-0.5,10.2-2.5c1.4-1.2,2.2-2.8,2.4-4.7
			c0.4-5.1-1.1-7.9-17.2-13.3c-15.1-5-22-14-20.9-27.5c0.5-6.6,3.9-12.5,9.4-16.4c5.8-4.1,13.5-5.9,22.2-5.2
			c17.5,1.4,28.1,12.3,26.9,27.9l0,0.6c-0.1,0.7-0.4,1.4-1,1.9c-0.6,0.5-1.4,0.8-2.3,0.7l-12.7-1c-1.7-0.1-2.9-1.5-2.8-3.1l0.1-0.6
			c0.4-5-3.5-8.8-9.4-9.2c-3.9-0.3-7,0.4-8.9,2c-1.3,1.1-2,2.6-2.2,4.6c-0.3,3.9,2.3,6.9,16.6,11.6c16.1,5.3,22.8,13.8,21.7,27.5
			c-0.6,7.9-4.1,14.3-10.1,18.6C801.5,1702.7,794.8,1704.6,787.2,1704.6z M757.5,1671.4c-0.5,0-1,0.2-1.4,0.5
			c-0.4,0.3-0.6,0.8-0.6,1.2l-0.2,2.4c-1.2,15.3,10.1,26.5,28.1,28c9,0.7,16.8-1.1,22.5-5.3c5.8-4.1,9.1-10.3,9.7-17.9
			c1-13.1-5.5-21.3-21-26.5c-15-4.9-17.6-8.2-17.3-12.6c0.2-2.2,1-3.9,2.5-5.2c2.1-1.8,5.4-2.6,9.6-2.2c6.4,0.5,10.8,4.8,10.4,10.3
			l-0.1,0.6c-0.1,1,0.8,1.9,1.9,2l12.7,1c0.6,0,1.1-0.1,1.5-0.5c0.4-0.3,0.6-0.8,0.6-1.2l0-0.6c1.2-15-9-25.5-25.9-26.8
			c-8.5-0.7-15.9,1.1-21.5,5c-5.3,3.8-8.5,9.3-9,15.7c-1,13,5.6,21.6,20.3,26.5c15.9,5.3,18.4,8.2,17.9,14.3c-0.2,2.1-1.1,4-2.7,5.3
			c-2.5,2.1-6.4,3.1-10.9,2.7c-4.2-0.3-7.6-1.9-9.7-4.3c-1.6-1.9-2.4-4.3-2.2-6.9l0.2-2.4c0.1-1-0.8-2-1.9-2l-13.3-1.1
			C757.7,1671.4,757.6,1671.4,757.5,1671.4z M1221.5,1698.7c-6.5,0-12.6-1.9-17.7-5.4c-6.3-4.3-10.2-10.9-11-18.4l-6.1-55.8
			c-0.1-0.7,0.1-1.5,0.6-2.1c0.5-0.6,1.3-1,2.1-1.1l12.7-1.4c0.8-0.1,1.6,0.1,2.2,0.6c0.6,0.5,1,1.2,1.1,1.9l6,55.8
			c0.6,5.3,5.4,8.5,11.8,7.8c6.5-0.7,10.7-4.9,10.1-10.2l-6.1-55.8c-0.1-0.7,0.1-1.5,0.6-2.1c0.5-0.6,1.3-1,2.1-1.1l12.7-1.4
			c0.8-0.1,1.7,0.2,2.3,0.7c0.6,0.5,1,1.1,1,1.9l6.1,55.8c0.8,7.5-1.6,14.7-6.8,20.3c-5,5.4-12.2,8.8-20.1,9.7h0
			C1224,1698.6,1222.8,1698.7,1221.5,1698.7z M1202.6,1615.5c-0.1,0-0.2,0-0.2,0l-12.7,1.4c-0.6,0.1-1.1,0.3-1.4,0.8
			c-0.3,0.4-0.5,0.9-0.4,1.3l6.1,55.8c0.8,7.2,4.5,13.5,10.6,17.6c5.8,4,13.2,5.8,20.8,5h0c7.7-0.8,14.6-4.2,19.4-9.4
			c5-5.4,7.3-12.3,6.6-19.5l-6.1-55.8c0-0.5-0.3-0.9-0.7-1.2c-0.4-0.3-1-0.5-1.6-0.4l-12.7,1.4c-0.6,0.1-1.1,0.3-1.4,0.8
			c-0.3,0.4-0.5,0.9-0.4,1.3l6.1,55.8c0.6,5.9-3.9,10.5-11,11.3c-6.9,0.8-12.2-2.8-12.9-8.7l-6-55.8c-0.1-0.5-0.3-0.9-0.7-1.2
			C1203.5,1615.7,1203,1615.5,1202.6,1615.5z M714.5,1697.6c-1.3,0-2.6-0.1-4-0.2c-7.8-0.9-14.8-4.3-19.8-9.7
			c-5.2-5.6-7.6-12.8-6.7-20.3l6.3-55.7c0.2-1.6,1.7-2.7,3.3-2.5l12.7,1.4c0.8,0.1,1.6,0.5,2.1,1.1c0.5,0.6,0.7,1.3,0.6,2.1
			l-6.3,55.7c-0.6,5.3,3.4,9.5,9.8,10.2c3.4,0.4,6.3-0.2,8.5-1.7c2-1.4,3.3-3.5,3.6-6l6.3-55.7c0.1-0.7,0.4-1.4,1-1.9
			c0.6-0.5,1.5-0.7,2.3-0.7l12.7,1.4c1.7,0.2,2.9,1.6,2.7,3.2l-6.3,55.7c-0.8,7.5-4.8,14-11.1,18.3
			C727.2,1695.8,721,1697.6,714.5,1697.6z M693.3,1610.1c-1,0-1.9,0.7-2,1.7l-6.3,55.7c-0.8,7.2,1.5,14.1,6.5,19.5
			c4.8,5.2,11.6,8.6,19.2,9.4c7.7,0.9,15.1-0.9,21-4.9c6.1-4.1,9.9-10.4,10.7-17.6v0l6.3-55.7c0.1-1-0.7-2-1.8-2.1l-12.7-1.4
			c-0.6-0.1-1.1,0.1-1.6,0.4c-0.4,0.3-0.6,0.7-0.7,1.2l-6.3,55.7c-0.3,2.8-1.7,5.1-4,6.7c-2.4,1.7-5.6,2.3-9.2,1.9
			c-6.9-0.8-11.3-5.4-10.7-11.3l6.3-55.7c0.1-0.5-0.1-0.9-0.4-1.3c-0.3-0.4-0.9-0.7-1.4-0.8l-12.7-1.4
			C693.5,1610.1,693.4,1610.1,693.3,1610.1z M1274.6,1691.3c-0.7,0-1.3-0.2-1.8-0.6c-0.6-0.5-1-1.1-1.1-1.8l-11.6-77.9
			c-0.1-0.7,0.1-1.5,0.5-2.1c0.5-0.7,1.2-1.1,2-1.2l24.5-3.7c12.7-1.9,23.6,2.4,30,11.8c4.3,6.4,5.8,14.5,7.4,25.3
			c1.6,10.7,2.6,18.9,0.3,26.4l0,0c-3.3,10.9-12.5,18.2-25.2,20.2l-24.5,3.7C1274.9,1691.2,1274.7,1691.3,1274.6,1691.3z
			 M1292.8,1604.4c-1.8,0-3.7,0.1-5.6,0.4l-24.5,3.7c-0.6,0.1-1.1,0.4-1.4,0.8c-0.3,0.4-0.4,0.9-0.3,1.3l11.6,77.9
			c0.1,0.5,0.3,0.9,0.7,1.2c0.4,0.3,1,0.5,1.6,0.4l24.5-3.7c12.3-1.9,21.2-9,24.4-19.5l0,0c2.2-7.2,1.2-15.3-0.3-25.9
			c-1.6-10.6-3-18.6-7.2-24.9C1311,1608.6,1302.7,1604.4,1292.8,1604.4z M641,1686.4c-1.9,0-3.9-0.2-6-0.5l-24.5-3.8
			c-1.6-0.3-2.8-1.7-2.5-3.3l12.1-77.8c0.2-1.6,1.8-2.6,3.4-2.4l24.5,3.8c12.7,2,21.8,9.4,25.1,20.3c2.2,7.4,1.2,15.6-0.5,26.4
			c-1.7,10.7-3.2,18.8-7.5,25.2C659.7,1682.2,651.1,1686.4,641,1686.4z M623,1599.6c-1,0-1.8,0.7-2,1.6L609,1679
			c-0.2,1,0.6,2,1.7,2.2l24.5,3.8c12.3,1.9,22.9-2.2,29-11.2c4.3-6.3,5.7-14.2,7.4-24.8l0.5,0.1l-0.5-0.1
			c1.6-10.6,2.6-18.7,0.5-25.9c-3.1-10.5-12-17.7-24.3-19.6l-24.5-3.8C623.2,1599.6,623.1,1599.6,623,1599.6z M1342.8,1680.7
			c-1.5,0-2.3-0.8-2.4-1.7c-0.1-0.7-0.1-1.2,0-2.6l6.6-80.5c0.2-1.4,1-2.4,2.4-2.7l16.6-3.3c1.4-0.3,2.5,0.3,3.2,1.5l36.7,71.8
			c0.6,1.2,0.9,1.7,1,2.4c0.1,0.7,0,1.3-0.5,1.8c-0.4,0.5-1.1,0.8-2,1l0,0l-13,2.6c-1.4,0.3-2.5-0.3-3.2-1.5l-6.2-11.3
			c-0.6-1-0.9-1.3-1.7-1.1l-18.8,3.8c-0.8,0.2-1,0.5-1.1,1.7l-1.1,12.7c-0.2,1.4-1,2.4-2.4,2.7l-13,2.6
			C1343.4,1680.7,1343.1,1680.7,1342.8,1680.7z M1366.7,1590.9c-0.2,0-0.3,0-0.5,0l-16.6,3.3c-0.9,0.2-1.5,0.8-1.6,1.8l-6.6,80.4
			c-0.1,1.4-0.1,1.8,0,2.3c0.2,1.1,1.7,1,2.3,0.9l13-2.6c0.9-0.2,1.5-0.8,1.6-1.8l1.1-12.7c0.1-1.2,0.4-2.3,1.9-2.6l18.8-3.8
			c1.5-0.3,2.2,0.6,2.7,1.6l6.2,11.3c0.5,0.9,1.2,1.2,2.2,1l13-2.6c0.7-0.1,1.2-0.4,1.5-0.7c0.3-0.3,0.3-0.6,0.3-1
			c-0.1-0.5-0.3-0.9-0.9-2.1l-36.7-71.8C1368,1591.2,1367.4,1590.9,1366.7,1590.9z M588.4,1678.1c-0.2,0-0.4,0-0.7-0.1l-49.5-10.3
			c-1.6-0.3-2.7-1.9-2.4-3.4l2.3-11.1c0.3-1.6,1.9-2.5,3.5-2.2l14.9,3.1c0.3,0.1,0.5,0,0.6-0.1c0.1-0.1,0.2-0.2,0.3-0.4l9.8-47.9
			c0.1-0.4-0.1-0.7-0.6-0.8L553,1602c-1.6-0.3-2.7-1.9-2.4-3.4l2.3-11.1c0.2-0.7,0.6-1.4,1.2-1.8c0.7-0.4,1.5-0.6,2.3-0.4l47.1,9.7
			c1.6,0.3,2.7,1.9,2.4,3.4l-2.3,11.1c-0.1,0.7-0.6,1.4-1.2,1.8c-0.7,0.4-1.5,0.6-2.3,0.4l-13.6-2.8c-0.2,0-0.8-0.1-0.9,0.5
			l-9.8,47.9c-0.1,0.4,0.1,0.7,0.6,0.8l14.9,3.1c1.6,0.4,2.7,1.9,2.4,3.4l-2.3,11.1c-0.2,0.7-0.6,1.4-1.2,1.8
			C589.6,1678,589,1678.1,588.4,1678.1z M541,1652c-0.9,0-1.8,0.6-1.9,1.5l-2.3,11.1c-0.2,1,0.5,2,1.6,2.3l49.5,10.3
			c0.6,0.1,1.1,0,1.6-0.3c0.4-0.3,0.7-0.7,0.8-1.1l2.3-11.1c0.2-1-0.5-2-1.6-2.3l-14.9-3.1c-1-0.2-1.6-1-1.4-2l9.8-47.9
			c0.2-1,1-1.5,2-1.3l13.6,2.8c0.5,0.1,1.1,0,1.6-0.3c0.4-0.3,0.7-0.7,0.8-1.2l0,0l2.3-11.1c0.2-1-0.5-2-1.6-2.3l-47.1-9.7
			c-0.6-0.1-1.1,0-1.6,0.3c-0.4,0.3-0.7,0.7-0.8,1.2l-2.3,11.1c-0.2,1,0.5,2,1.6,2.3l13.6,2.8c1,0.2,1.6,1,1.4,2l-9.8,47.9
			c-0.1,0.5-0.3,0.8-0.7,1.1c-0.4,0.2-0.9,0.3-1.4,0.2l-14.9-3.1C541.3,1652,541.2,1652,541,1652z M1422.1,1664.3
			c-0.6,0-1-0.2-1.3-0.3c-0.5-0.3-1-0.8-1.1-1.4c-0.2-0.8-0.1-1.7,0.1-3.1l7.2-41.8c0.1-0.5,0.1-0.9,0-1.1c-0.1-0.2-0.2-0.6-0.6-1
			l-24.9-28.9c-0.5-0.6-0.7-1.1-0.9-1.6c-0.2-0.6-0.1-1.2,0.1-1.7c0.3-0.6,1-1,2-1.3l13.8-3.8c1.4-0.4,2.3,0,3.3,1.3l16.6,21
			c0.2,0.3,0.3,0.3,0.3,0.3c0.2,0,0.2-0.1,0.2-0.1c0,0,0-0.1,0.1-0.4l3.6-26.6c0.3-1.7,0.9-2.4,2.2-2.8l13.8-3.8
			c1-0.3,1.8-0.2,2.4,0.1c0.5,0.3,0.8,0.7,1,1.3c0.2,0.6,0.2,1.3,0,1.8l-6.8,37.6c-0.1,0.5-0.1,0.9,0,1.1c0.1,0.3,0.3,0.5,0.6,1
			l27.4,32.3c1,1.1,1.5,1.8,1.7,2.6c0.3,1-0.2,2.5-2,3l-14.6,4c-1.3,0.4-2.4,0-3.3-1.3l-18.8-24.2c-0.2-0.3-0.3-0.3-0.3-0.3
			c0,0,0,0-0.1,0c-0.1,0-0.1,0-0.1,0c0,0,0,0.1-0.1,0.4l-3.9,30.4c-0.2,1.5-0.9,2.4-2.2,2.8l-14.6,4
			C1422.7,1664.3,1422.4,1664.3,1422.1,1664.3z M1417.6,1579.2c-0.2,0-0.4,0-0.7,0.1l-13.8,3.8c-0.8,0.2-1.2,0.5-1.4,0.9
			c-0.1,0.2-0.2,0.5-0.1,0.9c0.1,0.4,0.3,0.8,0.7,1.2l24.9,28.9c0.4,0.4,0.7,0.9,0.8,1.4c0.1,0.4,0.1,1,0,1.6l-7.2,41.8
			c-0.3,1.4-0.3,2.1-0.1,2.7c0.1,0.2,0.3,0.6,0.6,0.8c0.4,0.2,0.9,0.3,1.4,0.1l14.6-4c0.8-0.2,1.3-0.6,1.5-1.9l3.9-30.4
			c0.1-0.6,0.2-1.1,0.9-1.3c0.7-0.2,1.1,0.2,1.4,0.7l18.8,24.2c0.8,1.1,1.5,1.1,2.3,0.9l14.6-4c1.3-0.4,1.5-1.4,1.4-1.8
			c-0.1-0.6-0.5-1.1-1.5-2.2l-27.4-32.3c-0.4-0.5-0.7-0.9-0.8-1.4c-0.1-0.4-0.1-1,0-1.6l6.8-37.6c0.1-0.4,0.1-1,0-1.4
			c-0.1-0.3-0.3-0.6-0.5-0.7c-0.4-0.2-1-0.2-1.7,0l-13.8,3.8c-0.9,0.2-1.3,0.6-1.5,2l-3.6,26.6c-0.1,0.6-0.2,1.1-0.9,1.3
			c-0.7,0.2-1-0.1-1.4-0.7l-16.6-21C1418.5,1579.4,1418.1,1579.2,1417.6,1579.2z M480.9,1652.8c-0.3,0-0.6,0-0.8-0.1l-12.2-3.4
			c-0.8-0.2-1.5-0.8-1.9-1.5c-0.4-0.7-0.5-1.4-0.3-2.1l20.9-76c0.2-0.7,0.7-1.4,1.4-1.7c0.7-0.4,1.5-0.5,2.3-0.2l48.4,13.4
			c1.6,0.4,2.6,2,2.2,3.6l-3.2,11.5c-0.4,1.5-2.1,2.4-3.7,2h0l-32.5-9c-0.5-0.1-0.8,0-0.9,0.5l-3.8,13.8c-0.1,0.2,0,0.4,0,0.5
			c0.1,0.2,0.3,0.3,0.5,0.3l31.3,8.7c1.6,0.4,2.6,2.1,2.2,3.6l-3.2,11.5c-0.4,1.5-2.1,2.4-3.7,2l-31.3-8.7c-0.3-0.1-0.5-0.1-0.6,0
			c-0.1,0.1-0.2,0.2-0.3,0.4l-7.9,28.8c-0.2,0.7-0.7,1.3-1.3,1.7C481.9,1652.6,481.4,1652.8,480.9,1652.8z M489.4,1568.6
			c-0.3,0-0.7,0.1-1,0.2c-0.5,0.2-0.8,0.6-0.9,1.1l-20.9,76c-0.1,0.5-0.1,0.9,0.2,1.4c0.3,0.5,0.7,0.8,1.3,1l12.2,3.4
			c0.5,0.1,1.1,0.1,1.6-0.2c0.4-0.2,0.7-0.6,0.9-1.1l7.9-28.8c0.1-0.5,0.4-0.8,0.8-1c0.4-0.2,0.9-0.3,1.4-0.1l31.3,8.7
			c1.1,0.3,2.2-0.3,2.5-1.3l3.2-11.5c0.3-1-0.4-2.1-1.5-2.4l-31.3-8.7c-0.5-0.1-0.9-0.4-1.1-0.8c-0.2-0.4-0.3-0.8-0.1-1.3l3.8-13.8
			c0.3-1,1.2-1.4,2.1-1.2l32.5,9h0c1.1,0.3,2.2-0.3,2.5-1.3l3.2-11.5c0.3-1-0.4-2.1-1.5-2.4l-48.4-13.4
			C489.8,1568.7,489.6,1568.6,489.4,1568.6z"/>
		<path class="st0" d="M1288.5,1672.1c-0.9,0-1.6-0.6-1.7-1.4l-7-47c-0.1-1,0.5-1.8,1.5-1.9l8.3-1.2c5.7-0.9,9.8,0.5,12.3,4.2l0,0
			c2.2,3.2,3.6,11.5,4.7,18.9c1.1,7.5,2.2,15.8,1.1,19.5c-1.3,4.2-4.9,6.8-10.6,7.7l-8.2,1.3
			C1288.7,1672.1,1288.6,1672.1,1288.5,1672.1z M1292.6,1621.3c-0.9,0-1.9,0.1-2.9,0.2l-8.3,1.2c-0.3,0-0.7,0.2-0.7,0.8l7,47
			c0.1,0.6,0.6,0.6,0.9,0.6l8.2-1.3c5.3-0.8,8.6-3.1,9.8-7c1.2-3.8-0.3-13.7-1.1-19.1c-0.8-5.3-2.3-15.2-4.5-18.5
			C1299.2,1622.6,1296.4,1621.3,1292.6,1621.3z"/>
		<path class="st0" d="M1144.8,1671.7c-0.5,0-0.9-0.2-1.1-0.4c-0.2-0.2-0.5-0.6-0.4-1.4l3.8-28.5c0.1-0.6,0.2-1.5,1-1.5l0.5,0
			c0.8-0.1,1.1,0.8,1.2,1.4l8,27.5c0.2,0.8,0,1.2-0.2,1.5c-0.2,0.2-0.5,0.5-1.2,0.6l-11.6,0.9
			C1144.9,1671.7,1144.8,1671.7,1144.8,1671.7z M1148.6,1640.8l-0.4,0.1c0,0,0,0.2-0.1,0.7l-3.8,28.4c0,0.3,0,0.5,0.1,0.6
			c0.1,0.1,0.3,0.1,0.4,0.1l11.6-0.9c0.1,0,0.3,0,0.4-0.2c0.1-0.1,0.1-0.3,0-0.6l-8-27.5C1148.8,1641,1148.7,1640.9,1148.6,1640.8z"
			/>
		<path class="st0" d="M1698.4,1667.4l-110-207.8l0.3-0.3c1.9-1.8,3.7-3.6,5.3-5.4l0.4-0.5l0.3,0.6c28.5,45.8,78.5,125.1,92.8,141.5
			l0,0c5.6,6.3,11.6,12.3,18,18l0.2,0.2l0,0.2c-0.4,17.6-2.7,35.2-7.1,52.3L1698.4,1667.4z M1589.6,1459.8l108.5,204.9
			c4.1-16.5,6.4-33.5,6.8-50.6c-6.4-5.7-12.4-11.7-17.9-17.9l0,0c-14.3-16.4-64-95.1-92.6-141
			C1592.9,1456.7,1591.3,1458.3,1589.6,1459.8z"/>
		<path class="st0" d="M970.7,1819.4c-257.1,0-498.8-40.3-630.8-105.2l-39-19.3l-65.5,123.8l-40.1-95.2
			c-15.7-37.4-23.5-76.8-23.1-117.3l0.2-23.1l17.8-14.6c5.8-4.8,11.3-10.1,16.3-15.8c9.4-10.7,59.1-88.5,99.7-154.3
			c7.4-16.7,24.6-38,64.8-44.1c7-1.1,14.4-1.6,22.1-1.6c16.9,0,35.3,2.7,53.2,7.7c26.2,7.3,50.1,19.4,67.5,34
			c30.2,25.4,34.6,51.9,32.8,69.7c99.3,30.8,241,49.9,389.2,52.5c-51.4-32.7-101.8-72.2-149.8-117.5c-48-45.2-93.8-96.5-136.4-152.4
			c-86.5-113.7-157.6-243.2-211.4-385c-99.8-263.4-126.5-535.9-75.3-767.3l5.9-26.6h1202.1l5.9,26.6
			c51.2,231.4,24.5,503.9-75.3,767.3c-53.7,141.8-124.8,271.3-211.4,385c-42.5,55.9-88.4,107.2-136.4,152.4
			c-48,45.3-98.4,84.8-149.8,117.5c147.9-2.4,289.6-21.4,389.2-52c-1.9-18,2.4-44.6,32.7-70.1c17.2-14.5,41.2-26.6,67.5-34
			c18-5,36.5-7.7,53.5-7.7c42.6,0,74.3,16.8,86.8,46c40.6,65.8,90.3,143.5,99.7,154.2c4.9,5.5,10.3,10.7,16.2,15.6l17.8,14.7l0.2,23
			c0.4,40.5-7.4,80-23.1,117.3l-40.2,95.2l-0.5-0.9l-64.7-122.3l-37.5,18.5C1469.5,1779.1,1227.8,1819.4,970.7,1819.4z
			 M300.4,1693.6l39.9,19.7c131.9,64.8,373.5,105.1,630.4,105.1c257,0,498.5-40.3,630.4-105.1l38.4-19l0.2,0.4l64.5,121.8l39.4-93.3
			c15.7-37.2,23.4-76.5,23.1-116.9l-0.2-22.5l-17.4-14.4c-5.9-4.9-11.4-10.2-16.3-15.7c-9.4-10.8-59.2-88.6-99.9-154.4
			c-12.4-28.9-43.7-45.5-85.9-45.5c-17,0-35.4,2.6-53.3,7.7c-26.2,7.4-50,19.4-67.2,33.8c-30.3,25.4-34.3,51.9-32.3,69.6l0,0.4
			l-0.4,0.1c-100.1,30.8-242.9,49.9-391.7,52.2l-1.8,0l1.5-0.9c51.9-32.9,102.7-72.7,151.1-118.3c47.9-45.2,93.8-96.4,136.3-152.3
			c86.5-113.6,157.6-243.1,211.2-384.8c99.7-263.2,126.5-535.5,75.3-766.8l-5.7-25.8H369.6l-5.7,25.8
			c-51.2,231.3-24.4,503.6,75.3,766.8c53.7,141.7,124.8,271.2,211.2,384.7c42.5,55.8,88.4,107.1,136.3,152.2
			c48.4,45.6,99.2,85.4,151.1,118.3l1.5,0.9l-1.8,0c-149.1-2.4-291.8-21.6-391.6-52.7l-0.4-0.1l0-0.4c1.9-17.6-2.2-43.9-32.4-69.3
			c-17.3-14.5-41.1-26.5-67.2-33.8c-17.9-5-36.2-7.7-53-7.7c-7.6,0-15,0.5-22,1.6c-39.7,6-56.8,27-64.1,43.6
			c-40.7,65.9-90.4,143.7-99.9,154.5c-5.1,5.8-10.6,11.1-16.5,15.9l-17.4,14.3l-0.2,22.6c-0.4,40.3,7.4,79.7,23,116.9l39.3,93.3
			L300.4,1693.6z M972.7,1786c-252.4,0-488.5-39-616.2-101.8l-14.2-7l18.3-37.1c-9.8-10.2-27.5-19.6-47.5-25.2
			c-1.1-0.3-2.1-0.5-3.2-0.7c-0.6-0.1-1.3-0.3-1.9-0.4L240.8,1741l-12.9-30.6c-13.9-33.1-20.8-68.1-20.5-104l0.1-7.4l5.7-4.7
			c7.2-6,14-12.5,20.2-19.5c14.2-16.2,80.3-121.9,104.6-161.3c3.6-9.7,13.5-22.3,40.1-26.4c17.8-2.7,39.6-0.9,61.4,5.2
			c21.7,6.1,41.3,15.8,55.2,27.5c23.2,19.5,22.5,37.2,20,46c-1.9,6.8-5.9,12.7-11.9,17.6c110.6,41.8,286.2,66.7,470.1,66.7
			c183,0,358.2-24.7,468.8-66.1c-6.3-5-10.4-11-12.4-17.9c-2.5-8.8-3.1-26.6,20-46c13.8-11.6,33.4-21.4,55.2-27.5
			c22.3-6.3,44.6-8.1,62.7-5.1c20.4,3.4,33.8,12.4,38.7,26.3c30.2,49,90.9,145.6,104.6,161.2c6.1,6.9,12.9,13.4,20.1,19.4l5.7,4.7
			l0.1,7.4c0.3,35.9-6.6,70.9-20.5,104l-12.9,30.6l-67.4-127.3c-0.6,0.1-1.3,0.3-1.9,0.4c-1,0.2-2.1,0.4-3.2,0.7
			c-18.9,5.3-36.2,14.2-46.2,23.9l18.9,38.2l-14.2,7C1461.2,1747,1225.1,1786,972.7,1786z M343.7,1676.7l13.3,6.5
			C484.6,1746,720.5,1785,972.7,1785c252.2,0,488.2-39,615.7-101.7l13.3-6.5l-18.7-37.9l0.3-0.3c10.1-9.9,27.7-19,46.9-24.4
			c1.1-0.3,2.2-0.5,3.3-0.7c0.7-0.2,1.5-0.3,2.2-0.5l0.4-0.1l0.2,0.3l66.6,125.8l12.1-28.6c13.9-33,20.7-67.8,20.4-103.6l-0.1-6.9
			l-5.3-4.4c-7.3-6-14.1-12.5-20.2-19.5c-13.7-15.7-74.5-112.4-104.7-161.4l0-0.1c-10.4-29.1-58.3-32.4-100.3-20.6
			c-21.6,6.1-41.1,15.8-54.8,27.3c-22.7,19.1-22.1,36.4-19.7,45c1.9,7,6.2,13,12.7,17.9l0.7,0.5l-0.8,0.3
			c-110.7,41.7-286.4,66.5-470,66.5c-184.5,0-360.7-25.1-471.3-67l-0.8-0.3l0.7-0.5c6.2-4.9,10.4-10.8,12.3-17.6
			c2.4-8.6,3-25.9-19.7-45c-13.7-11.5-33.2-21.2-54.8-27.3c-21.6-6.1-43.2-7.9-60.9-5.2c-26.1,4-35.8,16.2-39.3,25.8
			c-30.3,49.1-91,145.8-104.8,161.5c-6.2,7-13,13.6-20.3,19.6l-5.3,4.4l-0.1,6.9c-0.3,35.7,6.6,70.6,20.4,103.6l12.1,28.6
			l66.8-126.1l0.4,0.1c0.7,0.2,1.5,0.3,2.2,0.5c1.1,0.2,2.2,0.4,3.3,0.7c20.3,5.7,38.3,15.3,48.2,25.7l0.2,0.3L343.7,1676.7z
			 M971.9,1498.5l-0.3-0.2c-50.3-30.5-100-67.9-147.5-111.2c-47.8-43.6-93.7-93.4-136.2-147.9C599,1125.4,526.1,994.4,471.4,849.9
			c-49.2-130-80.4-262.2-92.6-393.1C367,330.5,373.2,211,397.4,101.7l0.1-0.4h1148.7l0.1,0.4c24.2,109.3,30.5,228.8,18.7,355.1
			c-12.2,130.9-43.4,263.1-92.6,393.1c-54.7,144.5-127.6,275.5-216.5,389.3c-42.6,54.5-88.4,104.3-136.2,147.9
			c-47.5,43.3-97.1,80.8-147.5,111.2L971.9,1498.5z M398.3,102.3c-24.1,109.1-30.3,228.3-18.6,354.4
			c12.2,130.8,43.4,262.9,92.6,392.8C527,994,599.8,1124.9,688.7,1238.6c42.5,54.5,88.3,104.2,136.1,147.8
			c47.4,43.2,96.9,80.6,147.1,111c50.2-30.4,99.7-67.7,147.1-111c47.8-43.6,93.6-93.3,136.1-147.8
			c88.8-113.8,161.6-244.7,216.4-389.1c49.2-129.9,80.3-262,92.6-392.8c11.8-126.1,5.5-245.3-18.6-354.4H398.3z"/>
		<path class="st0" d="M1569.5,1611.4l-0.3-0.5l-73.8-149.3l-10.4,5.1l-0.1,0c-16.9-0.5-25.7-5.9-26.4-8.5
			c-0.4-1.4,1.6-7.1,10.2-14.3c10.4-8.7,26.3-16.6,43.8-21.5c21.2-6,36.9-5.9,46.2-4.8c11.2,1.3,17.7,4.6,18.5,7.3
			c0.5,1.7-2.5,9.4-16.1,18.7l-10.9,7.5l71.4,134.9l-0.6,0.2c-19.7,5.7-37.9,14.6-51.2,25L1569.5,1611.4z M1495.9,1460.2l0.2,0.4
			l73.7,149.2c13.2-10.3,31.1-19,50.5-24.7l-71.3-134.6l11.6-8c13.1-9,16-16.4,15.7-17.6c-0.5-1.9-6.4-5.2-17.6-6.5
			c-9.3-1.1-24.8-1.1-45.8,4.8c-17.3,4.9-33.2,12.6-43.4,21.3c-9,7.6-10.1,12.7-9.9,13.3c0.6,2,9,7.4,25.4,7.8L1495.9,1460.2z"/>
	</g>
	<g>
		<path class="st0" d="M772.9,458.2V306.6l0.4-0.1c5.1-1.1,14.7-4.1,31-12.1l0.7-0.3v142.9l-0.1,0.1c-0.7,1.1-7.3,10.9-31.3,20.7
			L772.9,458.2z M773.9,307.4v149.3c22.5-9.3,29.1-18.4,30.1-19.9V295.7C788.4,303.2,779.1,306.2,773.9,307.4z"/>
		<path class="st0" d="M833.5,439.6c-0.6,0-1.3,0-2,0c-7,0.1-14.8-0.8-17.9-2.3l-0.3-0.1V292.7l0.6,0.1c29.6,6.5,45.2-0.2,60.4-6.7
			l0.6-0.3c12.7-5.5,25.8-11.1,48.5-10.1c16.1,0.6,31.3,5.1,46.5,13.7l0.3,0.1v131.2l-0.7-0.3c-9.4-4.3-20.4-6.5-32.6-6.5l-0.1,0
			c-2.6-0.3-26.1-2.4-61.1,16.7l0,0C862.1,436.7,848.3,439.6,833.5,439.6z M831.6,438.6c15.4,0.3,29.7-2.6,43.7-8.9
			c35.2-19.2,59.1-17.1,61.7-16.8c0,0,0,0,0,0c12.1,0,23,2.1,32.3,6.3V290.2c-15-8.4-30-12.8-45.8-13.4c-22.5-1-35.5,4.6-48.1,10
			l-0.6,0.3c-15.2,6.5-30.9,13.3-60.4,6.9v142.6C817.5,437.8,825,438.7,831.6,438.6z M835.3,416.8c-3.1,0-6.3-0.2-9.7-0.6l-0.5-0.1
			l1.3-10.4l0.5,0.1c18.7,2.3,29.8-3,42.6-9.2l0.2-0.1c13.2-6.3,28.1-13.5,53.3-12.4c12.1,0.5,23.9,3.3,35.2,8.1l0.5,0.2l-4.1,9.6
			l-0.5-0.2c-10.1-4.4-20.6-6.8-31.5-7.3c-22.5-1-35.7,5.4-48.5,11.5C863,411.3,851.7,416.8,835.3,416.8z M826.2,415.3
			c3.2,0.4,6.2,0.5,9.1,0.5c16.2,0,27.4-5.4,38.3-10.7c12.9-6.2,26.2-12.6,49-11.6c10.8,0.5,21.3,2.9,31.4,7.2l3.3-7.8
			c-11-4.7-22.5-7.4-34.4-7.9c-24.9-1.1-39.8,6.1-52.8,12.4l-0.2,0.1c-12.8,6.2-24,11.6-42.7,9.4L826.2,415.3z M835.3,392.1
			c-3.3,0-6.4-0.2-9.6-0.5l-0.5-0.1l1.1-10.4l0.5,0.1c18.8,2.1,29.9-2.6,42.6-8.1l0.3-0.1c12.5-5.4,28.1-12.1,53.2-11.1
			c12,0.5,23.8,2.9,35,7.2l0.5,0.2l-3.7,9.8l-0.5-0.2c-10.1-3.9-20.7-6.1-31.6-6.5c-22.8-0.9-36,4.8-48.7,10.3
			C862.9,387.2,851.6,392.1,835.3,392.1z M826.3,390.6c3,0.3,6,0.5,9,0.5c16.1,0,27.3-4.8,38.1-9.5c12.9-5.5,26.1-11.3,49.2-10.4
			c10.9,0.4,21.4,2.6,31.5,6.4l3-7.9c-11-4.2-22.5-6.5-34.2-7c-24.9-1-39.7,5.4-52.8,11.1l-0.3,0.1c-12.8,5.5-23.8,10.2-42.6,8.2
			L826.3,390.6z M835.3,368.6c-3.1,0-6.2-0.2-9.6-0.5l-0.5-0.1l1.1-10.4l0.5,0.1c19,2.1,30.1-2.7,42.9-8.3l0.1-0.1
			c13.1-5.6,28-12,53.1-11.1c12,0.5,23.8,2.9,35,7.2l0.5,0.2l-3.7,9.8l-0.5-0.2c-10.2-3.9-20.8-6.1-31.6-6.5
			c-22.7-1-35.9,4.7-48.7,10.3l-0.1,0C862.8,363.8,851.5,368.6,835.3,368.6z M826.3,367.2c3.2,0.3,6.1,0.5,9,0.5
			c16,0,27.3-4.8,38.1-9.5l0.3,0.4l-0.2-0.5c12.9-5.6,26.2-11.3,49.1-10.3c10.8,0.4,21.4,2.6,31.5,6.4l3-7.9
			c-11-4.2-22.5-6.5-34.2-7c-24.9-0.9-39.7,5.4-52.7,11l-0.1,0.1c-12.8,5.5-24,10.3-42.9,8.4L826.3,367.2z M835.3,345.2
			c-3.1,0-6.3-0.2-9.6-0.5l-0.5-0.1l1.1-10.4l0.5,0.1c18.9,2.1,29.9-2.7,42.7-8.2l0.2-0.1c12.4-5.3,27.9-12,53.2-11.1
			c12.1,0.5,23.8,2.9,35,7.2l0.5,0.2l-3.7,9.8l-0.5-0.2c-10.1-3.9-20.8-6.1-31.6-6.5c-22.8-0.9-35.9,4.8-48.6,10.2l-0.2,0.1
			C862.9,340.3,851.6,345.2,835.3,345.2z M826.3,343.7c3.1,0.3,6.1,0.5,9,0.5c16.1,0,27.3-4.8,38.1-9.5l0.2-0.1
			c12.8-5.5,26-11.2,49-10.3c10.8,0.4,21.4,2.6,31.5,6.4l3-7.9c-10.9-4.2-22.4-6.5-34.2-7c-25.1-0.9-40.5,5.7-52.8,11.1l-0.2,0.1
			c-12.8,5.5-23.9,10.3-42.7,8.3L826.3,343.7z M835.3,321.7c-3.1,0-6.4-0.2-9.6-0.5l-0.5-0.1l1.1-10.4l0.5,0.1
			c19,2,30.1-2.7,42.9-8.3l0.3-0.1c13.1-5.6,28-12,52.9-11c12.1,0.5,23.8,2.9,35,7.2l0.5,0.2l-3.7,9.8l-0.5-0.2
			c-10.1-3.9-20.8-6.1-31.6-6.5c-22.7-0.9-35.9,4.8-48.6,10.2l-0.2,0.1C862.8,316.9,851.5,321.7,835.3,321.7z M826.3,320.2
			c3.1,0.3,6.1,0.5,9,0.5c16.1,0,27.3-4.8,38.1-9.5l0.2-0.1c12.8-5.5,26-11.2,49-10.3c10.8,0.4,21.4,2.6,31.5,6.4l3-7.9
			c-10.9-4.2-22.4-6.5-34.2-7c-24.7-1-39.5,5.3-52.5,10.9l-0.3,0.1c-12.8,5.5-23.9,10.3-42.9,8.4L826.3,320.2z"/>
		<path class="st0" d="M1117.1,439.6c-14.8,0-29.1-3-42.3-8.8l0,0c-36.3-19.8-60.5-16.9-60.8-16.9l-0.1,0c-13.1,0-24.7,2.4-34.5,7.2
			l-0.7,0.3V290.3l0.2-0.1c15.6-9,31.3-13.8,47.9-14.4c22.7-0.9,36.1,4.8,49,10.3l0.2,0.1c15.9,6.8,30.8,13.3,60.4,6.7l0.6-0.1V437
			l-0.3,0.1c-2.9,1.5-10.8,2.6-18.4,2.5C1118,439.6,1117.6,439.6,1117.1,439.6z M1075.2,429.9c13.5,6,28.1,8.9,43.2,8.7
			c7.1,0.1,14.8-0.9,17.7-2.2V293.9c-29.5,6.4-45.2-0.3-60.5-6.9l-0.2-0.1c-12.8-5.5-26-11.1-48.5-10.2
			c-16.4,0.7-31.8,5.3-47.2,14.1v128.9c9.7-4.6,21.2-6.9,34.2-6.9C1015.8,412.7,1039.8,410.5,1075.2,429.9z M1115.6,416.8
			c-16.4,0-27.7-5.5-38.7-10.8l-0.1-0.1c-12.7-6.1-25.9-12.5-48.4-11.4c-10.8,0.5-21.4,2.9-31.5,7.3l-0.5,0.2l-4.1-9.6l0.5-0.2
			c11.2-4.9,23.1-7.6,35.2-8.1c25.3-1.1,40.3,6.1,53.5,12.5c12.9,6.2,23.9,11.5,42.6,9.2l0.5-0.1l1.3,10.4l-0.5,0.1
			C1121.9,416.6,1118.7,416.8,1115.6,416.8z M1033.3,393.4c19.7,0,32,5.9,43.9,11.7l0.1,0.1c10.9,5.3,22.1,10.7,38.3,10.7
			c2.9,0,5.9-0.2,9.1-0.5l-1-8.4c-18.7,2.2-29.8-3.2-42.6-9.3c-13.2-6.4-28.1-13.6-53.1-12.5c-11.8,0.5-23.4,3.2-34.4,7.9l3.3,7.8
			c10-4.3,20.6-6.7,31.4-7.2C1030,393.4,1031.7,393.4,1033.3,393.4z M1115.6,392.1c-16.3,0-27.6-4.9-38.5-9.6
			c-12.7-5.5-25.9-11.1-48.7-10.3c-10.9,0.4-21.6,2.6-31.7,6.5l-0.5,0.2l-3.7-9.8l0.5-0.2c11.2-4.3,23-6.8,35-7.2h0
			c25-1,40,5.4,53.2,11.1l0.4,0.2c12.7,5.5,23.7,10.2,42.6,8.1l0.5-0.1l1.1,10.4l-0.5,0.1C1122.1,391.9,1118.8,392.1,1115.6,392.1z
			 M1032.9,371.2c20.3,0,32.6,5.3,44.6,10.5c10.8,4.7,22,9.5,38.1,9.5c3,0,6.1-0.2,9-0.5l-0.9-8.4c-18.8,2-29.8-2.7-42.6-8.2
			l-0.3-0.1c-13.1-5.7-28-12.1-52.8-11.1h0c-11.7,0.4-23.2,2.8-34.2,7l3,7.9c10.1-3.8,20.7-6,31.5-6.4
			C1029.9,371.2,1031.4,371.2,1032.9,371.2z M1115.6,368.6c-16.2,0-27.5-4.9-38.4-9.5c-12.9-5.6-26.2-11.3-48.8-10.3
			c-10.9,0.4-21.5,2.6-31.7,6.5l-0.5,0.2l-3.7-9.8l0.5-0.2c11.2-4.3,23-6.8,35-7.2h0c25.1-0.9,40.1,5.5,53.2,11.1
			c12.8,5.5,23.9,10.3,42.9,8.3l0.5-0.1l1.1,10.4l-0.5,0.1C1121.9,368.5,1118.7,368.6,1115.6,368.6z M1033.3,347.7
			c19.9,0,32.2,5.3,44.2,10.5c10.9,4.7,22.1,9.5,38.1,9.5c2.9,0,5.9-0.2,9-0.5l-0.9-8.4c-18.9,2-30.1-2.8-42.9-8.4
			c-13.1-5.6-27.9-12-52.8-11.1h0c-11.7,0.5-23.2,2.8-34.2,7l3,7.9c10.1-3.9,20.7-6,31.5-6.4C1030,347.7,1031.7,347.7,1033.3,347.7z
			 M1115.6,345.2c-16.3,0-27.6-4.9-38.5-9.6l-0.1,0c-12.7-5.5-25.9-11.1-48.6-10.2c-10.9,0.4-21.5,2.6-31.7,6.5l-0.5,0.2l-3.7-9.8
			l0.5-0.2c11.2-4.3,22.9-6.7,35-7.2h0c24.9-1,39.8,5.4,53,11l0.4,0.2c12.8,5.5,23.8,10.3,42.7,8.1l0.5-0.1l1.1,10.4l-0.5,0.1
			C1121.9,345,1118.7,345.2,1115.6,345.2z M1032.9,324.2c20.2,0,32.5,5.3,44.5,10.4l0.1,0c10.8,4.7,22,9.5,38.1,9.5
			c2.9,0,5.9-0.2,9-0.5l-0.9-8.4c-18.8,2-29.9-2.8-42.7-8.3l-0.4-0.2c-13.1-5.6-27.9-12-52.6-11h0c-11.8,0.5-23.3,2.8-34.2,7l3,7.9
			c10.1-3.8,20.7-6,31.5-6.4C1029.9,324.3,1031.4,324.2,1032.9,324.2z M1115.6,321.7c-16.2,0-27.6-4.9-38.5-9.6l-0.2-0.1
			c-12.8-5.5-26.1-11.2-48.6-10.2c-10.9,0.4-21.5,2.6-31.7,6.5l-0.5,0.2l-3.7-9.8l0.5-0.2c11.2-4.3,22.9-6.7,35-7.2h0
			c25.2-0.9,40.1,5.5,53.2,11.1c12.8,5.5,23.9,10.3,42.9,8.3l0.5-0.1l1.1,10.4l-0.5,0.1C1122,321.5,1118.7,321.7,1115.6,321.7z
			 M1033.4,300.7c19.7,0,32,5.3,43.9,10.4l0.1,0.1c10.9,4.7,22.1,9.5,38.1,9.5c2.9,0,6-0.2,9-0.5l-0.9-8.4c-19,2-30.1-2.8-42.9-8.4
			c-13-5.6-27.8-12-52.8-11.1c-11.8,0.5-23.3,2.8-34.2,7l3,7.9c10.1-3.8,20.7-6,31.5-6.4C1030.1,300.8,1031.8,300.7,1033.4,300.7z"
			/>
		<path class="st0" d="M948.8,460.2H789l1.7-0.9c10.3-5.7,15.9-10.9,18.8-14.2l0.2-0.3l0.3,0.2c6.3,2.9,16.2,3.2,21.5,3.2
			c16.2,0.4,32.3-2.9,47.9-9.9c31.1-17,52.7-16.2,56.7-15.8l0.1,0c0,0,0,0,0,0c11.6,0,21.9,2.1,30.5,6.1l0.7,0.3l-0.6,0.5
			c-12,10.5-16.4,23.6-18,30.5L948.8,460.2z M792.9,459.2H948c1.7-7,6.1-19.7,17.7-30.1c-8.3-3.8-18.2-5.7-29.4-5.7l-0.2,0
			c-4-0.3-25.3-1.1-56.2,15.7c-15.7,7-32,10.4-48.3,10c-5.3,0.1-15-0.2-21.5-3.1C807.2,449.2,802,453.9,792.9,459.2z"/>
		<path class="st0" d="M971.9,1414.3l-0.3-0.2c-90.3-61.6-174.1-144.3-249-246c-75.1-101.9-137.4-217.4-185.1-343.5
			c-42.1-111.1-70.5-223.8-84.3-335c-13.8-111-12.9-217.6,2.8-317l0.1-0.4h1031.8l0.1,0.4c15.7,99.4,16.6,206,2.8,317
			c-13.9,111.2-42.2,223.9-84.3,335c-47.8,126.1-110.1,241.6-185.1,343.5c-74.9,101.6-158.7,184.4-249,246L971.9,1414.3z
			 M456.8,173.3c-15.6,99.2-16.5,205.6-2.7,316.3c13.9,111.1,42.2,223.8,84.3,334.8c47.7,126,110,241.5,185,343.3
			c74.8,101.4,158.4,184,248.5,245.5c90.1-61.5,173.7-144.1,248.5-245.5c75-101.8,137.3-217.3,185-343.3
			c42.1-111,70.4-223.6,84.3-334.8c13.8-110.7,12.9-217.1-2.7-316.3H456.8z M971.9,1356.4l-0.3-0.2c-36.8-27.3-73.6-59.6-109.2-95.9
			l-0.1-0.1V996.4H668.7l-0.1-0.3c-33.3-60.3-62.7-123.7-87.1-188.3c-3.7-9.8-7.6-20.4-12.1-33.4l-0.2-0.7h293.2V558.9h221.6v214.9
			h290.8l-0.2,0.7c-4.5,12.8-8.3,23.4-12.1,33.4h0c-24.4,64.5-53.8,127.9-87.1,188.3l-0.1,0.3h-191.1v261.3l-0.1,0.1
			c-36.2,37.2-73.7,70.3-111.6,98.3L971.9,1356.4z M863.2,1259.7c35.4,36.1,72,68.2,108.6,95.5c37.6-27.9,75-60.9,111-97.9V995.4
			h191.5c33.3-60.3,62.5-123.5,86.9-187.9h0c3.7-9.8,7.5-20.2,11.9-32.7h-290.3V559.9H863.2v214.9H570.5
			c4.5,12.7,8.3,23.1,11.9,32.7c24.4,64.5,53.7,127.7,86.9,187.9h193.9V1259.7z M508.6,536.3h-0.4l-0.1-0.4
			c-18.2-110.8-21.9-217.1-10.9-315.9l0-0.4h949.3l0,0.4c11,98.8,7.3,205.1-10.9,315.9l-0.1,0.4L508.6,536.3z M498.1,220.6
			c-10.9,98.5-7.2,204.4,10.9,314.8l925.7,0c18.1-110.4,21.8-216.3,10.9-314.8H498.1z"/>
		<path class="st0" d="M1177.4,458.2l-0.7-0.3c-22.6-9.2-29.9-18.5-31.1-20.3l-0.1-0.1V294.2l0.7,0.3c16.2,7.9,25.7,10.9,30.9,12
			l0.4,0.1l0,0.4c-0.1,31.5-0.2,109.2-0.1,150.5L1177.4,458.2z M1146.6,437.2c1.4,2,8.6,10.7,29.9,19.5c0-41.3,0.1-117.8,0.1-149.3
			c-5.2-1.2-14.6-4.2-30-11.7V437.2z"/>
		<path class="st0" d="M1161.2,460.2h-159.7l-0.1-0.4c-1.6-6.9-6-19.9-17.9-30.4l-0.6-0.5l0.7-0.3c8.7-4.1,19.1-6.2,30.9-6.2v0
			c1.9-0.2,23.9-1.8,56.6,16.1c14.9,6.6,30.8,9.8,47.3,9.7c3.3,0.1,14.6,0.1,21.7-3.2l0.3-0.2l0.2,0.3c2.9,3.4,8.5,8.5,18.8,14.2
			L1161.2,460.2z M1002.2,459.2h155.1c-9.1-5.2-14.3-10-17.2-13.2c-7.1,3.1-17.5,3.2-21.7,3.1c-16.6,0.2-32.7-3.1-47.8-9.8
			c-34-18.5-55.9-16-56.1-16c-11.5,0-21.5,2-29.9,5.8C996.1,439.5,1000.6,452.2,1002.2,459.2z"/>
		<path class="st0" d="M992.8,460.2h-35.5l0.2-0.6c1.6-5.9,5.9-17.2,17.4-25.7l0.3-0.2l0.3,0.2c11.3,8.6,15.6,19.8,17.2,25.7
			L992.8,460.2z M958.7,459.2h32.9c-1.7-5.9-5.9-16.3-16.4-24.4C964.6,442.9,960.3,453.3,958.7,459.2z"/>
	</g>
</g>
<title>logo</title>
<g>
	<path class="st0" d="M1479.9,1258.3h14v2.5h-11.2v6.1h9.9v2.4h-9.9v9.2h-2.7V1258.3z"/>
	<path class="st0" d="M1504.3,1269.6c0.6-0.1,0.9-0.3,1.1-0.7c0.1-0.2,0.2-0.5,0.2-1c0-0.8-0.3-1.5-0.9-1.8
		c-0.6-0.4-1.5-0.6-2.6-0.6c-1.3,0-2.2,0.4-2.7,1.1c-0.3,0.4-0.5,1-0.6,1.7h-2.3c0-1.8,0.6-3.1,1.8-3.8c1.1-0.7,2.4-1.1,3.9-1.1
		c1.7,0,3.1,0.3,4.2,1c1.1,0.7,1.6,1.7,1.6,3.1v8.5c0,0.3,0.1,0.5,0.2,0.6c0.1,0.2,0.3,0.2,0.7,0.2c0.1,0,0.2,0,0.4,0
		c0.1,0,0.3,0,0.4-0.1v1.8c-0.4,0.1-0.7,0.2-0.9,0.2c-0.2,0-0.5,0-0.8,0c-0.8,0-1.5-0.3-1.8-0.9c-0.2-0.3-0.3-0.8-0.4-1.4
		c-0.5,0.7-1.2,1.2-2.2,1.7c-0.9,0.5-2,0.7-3.1,0.7c-1.4,0-2.5-0.4-3.3-1.2c-0.9-0.8-1.3-1.9-1.3-3.1c0-1.4,0.4-2.4,1.3-3.2
		c0.8-0.8,2-1.2,3.3-1.4L1504.3,1269.6z M1499.1,1276.3c0.5,0.4,1.1,0.6,1.8,0.6c0.9,0,1.7-0.2,2.5-0.6c1.4-0.7,2.1-1.8,2.1-3.3v-2
		c-0.3,0.2-0.7,0.4-1.2,0.5c-0.5,0.1-0.9,0.2-1.4,0.3l-1.5,0.2c-0.9,0.1-1.6,0.3-2,0.6c-0.8,0.4-1.1,1.1-1.1,2.1
		C1498.3,1275.3,1498.6,1275.8,1499.1,1276.3z"/>
	<path class="st0" d="M1512,1258.3h2.5v2.8h-2.5V1258.3z M1512,1263.8h2.5v14.7h-2.5V1263.8z"/>
	<path class="st0" d="M1518.8,1259.6h2.5v4.1h2.3v2h-2.3v9.6c0,0.5,0.2,0.9,0.5,1c0.2,0.1,0.5,0.2,1,0.2c0.1,0,0.2,0,0.4,0
		c0.1,0,0.3,0,0.5,0v2c-0.3,0.1-0.6,0.1-0.9,0.2c-0.3,0-0.6,0.1-1,0.1c-1.2,0-1.9-0.3-2.3-0.9c-0.4-0.6-0.6-1.4-0.6-2.3v-9.8h-2v-2
		h2V1259.6z"/>
	<path class="st0" d="M1526.1,1258.2h2.5v7.5c0.6-0.7,1.1-1.3,1.6-1.6c0.8-0.5,1.8-0.8,3-0.8c2.1,0,3.6,0.7,4.3,2.2
		c0.4,0.8,0.6,1.9,0.6,3.4v9.5h-2.5v-9.3c0-1.1-0.1-1.9-0.4-2.4c-0.4-0.8-1.3-1.2-2.5-1.2c-1,0-2,0.4-2.8,1.1c-0.8,0.7-1.2,2-1.2,4
		v7.8h-2.5V1258.2z"/>
	<path class="st0" d="M1542.8,1259.3c0.6-0.8,1.7-1.3,3.3-1.3c0.2,0,0.3,0,0.5,0c0.2,0,0.4,0,0.6,0v2.3c-0.3,0-0.4,0-0.6,0
		c-0.1,0-0.2,0-0.3,0c-0.8,0-1.2,0.2-1.4,0.6c-0.1,0.4-0.2,1.4-0.2,3h2.5v2h-2.5v12.7h-2.4v-12.7h-2v-2h2v-2.3
		C1542.3,1260.5,1542.5,1259.7,1542.8,1259.3z"/>
	<path class="st0" d="M1551.9,1263.8v9.8c0,0.8,0.1,1.4,0.3,1.8c0.4,0.9,1.2,1.3,2.4,1.3c1.7,0,2.8-0.8,3.4-2.3
		c0.3-0.8,0.5-2,0.5-3.4v-7.2h2.5v14.7h-2.3l0-2.2c-0.3,0.6-0.7,1-1.2,1.4c-0.9,0.8-2,1.2-3.4,1.2c-2.1,0-3.4-0.7-4.2-2.1
		c-0.4-0.8-0.6-1.8-0.6-3v-10H1551.9z"/>
	<path class="st0" d="M1565.1,1258.3h2.5v20.2h-2.5V1258.3z"/>
	<path class="st0" d="M1581.3,1264.8c-0.3-0.7-0.4-1.3-0.4-1.9c0-1.3,0.4-2.4,1.3-3.2c0.9-0.9,2-1.3,3.5-1.3c1.4,0,2.5,0.4,3.3,1.2
		c0.8,0.8,1.2,1.8,1.2,2.9c0,1.3-0.4,2.4-1.2,3.4c-0.5,0.6-1.3,1.2-2.4,2l3.7,4.4c0.2-0.7,0.4-1.3,0.5-1.6c0.1-0.4,0.2-0.9,0.3-1.5
		h2.3c-0.2,1.3-0.5,2.5-0.9,3.7c-0.5,1.2-0.7,1.7-0.7,1.4l3.6,4.4h-3.2l-1.9-2.3c-0.7,0.8-1.4,1.4-2,1.8c-1.1,0.7-2.3,1-3.7,1
		c-2.1,0-3.6-0.6-4.5-1.7s-1.4-2.4-1.4-3.8c0-1.5,0.5-2.8,1.4-3.8c0.6-0.6,1.6-1.4,3.2-2.3
		C1582.2,1266.3,1581.6,1265.4,1581.3,1264.8z M1587.3,1276.1c0.7-0.5,1.3-1,1.7-1.6l-4.5-5.6c-1.3,0.9-2.1,1.5-2.5,2
		c-0.6,0.7-0.9,1.5-0.9,2.5c0,1.1,0.4,1.9,1.2,2.5s1.6,0.9,2.5,0.9C1585.7,1276.8,1586.5,1276.5,1587.3,1276.1z M1587.1,1264.6
		c0.5-0.6,0.8-1.3,0.8-2.1c0-0.6-0.2-1.1-0.6-1.5c-0.4-0.4-0.9-0.6-1.6-0.6c-1,0-1.7,0.3-2.1,1c-0.2,0.3-0.3,0.7-0.3,1.1
		c0,0.6,0.2,1.1,0.5,1.6c0.3,0.5,0.8,1.2,1.5,2C1586.2,1265.5,1586.7,1265,1587.1,1264.6z"/>
	<path class="st0" d="M1613.7,1264.2c0.4,0.3,0.9,0.8,1.5,1.4v-7.4h2.4v20.3h-2.2v-2c-0.6,0.9-1.3,1.6-2,2c-0.8,0.4-1.7,0.6-2.7,0.6
		c-1.6,0-3-0.7-4.2-2.1c-1.2-1.4-1.8-3.2-1.8-5.5c0-2.1,0.5-4,1.6-5.6c1.1-1.6,2.6-2.4,4.7-2.4
		C1612,1263.5,1612.9,1263.7,1613.7,1264.2z M1608.2,1275.3c0.7,1.1,1.7,1.6,3.2,1.6c1.1,0,2.1-0.5,2.8-1.5c0.7-1,1.1-2.4,1.1-4.2
		c0-1.9-0.4-3.2-1.1-4.1c-0.8-0.9-1.7-1.3-2.8-1.3c-1.2,0-2.2,0.5-3,1.4c-0.8,1-1.2,2.4-1.2,4.2
		C1607.2,1272.9,1607.5,1274.2,1608.2,1275.3z"/>
	<path class="st0" d="M1629.1,1269.6c0.6-0.1,0.9-0.3,1.1-0.7c0.1-0.2,0.2-0.5,0.2-1c0-0.8-0.3-1.5-0.9-1.8
		c-0.6-0.4-1.5-0.6-2.6-0.6c-1.3,0-2.2,0.4-2.7,1.1c-0.3,0.4-0.5,1-0.6,1.7h-2.3c0-1.8,0.6-3.1,1.8-3.8c1.1-0.7,2.4-1.1,3.9-1.1
		c1.7,0,3.1,0.3,4.2,1c1.1,0.7,1.6,1.7,1.6,3.1v8.5c0,0.3,0.1,0.5,0.2,0.6c0.1,0.2,0.3,0.2,0.7,0.2c0.1,0,0.2,0,0.4,0
		c0.1,0,0.3,0,0.4-0.1v1.8c-0.4,0.1-0.7,0.2-0.9,0.2c-0.2,0-0.5,0-0.8,0c-0.8,0-1.5-0.3-1.8-0.9c-0.2-0.3-0.3-0.8-0.4-1.4
		c-0.5,0.7-1.2,1.2-2.2,1.7c-0.9,0.5-2,0.7-3.1,0.7c-1.4,0-2.5-0.4-3.3-1.2s-1.3-1.9-1.3-3.1c0-1.4,0.4-2.4,1.3-3.2
		c0.8-0.8,2-1.2,3.3-1.4L1629.1,1269.6z M1623.9,1276.3c0.5,0.4,1.1,0.6,1.8,0.6c0.9,0,1.7-0.2,2.5-0.6c1.4-0.7,2.1-1.8,2.1-3.3v-2
		c-0.3,0.2-0.7,0.4-1.2,0.5c-0.5,0.1-0.9,0.2-1.4,0.3l-1.5,0.2c-0.9,0.1-1.6,0.3-2,0.6c-0.8,0.4-1.1,1.1-1.1,2.1
		C1623.1,1275.3,1623.4,1275.8,1623.9,1276.3z"/>
	<path class="st0" d="M1636.9,1263.8h2.3v2.5c0.2-0.5,0.7-1.1,1.4-1.8c0.7-0.7,1.6-1.1,2.6-1.1c0,0,0.1,0,0.2,0c0.1,0,0.3,0,0.6,0.1
		v2.6c-0.1,0-0.3,0-0.4-0.1c-0.1,0-0.3,0-0.4,0c-1.2,0-2.2,0.4-2.9,1.2c-0.7,0.8-1,1.7-1,2.8v8.5h-2.5V1263.8z"/>
	<path class="st0" d="M1646.2,1258.3h2.5v2.8h-2.5V1258.3z M1646.2,1263.8h2.5v14.7h-2.5V1263.8z"/>
	<path class="st0" d="M1652.4,1263.8h2.3v2.1c0.7-0.9,1.4-1.5,2.2-1.9c0.8-0.4,1.6-0.6,2.6-0.6c2.1,0,3.5,0.7,4.2,2.2
		c0.4,0.8,0.6,1.9,0.6,3.4v9.5h-2.5v-9.3c0-0.9-0.1-1.6-0.4-2.2c-0.4-0.9-1.2-1.4-2.4-1.4c-0.6,0-1.1,0.1-1.4,0.2
		c-0.7,0.2-1.3,0.6-1.8,1.2c-0.4,0.5-0.7,1-0.8,1.5c-0.1,0.5-0.2,1.3-0.2,2.2v7.7h-2.5V1263.8z"/>
	<path class="st0" d="M1676.1,1264.3c0.5,0.3,0.9,0.8,1.4,1.4v-1.9h2.3v13.4c0,1.9-0.3,3.3-0.8,4.4c-1,2-2.9,3-5.8,3
		c-1.6,0-2.9-0.4-4-1.1c-1.1-0.7-1.7-1.8-1.8-3.3h2.5c0.1,0.7,0.4,1.2,0.7,1.5c0.6,0.5,1.4,0.8,2.6,0.8c1.9,0,3.1-0.7,3.7-2
		c0.3-0.8,0.5-2.2,0.5-4.2c-0.5,0.8-1.1,1.3-1.8,1.7c-0.7,0.4-1.6,0.6-2.7,0.6c-1.6,0-3-0.6-4.2-1.7c-1.2-1.1-1.8-3-1.8-5.6
		c0-2.5,0.6-4.4,1.8-5.8s2.6-2.1,4.3-2.1C1674.3,1263.5,1675.3,1263.8,1676.1,1264.3z M1676.4,1267c-0.7-0.9-1.7-1.3-2.8-1.3
		c-1.7,0-2.9,0.8-3.5,2.4c-0.3,0.9-0.5,2-0.5,3.4c0,1.7,0.3,2.9,1,3.8s1.6,1.3,2.7,1.3c1.8,0,3-0.8,3.7-2.4c0.4-0.9,0.6-2,0.6-3.2
		C1677.6,1269.2,1677.2,1267.9,1676.4,1267z"/>
</g>
<g>
	<path class="st0" d="M166.7,909.7c1.4,1.3,2.2,2.9,2.3,4.6h-2.7c-0.3-1.3-0.9-2.3-1.8-3.1c-0.9-0.8-2.1-1.1-3.7-1.1
		c-1.9,0-3.5,0.7-4.7,2.1c-1.2,1.4-1.8,3.5-1.8,6.4c0,2.4,0.5,4.3,1.6,5.8c1.1,1.5,2.7,2.2,4.8,2.2c2,0,3.5-0.8,4.5-2.3
		c0.5-0.8,1-1.9,1.2-3.2h2.7c-0.2,2.1-1,3.9-2.3,5.4c-1.6,1.7-3.7,2.6-6.4,2.6c-2.3,0-4.3-0.7-5.8-2.1c-2.1-1.9-3.1-4.8-3.1-8.7
		c0-3,0.8-5.4,2.3-7.3c1.7-2.1,4-3.1,6.9-3.1C163.3,907.7,165.3,908.3,166.7,909.7z"/>
	<path class="st0" d="M172.4,913.7h2.3v2.5c0.2-0.5,0.7-1.1,1.4-1.8c0.7-0.7,1.6-1.1,2.6-1.1c0,0,0.1,0,0.2,0c0.1,0,0.3,0,0.6,0.1
		v2.6c-0.1,0-0.3,0-0.4-0.1c-0.1,0-0.3,0-0.4,0c-1.2,0-2.2,0.4-2.9,1.2c-0.7,0.8-1,1.7-1,2.8v8.5h-2.5V913.7z"/>
	<path class="st0" d="M192.3,915.1c1.3,1.3,1.9,3.1,1.9,5.6c0,2.4-0.6,4.3-1.7,5.9c-1.1,1.5-2.9,2.3-5.3,2.3c-2,0-3.6-0.7-4.8-2.1
		c-1.2-1.4-1.8-3.2-1.8-5.5c0-2.5,0.6-4.4,1.9-5.9c1.2-1.5,2.9-2.2,5-2.2C189.5,913.2,191,913.9,192.3,915.1z M190.8,924.9
		c0.6-1.2,0.9-2.6,0.9-4.1c0-1.4-0.2-2.5-0.7-3.4c-0.7-1.4-1.9-2-3.5-2c-1.5,0-2.6,0.6-3.3,1.7c-0.7,1.2-1,2.5-1,4.2
		c0,1.6,0.3,2.9,1,3.9c0.7,1,1.8,1.6,3.2,1.6C189.1,926.8,190.2,926.2,190.8,924.9z"/>
	<path class="st0" d="M198.8,923.8c0.1,0.8,0.3,1.5,0.6,1.9c0.6,0.8,1.7,1.2,3.3,1.2c0.9,0,1.8-0.2,2.5-0.6c0.7-0.4,1.1-1,1.1-1.8
		c0-0.6-0.3-1.1-0.8-1.4c-0.4-0.2-1.1-0.4-2.1-0.7l-2-0.5c-1.3-0.3-2.2-0.7-2.8-1c-1.1-0.7-1.6-1.6-1.6-2.8c0-1.4,0.5-2.5,1.5-3.4
		c1-0.9,2.4-1.3,4.1-1.3c2.2,0,3.9,0.7,4.8,2c0.6,0.8,0.9,1.7,0.9,2.7h-2.3c0-0.6-0.2-1.1-0.6-1.5c-0.6-0.6-1.6-1-3-1
		c-1,0-1.7,0.2-2.2,0.5c-0.5,0.4-0.7,0.8-0.7,1.4c0,0.6,0.3,1.2,1,1.5c0.4,0.2,0.9,0.4,1.6,0.6l1.7,0.4c1.8,0.4,3,0.8,3.6,1.3
		c1,0.6,1.4,1.6,1.4,3c0,1.3-0.5,2.4-1.5,3.4c-1,1-2.5,1.4-4.6,1.4c-2.2,0-3.8-0.5-4.7-1.5c-0.9-1-1.4-2.2-1.5-3.7H198.8z"/>
	<path class="st0" d="M212.8,923.8c0.1,0.8,0.3,1.5,0.6,1.9c0.6,0.8,1.7,1.2,3.3,1.2c0.9,0,1.8-0.2,2.5-0.6c0.7-0.4,1.1-1,1.1-1.8
		c0-0.6-0.3-1.1-0.8-1.4c-0.4-0.2-1.1-0.4-2.1-0.7l-2-0.5c-1.3-0.3-2.2-0.7-2.8-1c-1.1-0.7-1.6-1.6-1.6-2.8c0-1.4,0.5-2.5,1.5-3.4
		c1-0.9,2.4-1.3,4.1-1.3c2.2,0,3.9,0.7,4.8,2c0.6,0.8,0.9,1.7,0.9,2.7h-2.3c0-0.6-0.2-1.1-0.6-1.5c-0.6-0.6-1.6-1-3-1
		c-1,0-1.7,0.2-2.2,0.5c-0.5,0.4-0.7,0.8-0.7,1.4c0,0.6,0.3,1.2,1,1.5c0.4,0.2,0.9,0.4,1.6,0.6l1.7,0.4c1.8,0.4,3,0.8,3.6,1.3
		c1,0.6,1.4,1.6,1.4,3c0,1.3-0.5,2.4-1.5,3.4c-1,1-2.5,1.4-4.6,1.4c-2.2,0-3.8-0.5-4.7-1.5c-0.9-1-1.4-2.2-1.5-3.7H212.8z"/>
	<path class="st0" d="M243.8,915.1c1.3,1.3,1.9,3.1,1.9,5.6c0,2.4-0.6,4.3-1.7,5.9c-1.1,1.5-2.9,2.3-5.3,2.3c-2,0-3.6-0.7-4.8-2.1
		c-1.2-1.4-1.8-3.2-1.8-5.5c0-2.5,0.6-4.4,1.9-5.9c1.2-1.5,2.9-2.2,5-2.2C240.9,913.2,242.5,913.9,243.8,915.1z M242.3,924.9
		c0.6-1.2,0.9-2.6,0.9-4.1c0-1.4-0.2-2.5-0.7-3.4c-0.7-1.4-1.9-2-3.5-2c-1.5,0-2.6,0.6-3.3,1.7c-0.7,1.2-1,2.5-1,4.2
		c0,1.6,0.3,2.9,1,3.9c0.7,1,1.8,1.6,3.2,1.6C240.5,926.8,241.7,926.2,242.3,924.9z"/>
	<path class="st0" d="M249.9,909.2c0.6-0.8,1.7-1.3,3.3-1.3c0.2,0,0.3,0,0.5,0s0.4,0,0.6,0v2.3c-0.3,0-0.4,0-0.6,0
		c-0.1,0-0.2,0-0.3,0c-0.8,0-1.2,0.2-1.4,0.6c-0.1,0.4-0.2,1.4-0.2,3h2.5v2h-2.5v12.7h-2.4v-12.7h-2v-2h2v-2.3
		C249.4,910.4,249.6,909.7,249.9,909.2z"/>
	<path class="st0" d="M127.7,955.7c0.1,1.1,0.3,2.1,0.8,2.8c0.9,1.3,2.4,2,4.6,2c1,0,1.9-0.1,2.7-0.4c1.6-0.6,2.3-1.6,2.3-3.1
		c0-1.1-0.3-1.9-1-2.4c-0.7-0.5-1.7-0.9-3.2-1.2l-2.6-0.6c-1.7-0.4-2.9-0.8-3.7-1.3c-1.2-0.8-1.9-2.1-1.9-3.8c0-1.8,0.6-3.3,1.8-4.5
		c1.2-1.2,2.9-1.7,5.2-1.7c2.1,0,3.8,0.5,5.2,1.5c1.4,1,2.2,2.7,2.2,4.9h-2.6c-0.1-1.1-0.4-1.9-0.8-2.5c-0.8-1.1-2.1-1.6-4.1-1.6
		c-1.5,0-2.6,0.3-3.3,1c-0.7,0.7-1,1.5-1,2.4c0,1,0.4,1.7,1.2,2.2c0.5,0.3,1.7,0.7,3.5,1.1l2.7,0.6c1.3,0.3,2.3,0.7,3.1,1.3
		c1.2,0.9,1.9,2.3,1.9,4.1c0,2.2-0.8,3.8-2.4,4.8c-1.6,1-3.4,1.4-5.5,1.4c-2.4,0-4.4-0.6-5.7-1.9c-1.4-1.3-2.1-3-2-5.2H127.7z"/>
	<path class="st0" d="M152.1,953.3c0.6-0.1,0.9-0.3,1.1-0.7c0.1-0.2,0.2-0.5,0.2-1c0-0.8-0.3-1.5-0.9-1.8c-0.6-0.4-1.5-0.6-2.6-0.6
		c-1.3,0-2.2,0.4-2.7,1.1c-0.3,0.4-0.5,1-0.6,1.7h-2.3c0-1.8,0.6-3.1,1.8-3.8c1.1-0.7,2.4-1.1,3.9-1.1c1.7,0,3.1,0.3,4.2,1
		c1.1,0.7,1.6,1.7,1.6,3.1v8.5c0,0.3,0.1,0.5,0.2,0.6c0.1,0.2,0.3,0.2,0.7,0.2c0.1,0,0.2,0,0.4,0c0.1,0,0.3,0,0.4-0.1v1.8
		c-0.4,0.1-0.7,0.2-0.9,0.2c-0.2,0-0.5,0-0.8,0c-0.8,0-1.5-0.3-1.8-0.9c-0.2-0.3-0.3-0.8-0.4-1.4c-0.5,0.7-1.2,1.2-2.2,1.7
		c-0.9,0.5-2,0.7-3.1,0.7c-1.4,0-2.5-0.4-3.3-1.2s-1.3-1.9-1.3-3.1c0-1.4,0.4-2.4,1.3-3.2c0.8-0.8,2-1.2,3.3-1.4L152.1,953.3z
		 M147,960c0.5,0.4,1.1,0.6,1.8,0.6c0.9,0,1.7-0.2,2.5-0.6c1.4-0.7,2.1-1.8,2.1-3.3v-2c-0.3,0.2-0.7,0.4-1.2,0.5
		c-0.5,0.1-0.9,0.2-1.4,0.3l-1.5,0.2c-0.9,0.1-1.6,0.3-2,0.6c-0.8,0.4-1.1,1.1-1.1,2.1C146.2,959,146.4,959.6,147,960z"/>
	<path class="st0" d="M159.9,942h2.5v2.8h-2.5V942z M159.9,947.6h2.5v14.7h-2.5V947.6z"/>
	<path class="st0" d="M166.1,947.5h2.3v2.1c0.7-0.9,1.4-1.5,2.2-1.9c0.8-0.4,1.6-0.6,2.6-0.6c2.1,0,3.5,0.7,4.2,2.2
		c0.4,0.8,0.6,1.9,0.6,3.4v9.5h-2.5v-9.3c0-0.9-0.1-1.6-0.4-2.2c-0.4-0.9-1.2-1.4-2.4-1.4c-0.6,0-1.1,0.1-1.4,0.2
		c-0.7,0.2-1.3,0.6-1.8,1.2c-0.4,0.5-0.7,1-0.8,1.5c-0.1,0.5-0.2,1.3-0.2,2.2v7.7h-2.5V947.5z"/>
	<path class="st0" d="M182.2,943.4h2.5v4.1h2.3v2h-2.3v9.6c0,0.5,0.2,0.9,0.5,1c0.2,0.1,0.5,0.2,1,0.2c0.1,0,0.2,0,0.4,0
		c0.1,0,0.3,0,0.5,0v2c-0.3,0.1-0.6,0.1-0.9,0.2c-0.3,0-0.6,0.1-1,0.1c-1.2,0-1.9-0.3-2.3-0.9c-0.4-0.6-0.6-1.4-0.6-2.3v-9.8h-2v-2
		h2V943.4z"/>
	<path class="st0" d="M211,942.6c2,1.1,3.2,2.9,3.6,5.5H212c-0.3-1.5-1-2.6-2-3.2c-1-0.7-2.3-1-3.8-1c-1.8,0-3.4,0.7-4.6,2.1
		c-1.2,1.4-1.9,3.5-1.9,6.3c0,2.4,0.5,4.4,1.5,5.9c1,1.5,2.7,2.3,5,2.3c1.8,0,3.3-0.5,4.4-1.6c1.2-1.1,1.8-2.8,1.8-5.1h-6.3v-2.3
		h8.8v10.8h-1.8l-0.7-2.6c-0.9,1-1.7,1.7-2.4,2.1c-1.2,0.7-2.7,1-4.5,1c-2.3,0-4.4-0.8-6.1-2.3c-1.8-1.9-2.8-4.6-2.8-8
		c0-3.4,0.9-6.1,2.7-8.1c1.7-1.9,3.9-2.9,6.6-2.9C208.1,941.5,209.7,941.9,211,942.6z"/>
	<path class="st0" d="M228.2,947.9c1,0.5,1.7,1.1,2.2,1.9c0.5,0.7,0.8,1.6,1,2.6c0.1,0.7,0.2,1.8,0.2,3.2h-10.7c0,1.5,0.4,2.7,1,3.6
		c0.7,0.9,1.7,1.4,3,1.4c1.3,0,2.3-0.4,3.1-1.3c0.4-0.5,0.7-1.1,0.9-1.7h2.4c-0.1,0.5-0.3,1.1-0.6,1.8c-0.4,0.7-0.8,1.2-1.2,1.6
		c-0.7,0.7-1.7,1.2-2.8,1.5c-0.6,0.1-1.3,0.2-2,0.2c-1.8,0-3.4-0.7-4.6-2c-1.3-1.3-1.9-3.2-1.9-5.6c0-2.4,0.6-4.3,1.9-5.8
		c1.3-1.5,2.9-2.2,5-2.2C226.2,947.2,227.2,947.4,228.2,947.9z M229.1,953.7c-0.1-1.1-0.3-1.9-0.7-2.6c-0.7-1.2-1.8-1.8-3.4-1.8
		c-1.1,0-2.1,0.4-2.8,1.2c-0.8,0.8-1.2,1.9-1.2,3.1H229.1z"/>
	<path class="st0" d="M245.4,949c1.3,1.3,1.9,3.1,1.9,5.6c0,2.4-0.6,4.3-1.7,5.9c-1.1,1.5-2.9,2.3-5.3,2.3c-2,0-3.6-0.7-4.8-2.1
		c-1.2-1.4-1.8-3.2-1.8-5.5c0-2.5,0.6-4.4,1.9-5.9c1.2-1.5,2.9-2.2,5-2.2C242.5,947.1,244.1,947.7,245.4,949z M243.8,958.7
		c0.6-1.2,0.9-2.6,0.9-4.1c0-1.4-0.2-2.5-0.7-3.4c-0.7-1.4-1.9-2-3.5-2c-1.5,0-2.6,0.6-3.3,1.7c-0.7,1.2-1,2.5-1,4.2
		c0,1.6,0.3,2.9,1,3.9c0.7,1,1.8,1.6,3.2,1.6C242.1,960.6,243.2,960,243.8,958.7z"/>
	<path class="st0" d="M250.4,947.5h2.3v2.5c0.2-0.5,0.7-1.1,1.4-1.8c0.7-0.7,1.6-1.1,2.6-1.1c0,0,0.1,0,0.2,0c0.1,0,0.3,0,0.6,0.1
		v2.6c-0.1,0-0.3,0-0.4-0.1c-0.1,0-0.3,0-0.4,0c-1.2,0-2.2,0.4-2.9,1.2c-0.7,0.8-1,1.7-1,2.8v8.5h-2.5V947.5z"/>
	<path class="st0" d="M267.8,948.1c0.5,0.3,0.9,0.8,1.4,1.4v-1.9h2.3V961c0,1.9-0.3,3.3-0.8,4.4c-1,2-2.9,3-5.8,3
		c-1.6,0-2.9-0.4-4-1.1c-1.1-0.7-1.7-1.8-1.8-3.3h2.5c0.1,0.7,0.4,1.2,0.7,1.5c0.6,0.6,1.4,0.8,2.6,0.8c1.9,0,3.1-0.7,3.7-2
		c0.3-0.8,0.5-2.2,0.5-4.2c-0.5,0.8-1.1,1.3-1.8,1.7c-0.7,0.4-1.6,0.6-2.7,0.6c-1.6,0-3-0.6-4.2-1.7c-1.2-1.1-1.8-3-1.8-5.6
		c0-2.5,0.6-4.4,1.8-5.8c1.2-1.4,2.6-2.1,4.3-2.1C266,947.2,267,947.5,267.8,948.1z M268.1,950.7c-0.7-0.9-1.7-1.3-2.8-1.3
		c-1.7,0-2.9,0.8-3.5,2.4c-0.3,0.9-0.5,2-0.5,3.4c0,1.7,0.3,2.9,1,3.8s1.6,1.3,2.7,1.3c1.8,0,3-0.8,3.7-2.4c0.4-0.9,0.6-2,0.6-3.2
		C269.3,953,268.9,951.6,268.1,950.7z"/>
	<path class="st0" d="M284.3,947.9c1,0.5,1.7,1.1,2.2,1.9c0.5,0.7,0.8,1.6,1,2.6c0.1,0.7,0.2,1.8,0.2,3.2h-10.7c0,1.5,0.4,2.7,1,3.6
		c0.7,0.9,1.7,1.4,3,1.4c1.3,0,2.3-0.4,3.1-1.3c0.4-0.5,0.7-1.1,0.9-1.7h2.4c-0.1,0.5-0.3,1.1-0.6,1.8c-0.4,0.7-0.8,1.2-1.2,1.6
		c-0.7,0.7-1.7,1.2-2.8,1.5c-0.6,0.1-1.3,0.2-2,0.2c-1.8,0-3.4-0.7-4.6-2c-1.3-1.3-1.9-3.2-1.9-5.6c0-2.4,0.6-4.3,1.9-5.8
		c1.3-1.5,2.9-2.2,5-2.2C282.4,947.2,283.4,947.4,284.3,947.9z M285.2,953.7c-0.1-1.1-0.3-1.9-0.7-2.6c-0.7-1.2-1.8-1.8-3.4-1.8
		c-1.1,0-2.1,0.4-2.8,1.2c-0.8,0.8-1.2,1.9-1.2,3.1H285.2z"/>
</g>
<g>
	<path class="st0" d="M125.9,482.8h2.7v17.8h10.1v2.4h-12.8V482.8z"/>
	<path class="st0" d="M150.2,488.7c1,0.5,1.7,1.1,2.2,1.9c0.5,0.7,0.8,1.6,1,2.6c0.1,0.7,0.2,1.8,0.2,3.2h-10.7c0,1.5,0.4,2.7,1,3.6
		c0.7,0.9,1.7,1.4,3,1.4c1.3,0,2.3-0.4,3.1-1.3c0.4-0.5,0.7-1.1,0.9-1.7h2.4c-0.1,0.5-0.3,1.1-0.6,1.8c-0.4,0.7-0.8,1.2-1.2,1.6
		c-0.7,0.7-1.7,1.2-2.8,1.5c-0.6,0.1-1.3,0.2-2,0.2c-1.8,0-3.4-0.7-4.6-2c-1.3-1.3-1.9-3.2-1.9-5.6c0-2.4,0.6-4.3,1.9-5.8
		c1.3-1.5,2.9-2.2,5-2.2C148.2,488,149.2,488.2,150.2,488.7z M151.1,494.5c-0.1-1.1-0.3-1.9-0.7-2.6c-0.7-1.2-1.8-1.8-3.4-1.8
		c-1.1,0-2.1,0.4-2.8,1.2c-0.8,0.8-1.2,1.9-1.2,3.1H151.1z"/>
	<path class="st0" d="M164.6,494.1c0.6-0.1,0.9-0.3,1.1-0.7c0.1-0.2,0.2-0.5,0.2-1c0-0.8-0.3-1.5-0.9-1.8c-0.6-0.4-1.5-0.6-2.6-0.6
		c-1.3,0-2.2,0.4-2.7,1.1c-0.3,0.4-0.5,1-0.6,1.7h-2.3c0-1.8,0.6-3.1,1.8-3.8c1.1-0.7,2.4-1.1,3.9-1.1c1.7,0,3.1,0.3,4.2,1
		c1.1,0.7,1.6,1.7,1.6,3.1v8.5c0,0.3,0.1,0.5,0.2,0.6c0.1,0.2,0.3,0.2,0.7,0.2c0.1,0,0.2,0,0.4,0c0.1,0,0.3,0,0.4-0.1v1.8
		c-0.4,0.1-0.7,0.2-0.9,0.2c-0.2,0-0.5,0-0.8,0c-0.8,0-1.5-0.3-1.8-0.9c-0.2-0.3-0.3-0.8-0.4-1.4c-0.5,0.7-1.2,1.2-2.2,1.7
		c-0.9,0.5-2,0.7-3.1,0.7c-1.4,0-2.5-0.4-3.3-1.2s-1.3-1.9-1.3-3.1c0-1.4,0.4-2.4,1.3-3.2c0.8-0.8,2-1.2,3.3-1.4L164.6,494.1z
		 M159.4,500.8c0.5,0.4,1.1,0.6,1.8,0.6c0.9,0,1.7-0.2,2.5-0.6c1.4-0.7,2.1-1.8,2.1-3.3v-2c-0.3,0.2-0.7,0.4-1.2,0.5
		c-0.5,0.1-0.9,0.2-1.4,0.3l-1.5,0.2c-0.9,0.1-1.6,0.3-2,0.6c-0.8,0.4-1.1,1.1-1.1,2.1C158.6,499.8,158.9,500.4,159.4,500.8z"/>
	<path class="st0" d="M172.4,488.3h2.3v2.5c0.2-0.5,0.7-1.1,1.4-1.8c0.7-0.7,1.6-1.1,2.6-1.1c0,0,0.1,0,0.2,0c0.1,0,0.3,0,0.6,0.1
		v2.6c-0.1,0-0.3,0-0.4-0.1s-0.3,0-0.4,0c-1.2,0-2.2,0.4-2.9,1.2c-0.7,0.8-1,1.7-1,2.8v8.5h-2.5V488.3z"/>
	<path class="st0" d="M181.7,488.3h2.3v2.1c0.7-0.9,1.4-1.5,2.2-1.9c0.8-0.4,1.6-0.6,2.6-0.6c2.1,0,3.5,0.7,4.2,2.2
		c0.4,0.8,0.6,1.9,0.6,3.4v9.5h-2.5v-9.3c0-0.9-0.1-1.6-0.4-2.2c-0.4-0.9-1.2-1.4-2.4-1.4c-0.6,0-1.1,0.1-1.4,0.2
		c-0.7,0.2-1.3,0.6-1.8,1.2c-0.4,0.5-0.7,1-0.8,1.5c-0.1,0.5-0.2,1.3-0.2,2.2v7.7h-2.5V488.3z"/>
	<path class="st0" d="M197.3,482.8h2.5v2.8h-2.5V482.8z M197.3,488.4h2.5V503h-2.5V488.4z"/>
	<path class="st0" d="M203.5,488.3h2.3v2.1c0.7-0.9,1.4-1.5,2.2-1.9c0.8-0.4,1.6-0.6,2.6-0.6c2.1,0,3.5,0.7,4.2,2.2
		c0.4,0.8,0.6,1.9,0.6,3.4v9.5H213v-9.3c0-0.9-0.1-1.6-0.4-2.2c-0.4-0.9-1.2-1.4-2.4-1.4c-0.6,0-1.1,0.1-1.4,0.2
		c-0.7,0.2-1.3,0.6-1.8,1.2c-0.4,0.5-0.7,1-0.8,1.5c-0.1,0.5-0.2,1.3-0.2,2.2v7.7h-2.5V488.3z"/>
	<path class="st0" d="M227.3,488.9c0.5,0.3,0.9,0.8,1.4,1.4v-1.9h2.3v13.4c0,1.9-0.3,3.3-0.8,4.4c-1,2-2.9,3-5.8,3
		c-1.6,0-2.9-0.4-4-1.1c-1.1-0.7-1.7-1.8-1.8-3.3h2.5c0.1,0.7,0.4,1.2,0.7,1.5c0.6,0.5,1.4,0.8,2.6,0.8c1.9,0,3.1-0.7,3.7-2
		c0.3-0.8,0.5-2.2,0.5-4.2c-0.5,0.8-1.1,1.3-1.8,1.7c-0.7,0.4-1.6,0.6-2.7,0.6c-1.6,0-3-0.6-4.2-1.7c-1.2-1.1-1.8-3-1.8-5.6
		c0-2.5,0.6-4.4,1.8-5.8c1.2-1.4,2.6-2.1,4.3-2.1C225.4,488,226.4,488.3,227.3,488.9z M227.6,491.5c-0.7-0.9-1.7-1.3-2.8-1.3
		c-1.7,0-2.9,0.8-3.5,2.4c-0.3,0.9-0.5,2-0.5,3.4c0,1.7,0.3,2.9,1,3.8c0.7,0.9,1.6,1.3,2.7,1.3c1.8,0,3-0.8,3.7-2.4
		c0.4-0.9,0.6-2,0.6-3.2C228.7,493.8,228.3,492.4,227.6,491.5z"/>
	<path class="st0" d="M244.8,489.3c-0.3-0.7-0.4-1.3-0.4-1.9c0-1.3,0.4-2.4,1.3-3.2c0.9-0.9,2-1.3,3.5-1.3c1.4,0,2.5,0.4,3.3,1.2
		c0.8,0.8,1.2,1.8,1.2,2.9c0,1.3-0.4,2.4-1.2,3.4c-0.5,0.6-1.3,1.2-2.4,2l3.7,4.4c0.2-0.7,0.4-1.3,0.5-1.6c0.1-0.4,0.2-0.9,0.3-1.5
		h2.3c-0.2,1.3-0.5,2.5-0.9,3.7c-0.5,1.2-0.7,1.7-0.7,1.4l3.6,4.4h-3.2l-1.9-2.3c-0.7,0.8-1.4,1.4-2,1.8c-1.1,0.7-2.3,1-3.7,1
		c-2.1,0-3.6-0.6-4.5-1.7c-0.9-1.1-1.4-2.4-1.4-3.8c0-1.5,0.5-2.8,1.4-3.8c0.6-0.6,1.6-1.4,3.2-2.3C245.6,490.8,245,490,244.8,489.3
		z M250.7,500.6c0.7-0.5,1.3-1,1.7-1.6l-4.5-5.6c-1.3,0.9-2.1,1.5-2.5,2c-0.6,0.7-0.9,1.5-0.9,2.5c0,1.1,0.4,1.9,1.2,2.5
		c0.8,0.6,1.6,0.9,2.5,0.9C249.1,501.3,250,501.1,250.7,500.6z M250.5,489.2c0.5-0.6,0.8-1.3,0.8-2.1c0-0.6-0.2-1.1-0.6-1.5
		c-0.4-0.4-0.9-0.6-1.6-0.6c-1,0-1.7,0.3-2.1,1c-0.2,0.3-0.3,0.7-0.3,1.1c0,0.6,0.2,1.1,0.5,1.6c0.3,0.5,0.8,1.2,1.5,2
		C249.6,490,250.2,489.5,250.5,489.2z"/>
	<path class="st0" d="M126.7,522.1l2.8,11.6l2.9-11.6h2.8l2.9,11.5l3-11.5h2.5l-4.3,14.7h-2.6l-3-11.4l-2.9,11.4h-2.6l-4.2-14.7
		H126.7z"/>
	<path class="st0" d="M145.8,516.6h2.5v2.8h-2.5V516.6z M145.8,522.2h2.5v14.7h-2.5V522.2z"/>
	<path class="st0" d="M152.1,516.6h2.5v20.2h-2.5V516.6z"/>
	<path class="st0" d="M158.3,516.6h2.5v20.2h-2.5V516.6z"/>
	<path class="st0" d="M164.5,516.6h2.5v2.8h-2.5V516.6z M164.5,522.2h2.5v14.7h-2.5V522.2z"/>
	<path class="st0" d="M170.7,522.1h2.3v2.1c0.7-0.9,1.4-1.5,2.2-1.9c0.8-0.4,1.6-0.6,2.6-0.6c2.1,0,3.5,0.7,4.2,2.2
		c0.4,0.8,0.6,1.9,0.6,3.4v9.5h-2.5v-9.3c0-0.9-0.1-1.6-0.4-2.2c-0.4-0.9-1.2-1.4-2.4-1.4c-0.6,0-1.1,0.1-1.4,0.2
		c-0.7,0.2-1.3,0.6-1.8,1.2c-0.4,0.5-0.7,1-0.8,1.5c-0.1,0.5-0.2,1.3-0.2,2.2v7.7h-2.5V522.1z"/>
	<path class="st0" d="M194.5,522.7c0.5,0.3,0.9,0.8,1.4,1.4v-1.9h2.3v13.4c0,1.9-0.3,3.3-0.8,4.4c-1,2-2.9,3-5.8,3
		c-1.6,0-2.9-0.4-4-1.1c-1.1-0.7-1.7-1.8-1.8-3.3h2.5c0.1,0.7,0.4,1.2,0.7,1.5c0.6,0.5,1.4,0.8,2.6,0.8c1.9,0,3.1-0.7,3.7-2
		c0.3-0.8,0.5-2.2,0.5-4.2c-0.5,0.8-1.1,1.3-1.8,1.7s-1.6,0.6-2.7,0.6c-1.6,0-3-0.6-4.2-1.7c-1.2-1.1-1.8-3-1.8-5.6
		c0-2.5,0.6-4.4,1.8-5.8c1.2-1.4,2.6-2.1,4.3-2.1C192.6,521.8,193.6,522.1,194.5,522.7z M194.8,525.3c-0.7-0.9-1.7-1.3-2.8-1.3
		c-1.7,0-2.9,0.8-3.5,2.4c-0.3,0.9-0.5,2-0.5,3.4c0,1.7,0.3,2.9,1,3.8c0.7,0.9,1.6,1.3,2.7,1.3c1.8,0,3-0.8,3.7-2.4
		c0.4-0.9,0.6-2,0.6-3.2C195.9,527.6,195.6,526.2,194.8,525.3z"/>
	<path class="st0" d="M202,522.1h2.3v2.1c0.7-0.9,1.4-1.5,2.2-1.9c0.8-0.4,1.6-0.6,2.6-0.6c2.1,0,3.5,0.7,4.2,2.2
		c0.4,0.8,0.6,1.9,0.6,3.4v9.5h-2.5v-9.3c0-0.9-0.1-1.6-0.4-2.2c-0.4-0.9-1.2-1.4-2.4-1.4c-0.6,0-1.1,0.1-1.4,0.2
		c-0.7,0.2-1.3,0.6-1.8,1.2c-0.4,0.5-0.7,1-0.8,1.5c-0.1,0.5-0.2,1.3-0.2,2.2v7.7H202V522.1z"/>
	<path class="st0" d="M226.6,522.5c1,0.5,1.7,1.1,2.2,1.9c0.5,0.7,0.8,1.6,1,2.6c0.1,0.7,0.2,1.8,0.2,3.2h-10.7c0,1.5,0.4,2.7,1,3.6
		c0.7,0.9,1.7,1.4,3,1.4c1.3,0,2.3-0.4,3.1-1.3c0.4-0.5,0.7-1.1,0.9-1.7h2.4c-0.1,0.5-0.3,1.1-0.6,1.8c-0.4,0.7-0.8,1.2-1.2,1.6
		c-0.7,0.7-1.7,1.2-2.8,1.5c-0.6,0.1-1.3,0.2-2,0.2c-1.8,0-3.4-0.7-4.6-2c-1.3-1.3-1.9-3.2-1.9-5.6c0-2.4,0.6-4.3,1.9-5.8
		c1.3-1.5,2.9-2.2,5-2.2C224.6,521.8,225.6,522,226.6,522.5z M227.5,528.3c-0.1-1.1-0.3-1.9-0.7-2.6c-0.7-1.2-1.8-1.8-3.4-1.8
		c-1.1,0-2.1,0.4-2.8,1.2c-0.8,0.8-1.2,1.9-1.2,3.1H227.5z"/>
	<path class="st0" d="M234.6,532.2c0.1,0.8,0.3,1.5,0.6,1.9c0.6,0.8,1.7,1.2,3.3,1.2c0.9,0,1.8-0.2,2.5-0.6c0.7-0.4,1.1-1,1.1-1.8
		c0-0.6-0.3-1.1-0.8-1.4c-0.4-0.2-1.1-0.4-2.1-0.7l-2-0.5c-1.3-0.3-2.2-0.7-2.8-1c-1.1-0.7-1.6-1.6-1.6-2.8c0-1.4,0.5-2.5,1.5-3.4
		c1-0.9,2.4-1.3,4.1-1.3c2.2,0,3.9,0.7,4.8,2c0.6,0.8,0.9,1.7,0.9,2.7h-2.3c0-0.6-0.2-1.1-0.6-1.5c-0.6-0.6-1.6-1-3-1
		c-1,0-1.7,0.2-2.2,0.5c-0.5,0.4-0.7,0.8-0.7,1.4c0,0.6,0.3,1.2,1,1.5c0.4,0.2,0.9,0.4,1.6,0.6l1.7,0.4c1.8,0.4,3,0.8,3.6,1.3
		c1,0.6,1.4,1.6,1.4,3c0,1.3-0.5,2.4-1.5,3.4c-1,1-2.5,1.4-4.6,1.4c-2.2,0-3.8-0.5-4.7-1.5c-0.9-1-1.4-2.2-1.5-3.7H234.6z"/>
	<path class="st0" d="M248.6,532.2c0.1,0.8,0.3,1.5,0.6,1.9c0.6,0.8,1.7,1.2,3.3,1.2c0.9,0,1.8-0.2,2.5-0.6c0.7-0.4,1.1-1,1.1-1.8
		c0-0.6-0.3-1.1-0.8-1.4c-0.4-0.2-1.1-0.4-2.1-0.7l-2-0.5c-1.3-0.3-2.2-0.7-2.8-1c-1.1-0.7-1.6-1.6-1.6-2.8c0-1.4,0.5-2.5,1.5-3.4
		c1-0.9,2.4-1.3,4.1-1.3c2.2,0,3.9,0.7,4.8,2c0.6,0.8,0.9,1.7,0.9,2.7h-2.3c0-0.6-0.2-1.1-0.6-1.5c-0.6-0.6-1.6-1-3-1
		c-1,0-1.7,0.2-2.2,0.5c-0.5,0.4-0.7,0.8-0.7,1.4c0,0.6,0.3,1.2,1,1.5c0.4,0.2,0.9,0.4,1.6,0.6l1.7,0.4c1.8,0.4,3,0.8,3.6,1.3
		c1,0.6,1.4,1.6,1.4,3c0,1.3-0.5,2.4-1.5,3.4c-1,1-2.5,1.4-4.6,1.4c-2.2,0-3.8-0.5-4.7-1.5c-0.9-1-1.4-2.2-1.5-3.7H248.6z"/>
</g>
<g>
	<path class="st0" d="M1660.2,364.5h2.8v8.3h10.3v-8.3h2.8v20.2h-2.8v-9.5H1663v9.5h-2.8V364.5z"/>
	<path class="st0" d="M1682.5,370v9.8c0,0.8,0.1,1.4,0.3,1.8c0.4,0.9,1.2,1.3,2.4,1.3c1.7,0,2.8-0.8,3.4-2.3c0.3-0.8,0.5-2,0.5-3.4
		V370h2.5v14.7h-2.3l0-2.2c-0.3,0.6-0.7,1-1.2,1.4c-0.9,0.8-2,1.2-3.4,1.2c-2.1,0-3.4-0.7-4.2-2.1c-0.4-0.8-0.6-1.8-0.6-3v-10
		H1682.5z"/>
	<path class="st0" d="M1695.7,364.5h2.5v2.8h-2.5V364.5z M1695.7,370.1h2.5v14.7h-2.5V370.1z"/>
	<path class="st0" d="M1709.8,375.8c0.6-0.1,0.9-0.3,1.1-0.7c0.1-0.2,0.2-0.5,0.2-1c0-0.8-0.3-1.5-0.9-1.8c-0.6-0.4-1.5-0.6-2.6-0.6
		c-1.3,0-2.2,0.4-2.7,1.1c-0.3,0.4-0.5,1-0.6,1.7h-2.3c0-1.8,0.6-3.1,1.8-3.8c1.1-0.7,2.4-1.1,3.9-1.1c1.7,0,3.1,0.3,4.2,1
		c1.1,0.7,1.6,1.7,1.6,3.1v8.5c0,0.3,0.1,0.5,0.2,0.6c0.1,0.2,0.3,0.2,0.7,0.2c0.1,0,0.2,0,0.4,0c0.1,0,0.3,0,0.4-0.1v1.8
		c-0.4,0.1-0.7,0.2-0.9,0.2c-0.2,0-0.5,0-0.8,0c-0.8,0-1.5-0.3-1.8-0.9c-0.2-0.3-0.3-0.8-0.4-1.4c-0.5,0.7-1.2,1.2-2.2,1.7
		c-0.9,0.5-2,0.7-3.1,0.7c-1.4,0-2.5-0.4-3.3-1.2c-0.9-0.8-1.3-1.9-1.3-3.1c0-1.4,0.4-2.4,1.3-3.2c0.8-0.8,2-1.2,3.3-1.4
		L1709.8,375.8z M1704.6,382.5c0.5,0.4,1.1,0.6,1.8,0.6c0.9,0,1.7-0.2,2.5-0.6c1.4-0.7,2.1-1.8,2.1-3.3v-2c-0.3,0.2-0.7,0.4-1.2,0.5
		c-0.5,0.1-0.9,0.2-1.4,0.3l-1.5,0.2c-0.9,0.1-1.6,0.3-2,0.6c-0.8,0.4-1.1,1.1-1.1,2.1C1703.8,381.5,1704.1,382.1,1704.6,382.5z"/>
	<path class="st0" d="M1725.6,364.5h8.7c2.4,0,4.1,0.7,5.1,2.1c0.6,0.8,0.9,1.8,0.9,2.9c0,1.3-0.4,2.3-1.1,3.1
		c-0.4,0.4-0.9,0.8-1.6,1.2c1,0.4,1.8,0.8,2.3,1.3c0.9,0.9,1.4,2.1,1.4,3.6c0,1.3-0.4,2.5-1.2,3.5c-1.2,1.6-3.2,2.4-5.8,2.4h-8.6
		V364.5z M1733.3,373.1c1.2,0,2.1-0.2,2.7-0.5c1-0.5,1.5-1.4,1.5-2.7c0-1.3-0.5-2.2-1.6-2.7c-0.6-0.3-1.5-0.4-2.7-0.4h-4.9v6.3
		H1733.3z M1734.2,382.4c1.7,0,2.9-0.5,3.6-1.5c0.5-0.6,0.7-1.4,0.7-2.2c0-1.5-0.7-2.5-2-3c-0.7-0.3-1.6-0.4-2.8-0.4h-5.5v7.1
		H1734.2z"/>
	<path class="st0" d="M1744,364.5h2.5v2.8h-2.5V364.5z M1744,370.1h2.5v14.7h-2.5V370.1z"/>
	<path class="st0" d="M1750.3,370h2.3v2.5c0.2-0.5,0.7-1.1,1.4-1.8c0.7-0.7,1.6-1.1,2.6-1.1c0,0,0.1,0,0.2,0c0.1,0,0.3,0,0.6,0.1
		v2.6c-0.1,0-0.3,0-0.4-0.1c-0.1,0-0.3,0-0.4,0c-1.2,0-2.2,0.4-2.9,1.2s-1,1.7-1,2.8v8.5h-2.5V370z"/>
	<path class="st0" d="M1767.7,370.5c0.4,0.3,0.9,0.8,1.5,1.4v-7.4h2.4v20.3h-2.2v-2c-0.6,0.9-1.3,1.6-2,2c-0.8,0.4-1.7,0.6-2.7,0.6
		c-1.6,0-3-0.7-4.2-2.1s-1.8-3.2-1.8-5.5c0-2.1,0.5-4,1.6-5.6c1.1-1.6,2.6-2.4,4.7-2.4C1766,369.7,1766.9,370,1767.7,370.5z
		 M1762.2,381.5c0.7,1.1,1.7,1.6,3.2,1.6c1.1,0,2.1-0.5,2.8-1.5c0.7-1,1.1-2.4,1.1-4.2c0-1.9-0.4-3.2-1.1-4.1
		c-0.8-0.9-1.7-1.3-2.8-1.3c-1.2,0-2.2,0.5-3,1.4c-0.8,1-1.2,2.4-1.2,4.2C1761.2,379.1,1761.5,380.4,1762.2,381.5z"/>
</g>
<polygon class="st0" points="925.6,505.2 282.7,505.2 282.7,504.2 924.6,504.2 924.6,449.2 925.6,449.2 "/>
<polygon class="st0" points="1348.4,1560.4 1347.4,1560.4 1347.4,1271.8 1461.5,1271.8 1461.5,1272.8 1348.4,1272.8 "/>
<rect x="1344.3" y="375" class="st0" width="295.2" height="1"/>
<rect x="276.4" y="921.6" class="st0" width="384.8" height="1"/>
</svg>
