<svg id="Layer_1" data-name="Layer 1" xmlns="http://www.w3.org/2000/svg" viewBox="0 0 1920 777.0777"><defs><style>.cls-1{fill:#fff;}.cls-2{fill:#d72b37;}.cls-3{fill:#f8dc54;}.cls-4{fill:#1b2865;}</style></defs><title>stgeorges2</title><path class="cls-1" d="M613.2505,569.4009l-4.8773-3.9482a39.75,39.75,0,0,1-4.645-4.1805c-2.787-3.0193-16.49-24.6185-27.87-43.1986-3.716-8.1288-12.077-12.7738-24.3863-12.7738a55.1479,55.1479,0,0,0-33.6763,11.6125c-8.8255,7.2-9.7545,14.864-9.0577,19.7413-28.3345,8.5933-68.0493,13.935-110.0866,14.6318,58.9916-37.16,110.0866-103.8158,140.5114-183.71C567.0327,293.72,574.697,217.31,560.53,152.5118l-2.3225-7.6643H219.8187l-1.6258,7.2c-14.4,64.7978-6.9675,141.2081,21.367,215.0637,30.4248,79.8941,81.52,146.55,140.5114,183.71-42.27-.6968-82.2166-6.0385-110.0866-14.864.6967-4.645-.6967-12.077-9.0578-19.509a51.3245,51.3245,0,0,0-18.8123-9.5223,49.823,49.823,0,0,0-14.864-2.09,25.3151,25.3151,0,0,0-6.0385.6968c-11.6125,1.858-16.0253,8.1288-18.3478,12.077-11.6125,18.58-25.5475,40.1793-27.87,43.1986l-4.645,4.645-5.8063,3.9482v6.503a83.2457,83.2457,0,0,0,6.503,32.7473l11.148,26.4765,18.3478-34.6053,10.9158,5.574c37.16,18.3478,105.2093,29.4958,177.4392,29.4958,72.4621,0,140.2791-11.148,177.6714-29.4958l10.6835-5.1095L595.6,635.36l11.148-26.4765a76.4469,76.4469,0,0,0,6.503-32.7473Z"/><path class="cls-2" d="M502.6994,342.4925H420.9474V275.6044H358.9366v66.8881H276.4877c1.1613,3.0193,2.09,6.503,3.2515,9.5223a353.31,353.31,0,0,0,24.6185,52.7208h54.3465v73.8556c9.7545,9.9868,19.9735,19.2768,30.657,26.7088a247.4854,247.4854,0,0,0,31.3538-27.6378V404.9678h53.882a476.3075,476.3075,0,0,0,24.6185-52.7208C500.3769,348.9955,501.5382,345.9762,502.6994,342.4925Z"/><path class="cls-3" d="M522.9052,187.3494H256.05c-3.0193,27.6378-2.09,57.83,3.0193,88.4873h260.817A326.7392,326.7392,0,0,0,522.9052,187.3494Z"/><path class="cls-4" d="M534.75,174.1111c8.8255,55.9723.929,120.0734-22.7605,182.5486-27.4055,71.0686-71.5331,130.7569-122.3958,165.5944-51.095-34.6053-95.2226-94.2936-122.3959-165.13-23.69-62.7076-31.586-126.8086-22.7605-182.7809H534.75M551.24,154.37H228.18c-13.4705,60.1528-7.6643,135.17,20.67,209.49,31.586,82.6811,83.8423,147.4789,140.7436,181.62,56.6691-34.1408,109.1576-98.9386,140.7436-181.62,28.1023-74.5523,34.1408-149.3369,20.9025-209.49Z"/><path class="cls-4" d="M318.99,210.5744h0c0-.2322-.2322-4.645-5.8063-4.8773-5.1095-.2322-9.0578,5.574-9.5223,5.8063h0a7.16,7.16,0,0,0-2.3225.2322c-3.716,1.6258-7.2,3.2515-9.9868,6.0385-4.8773,4.1805-8.5933,9.5223-13.006,13.935a36.3835,36.3835,0,0,1-5.8063,4.645c-1.6258,1.6258-7.6643,5.574-7.6643,5.574s8.5933.929,9.9868-.6967c-2.09,2.3225-9.0578,7.6643-8.8255,15.0963,0,0,12.077-13.4705,18.58-13.935,2.787-.2322,4.1805.2322,5.8063,1.6258,2.09,1.6258,3.0193,3.2515,3.9483,9.0578-.6967,0-2.3225.929-3.716,2.09a2.072,2.072,0,0,0-.6967,1.858,85.3074,85.3074,0,0,1,8.8255-.6967,47.768,47.768,0,0,1,9.0578.6967,1.7533,1.7533,0,0,0-.929-1.6258,15.7662,15.7662,0,0,0-4.645-1.6258c-.929-.2322-4.1805-1.1613-5.8063-3.716-1.1613-2.09-.6967-4.645-.6967-6.0385a5.0525,5.0525,0,0,1,1.6258-3.716c1.6258-1.1613,3.0193-3.0193,4.8773-5.574a24.6638,24.6638,0,0,0,4.1805-8.8255,9.5252,9.5252,0,0,0,3.2515-1.858c3.0193-2.3225,3.716-6.0385,3.9482-7.2a7.0773,7.0773,0,0,1,2.3225-1.6258,5.1784,5.1784,0,0,1,4.1805.929c1.858,1.1613,3.0193,3.0193,4.1805,5.11C324.7958,221.2579,327.5828,215.2194,318.99,210.5744Zm-9.29,9.9868c-1.6257,1.858-3.2515,3.0193-3.9482,2.3225s0-2.3225,1.6257-4.1805,3.2515-3.0193,3.9482-2.3225C311.79,216.6129,311.093,218.7031,309.7,220.5611Z"/><path class="cls-4" d="M462.7524,210.5744h0c0-.2322.2323-4.645,5.8063-4.8773,5.1095-.2322,9.0577,5.574,9.5223,5.8063h0a7.16,7.16,0,0,1,2.3225.2322c3.716,1.6258,7.2,3.2515,9.9868,6.0385,4.8773,4.1805,8.5933,9.5223,13.006,13.935a36.3847,36.3847,0,0,0,5.8063,4.645c1.6257,1.1613,7.6643,5.11,7.6643,5.11s-8.5933.929-9.9868-.6967c2.09,2.3225,9.0577,7.6643,8.8255,15.0963,0,0-12.077-13.4705-18.58-13.935-2.787-.2322-4.1805.2322-5.8063,1.6258-2.09,1.6258-3.0193,3.2515-3.9482,9.0578.6968,0,2.3225.929,3.716,2.09a2.072,2.072,0,0,1,.6968,1.858,85.307,85.307,0,0,0-8.8255-.6967,47.7678,47.7678,0,0,0-9.0577.6967,1.7533,1.7533,0,0,1,.929-1.6258,15.7662,15.7662,0,0,1,4.645-1.6258c.929-.2322,4.1805-1.1613,5.8063-3.716,1.1613-2.09.6968-4.645.6968-6.0385a5.4808,5.4808,0,0,0-1.6257-3.716c-1.6257-1.1613-3.0193-3.0193-4.8773-5.574a24.6635,24.6635,0,0,1-4.1805-8.8255,9.5253,9.5253,0,0,1-3.2515-1.858c-3.0193-2.3225-3.716-6.0385-3.9482-7.2a7.0773,7.0773,0,0,0-2.3225-1.6258,5.1784,5.1784,0,0,0-4.1805.929c-1.858,1.1613-3.0193,3.0193-4.1805,5.11C456.4816,221.2579,454.1591,215.2194,462.7524,210.5744Zm9.29,9.9868c1.6257,1.858,3.2515,3.0193,3.9482,2.3225s0-2.3225-1.6257-4.1805-3.2515-3.0193-3.9482-2.3225C469.72,216.6129,470.6489,218.7031,472.0424,220.5611Z"/><path class="cls-4" d="M604.425,574.046l-1.6257-1.1613a65.8261,65.8261,0,0,1-5.8063-5.574c-3.9482-4.645-22.5283-33.6763-29.4958-45.2888-3.0193-8.1288-16.49-9.0577-28.3345-5.8063A51.2249,51.2249,0,0,0,523.602,523.88c-6.503,5.574-6.503,10.4513-5.574,12.7738a10.1144,10.1144,0,0,0,3.716,5.1095c-31.1215,11.6125-79.8941,18.58-132.3826,18.58s-101.4933-6.9675-132.6149-18.8123a9.2344,9.2344,0,0,0,3.716-5.1095c.6967-2.3225.929-7.2-5.574-12.7738a42.4477,42.4477,0,0,0-15.5608-7.6643,45.7417,45.7417,0,0,0-17.4188-1.6257c-7.6643,1.1613-10.4513,4.8773-11.148,7.2-6.9675,11.6125-25.5475,40.876-29.4958,45.2888-1.858,1.858-3.716,3.716-5.8063,5.574l-1.6258,1.1613v2.09a75.6,75.6,0,0,0,5.8063,29.2635l3.716,8.1288L202.1677,577.53c.6967,0,.929.2323,1.6258.2323,6.503,1.858,11.148,4.8773,13.4705,7.2l-5.11,10.4513,3.9483,1.858c35.9988,17.651,102.19,28.5668,173.4909,28.5668,70.8363,0,137.4921-10.9158,173.4909-28.5668l3.9482-1.858-5.1095-10.6835c2.3225-2.3225,6.9675-5.1095,13.006-6.7352.6968,0,.929-.2323,1.6257-.2323l18.8123,35.5343,3.716-8.1288A73.9514,73.9514,0,0,0,604.89,575.904Zm-421.3018,3.9482a35.4082,35.4082,0,0,0,5.11-5.1095c3.9483-4.645,18.58-27.4055,26.2443-39.4825l1.6258,1.6257-30.657,57.83A48.3082,48.3082,0,0,1,183.1232,577.9942Zm23.69-7.8965,19.9735-37.6245-3.0193-2.09c-3.716-2.3225-4.645-4.645-4.645-5.1095,0-.2323,1.1613-1.1613,4.645-1.858,3.716-.6968,8.8255,0,13.7028,1.1613a29.4317,29.4317,0,0,1,12.077,6.0385c2.3225,2.09,3.0193,3.716,2.787,3.9482-.2322.6968-2.3225,2.09-6.9675,2.09l-2.787-1.6257-20.9025,42.27A44.3363,44.3363,0,0,0,206.8127,570.0977Zm182.7809,47.379c-67.12,0-130.2924-9.7545-165.8266-25.78l22.5283-45.2888c31.3538,13.935,85.4681,22.5283,143.2984,22.5283s111.9446-8.5933,143.2984-22.5283L555.42,591.6969C519.8859,607.7222,456.9461,617.4767,389.5936,617.4767ZM557.975,577.0652l-20.67-42.0373-3.0193,1.6257c-4.8773,0-6.9675-1.6257-7.2-2.3225,0-.2323.2323-1.858,2.787-3.9482a36.7091,36.7091,0,0,1,12.077-6.0385c10.9158-3.0193,17.651-.6968,17.8833.6968,0,.2323-.6968,2.3225-4.645,5.1095l-3.0193,2.09,19.9735,37.6245C566.5683,571.7235,561.4587,574.046,557.975,577.0652Zm35.9988,15.5608-30.657-57.83,1.6257-1.6257c7.6643,12.077,21.8315,35.07,26.2443,39.4825,1.6257,1.858,3.2515,3.2515,5.1095,5.1095A79.2812,79.2812,0,0,1,593.9737,592.626Z"/><path class="cls-4" d="M247.2242,586.82l5.8063-21.367c0-.2323.6967-.6968.929-.6968l13.7028,3.716c.2322,0,.6967.6968.6967.929l-.929,3.2515c0,.2323-.6967.6968-.929.2323l-9.0578-2.3225c-.2322,0-.2322,0-.2322.2323l-1.1613,3.9482c0,.2323,0,.2323.2322.2323l8.8255,2.3225c.2322,0,.6967.6968.6967.929l-.929,3.2515c0,.2323-.6967.6968-.929.2323l-8.8255-2.3225c-.2322,0-.2322,0-.2322.2323l-2.09,8.1288c0,.2323-.6967.6968-.929.6968l-3.2515-.929C247.2242,587.7487,246.992,587.5165,247.2242,586.82Z"/><path class="cls-4" d="M275.5587,575.2072l-3.9483-.929c-.2322,0-.6967-.2323-.6967-.929l.6967-3.0193c0-.2323.2322-.6968.929-.6968L286.01,572.42c.2322,0,.6967.2323.6967.929l-.6967,3.0193c0,.2323-.2322.6968-.929.6968l-3.9483-.929c-.2322,0-.2322,0-.2322.2323l-2.787,13.4705c0,.2323,0,.2323.2322.2323l4.1805.929c.2322,0,.6967.2323.6967.929l-.6967,3.0193c0,.2323-.2322.6968-.929.6968l-13.935-2.787c-.2322,0-.6967-.2323-.6967-.929l.6967-3.0193c0-.2323.2322-.6968.929-.6968l4.1805.929c.2322,0,.2322,0,.2322-.2323l2.787-13.4705C275.791,575.6717,275.5587,575.2072,275.5587,575.2072Z"/><path class="cls-4" d="M287.1712,596.342l3.2515-21.8315c0-.2323.2322-.6968.929-.6968l6.9675,1.1613c3.716.6968,6.0385,2.787,6.9675,5.574.6968,2.09.2322,4.1805,0,7.2a14.54,14.54,0,0,1-2.09,6.9675,8.3862,8.3862,0,0,1-8.1288,3.2515L288.1,596.8064C287.4035,596.8065,287.1712,596.5742,287.1712,596.342Zm8.1288-2.787c1.6258.2323,2.787-.2323,3.2515-1.1613.6967-.929.929-3.2515,1.1612-5.1095.2322-2.09.6968-4.1805.2322-5.574q-.3484-1.7419-2.787-2.09l-2.3225-.2323c-.2322,0-.2322,0-.2322.2323l-2.09,13.006c0,.2323,0,.2323.2322.2323Z"/><path class="cls-4" d="M308.7705,592.8582l1.858-15.5608c0-.2323.2322-.6968.929-.6968l3.716.2323a.7416.7416,0,0,1,.6968.6968l-1.858,15.5608c-.2322,1.6257.929,2.787,2.787,3.0193a3.2606,3.2606,0,0,0,3.716-2.3225l1.858-15.5608c0-.2323.2322-.6968.929-.6968l3.716.2323a.7416.7416,0,0,1,.6968.6968l-1.858,15.5608a8.0882,8.0882,0,0,1-9.0578,6.503C311.79,600.7547,308.0738,597.5032,308.7705,592.8582Z"/><path class="cls-4" d="M328.5118,595.413v-.6968c0-.2323.2322-.6968.929-.6968l3.716.2323a.7416.7416,0,0,1,.6968.6968v.6968c0,1.6257,1.1613,2.787,3.2515,3.0193s3.716-.6968,3.716-2.09-.2322-2.3225-4.8773-3.9482c-4.1805-1.6257-6.0385-3.9482-5.8063-7.6643s3.716-6.503,8.8255-5.8063c5.1095.2323,7.6643,3.716,7.2,7.6643v.2323a.7416.7416,0,0,1-.6968.6968l-3.716-.2323a.7416.7416,0,0,1-.6968-.6968v-.2323a2.5627,2.5627,0,0,0-2.787-2.787c-2.09-.2323-3.0193.6968-3.2515,1.858,0,1.1613.6968,2.09,4.8773,3.2515,4.645,1.6257,6.503,3.9482,6.0385,7.6643-.2322,4.1805-3.9482,6.9675-9.0578,6.7352C331.2988,602.845,328.28,599.5935,328.5118,595.413Z"/><path class="cls-4" d="M370.7813,604.2385l.2322-22.296a.7416.7416,0,0,1,.6968-.6968l13.935.2323a.7416.7416,0,0,1,.6968.6968v3.2515a.7416.7416,0,0,1-.6968.6968h-9.5223c-.2322,0-.2322,0-.2322.2323v3.9482c0,.2323,0,.2323.2322.2323h9.0578a.7416.7416,0,0,1,.6968.6968v3.2515a.7416.7416,0,0,1-.6968.6968h-9.0578c-.2322,0-.2322,0-.2322.2323v3.9482c0,.2323,0,.2323.2322.2323h9.5223a.7416.7416,0,0,1,.6968.6968v3.2515a.7416.7416,0,0,1-.6968.6968l-13.935-.2323C371.0136,604.703,370.7813,604.4707,370.7813,604.2385Z"/><path class="cls-4" d="M396.5611,604.2385l-.2322-17.651c0-.2323,0-.2323-.2322-.2323h-5.574a.7416.7416,0,0,1-.6968-.6968v-3.2515a.7416.7416,0,0,1,.6968-.6968l16.722-.2323a.7416.7416,0,0,1,.6968.6968v3.2515a.7416.7416,0,0,1-.6968.6968h-5.574c-.2322,0-.2322,0-.2322.2323l.2322,17.651a.7416.7416,0,0,1-.6968.6968h-3.716C397.0256,604.703,396.5611,604.4707,396.5611,604.2385Z"/><path class="cls-4" d="M430.9341,603.3095v-.6968l4.645-22.296a.7416.7416,0,0,1,.6968-.6968l4.8773-.2323c.2322,0,.6968,0,.6968.2323l7.8965,21.367a2.3392,2.3392,0,0,0,.2323.6968.7416.7416,0,0,1-.6968.6968l-3.716.2323c-.2322,0-.6968,0-.6968-.2323l-1.1613-3.2515a.7416.7416,0,0,0-.6968-.6968l-5.574.2323c-.2322,0-.2322.2323-.6968.6968l-.6968,3.716a.7416.7416,0,0,1-.6968.6968l-3.716.2323C431.3986,603.774,430.9341,603.5417,430.9341,603.3095Zm10.4513-9.5222a.2275.2275,0,0,0,.2322-.2323l-2.09-7.6643c0-.2323,0-.2323-.2322-.2323h0l-.2322.2323-1.1613,7.8965c0,.2323,0,.2323.2322.2323Z"/><path class="cls-4" d="M452.0689,594.9485l-1.858-15.5608a.7416.7416,0,0,1,.6968-.6968l3.716-.2323a1.2445,1.2445,0,0,1,.929.6968l1.858,15.5608c.2323,1.6257,1.6257,2.3225,3.2515,2.3225a3.0491,3.0491,0,0,0,3.0193-3.0193l-1.858-15.5608a.7416.7416,0,0,1,.6968-.6968l3.716-.2323a1.2445,1.2445,0,0,1,.929.6968l1.858,15.5608c.6968,4.1805-3.0193,7.8965-7.2,8.1288C456.4816,602.1482,452.3011,599.5935,452.0689,594.9485Z"/><path class="cls-4" d="M473.9,598.8967l-3.2515-21.8315a1.2445,1.2445,0,0,1,.6968-.929l6.9675-.929a7.6121,7.6121,0,0,1,8.1288,3.2515c1.1613,1.858,1.6257,3.9482,2.09,6.9675.2323,3.0193.6968,5.1095,0,7.2-.929,2.787-3.0193,4.8773-6.9675,5.574l-6.9675.929C474.5972,599.5935,474.1327,599.3612,473.9,598.8967Zm6.9675-5.1095a3.0647,3.0647,0,0,0,2.787-2.09,24.7077,24.7077,0,0,0-.2323-5.574,18.5584,18.5584,0,0,0-1.1613-5.1095c-.6968-.929-1.858-1.1613-3.2515-1.1613l-2.3225.2323a.2275.2275,0,0,0-.2323.2323l1.858,13.006a.2275.2275,0,0,0,.2323.2323Z"/><path class="cls-4" d="M493.4094,596.342v-.6968l1.858-22.5283a.7416.7416,0,0,1,.6968-.6968l4.645-.929c.2323,0,.6968,0,.6968.2323l10.4513,19.9735a1.1467,1.1467,0,0,1,.2323.6968c0,.2323,0,.6968-.6968.6968l-3.716.6968a1.3962,1.3962,0,0,1-.929-.2323l-1.858-3.0193c-.2323-.2323-.2323-.2323-.6968-.2323l-5.1095.929c-.2323,0-.2323.2323-.2323.6968l-.2323,3.716a.7416.7416,0,0,1-.6968.6968l-3.716.6968C493.6417,596.5742,493.4094,596.5742,493.4094,596.342Zm9.0577-10.6835a.2275.2275,0,0,0,.2323-.2323l-3.0193-7.2c0-.2323,0-.2323-.2323-.2323h0v8.1288c0,.2323,0,.2323.2323.2323Z"/><path class="cls-4" d="M515.4732,591.6969v-.929l2.09-11.8448v-.2323a.2275.2275,0,0,0-.2323-.2323l-6.9675-8.1288-.2323-.2323c0-.2323,0-.6968.6968-.6968l3.9482-.929a1.3962,1.3962,0,0,1,.929.2323l4.645,5.8063s.2323.2323.2323,0l.2323-.2323.929-7.6643a.7416.7416,0,0,1,.6968-.6968l3.9482-.929c.6968,0,.6968,0,.929.2323v.2323l-1.858,10.6835v.2323a.2275.2275,0,0,0,.2323.2323l7.6643,9.0577a1.1467,1.1467,0,0,1,.2323.6968c0,.2323,0,.6968-.6968.6968l-4.1805,1.1613a1.3962,1.3962,0,0,1-.929-.2323l-5.1095-6.7352s-.2323-.2323-.2323,0l-.2323.2323-1.1613,8.5933a.7416.7416,0,0,1-.6968.6968l-4.1805,1.1613C515.9377,591.9292,515.9377,591.6969,515.4732,591.6969Z"/><path class="cls-1" d="M448.5851,255.8632V210.5744s-2.787,0-11.148-4.1805c-16.0253,4.1805-16.9543-5.11-32.2828-4.645a27.9746,27.9746,0,0,0-14.6318,4.645,30.9953,30.9953,0,0,0-14.6318-4.645c-15.0963-.6967-16.0253,8.8255-32.2828,4.645-8.5933,4.645-11.148,4.1805-11.148,4.1805v45.2888Z"/><path class="cls-4" d="M449.9786,210.5744v-1.1613h-1.1613s-2.787,0-10.6835-4.1805L437.9016,205h-.6968c-8.5933,2.09-12.5415.6967-16.9543-1.6258a30.949,30.949,0,0,0-14.864-3.0193,34.022,34.022,0,0,0-14.6318,4.1805,30.3508,30.3508,0,0,0-14.6318-4.1805c-6.9675-.2323-11.148,1.6258-14.864,3.0193-4.645,1.858-8.5933,3.716-16.9543,1.6258h-.929l-.2322.2322c-7.8965,3.9483-10.6835,4.1805-10.6835,4.1805h-1.1613v48.0758H450.2109v-1.1613C449.9786,242.8572,449.9786,210.5744,449.9786,210.5744Zm-58.527-3.4838a28.2773,28.2773,0,0,1,13.4705-3.9483,24.9927,24.9927,0,0,1,13.7028,3.0193c4.645,1.858,8.8255,3.716,16.9543,1.858v40.1793a22.3735,22.3735,0,0,1-5.1095.6967,33.87,33.87,0,0,1-12.077-2.3225c-10.4513-5.574-16.9543-4.8773-17.4188-4.8773a23.3463,23.3463,0,0,0-9.7545,2.09V207.0906Zm-46.45.6967c8.1288,1.858,12.5415,0,16.9543-1.858a29.9439,29.9439,0,0,1,13.7028-3.0193,29.2412,29.2412,0,0,1,13.006,3.9483v36.4633a20.9359,20.9359,0,0,0-9.0578-1.858h0c-.2322,0-6.9675-.929-17.4188,4.645-3.9482,1.858-7.8965,2.3225-12.5415,2.3225-2.09,0-4.1805-.2322-4.8773-.6967l.2322-39.947Zm-11.38,3.9483c1.6257-.2322,4.1805-1.1613,8.8255-3.2515v39.947c-.2322.2322-2.09,3.0193-8.8255,5.8063Zm4.8773,42.9663a29.5114,29.5114,0,0,0,5.574-3.9483c1.858.929,4.8773.929,6.0385.929a34.14,34.14,0,0,0,13.4705-2.787c9.5223-5.11,15.793-4.645,15.793-4.645a17.4811,17.4811,0,0,1,8.5933,1.858,18.2383,18.2383,0,0,0-5.1095,8.5933Zm47.1468,0a13.7244,13.7244,0,0,1,4.8773-6.9675c3.0193,2.3225,4.1805,5.574,4.8773,6.9675Zm12.3093,0c-.2322-1.858-1.858-5.574-5.1095-8.5933a20.5368,20.5368,0,0,1,8.5933-1.858s6.503-.6967,15.793,4.645a33.32,33.32,0,0,0,13.4705,2.787c1.6257,0,4.1805,0,6.0385-.929a18.9823,18.9823,0,0,0,5.574,3.9483Zm49.237-.6967c-6.0385-2.3225-8.1288-4.8773-8.8255-5.8063V208.4841c4.645,2.09,7.2,3.0193,8.8255,3.2515Z"/><path class="cls-4" d="M361.9558,212.8969a29.9439,29.9439,0,0,1,13.7028-3.0193,23.1187,23.1187,0,0,1,8.8255,1.858l.929-2.3225a34.8417,34.8417,0,0,0-9.7545-2.09c-6.9675-.2322-11.148,1.6258-14.864,3.0193-3.716,1.6258-6.7353,3.0193-12.077,2.3225l-.2322,2.787h2.787A19.2008,19.2008,0,0,0,361.9558,212.8969Z"/><path class="cls-4" d="M361.9558,239.3734c3.716-1.858,7.2-3.716,13.7028-3.2515a23.39,23.39,0,0,1,8.8255,2.09l.929-2.3225a28.2367,28.2367,0,0,0-9.7545-2.09c-6.9675-.2322-11.148,1.858-14.864,3.716s-6.7353,3.2515-12.077,2.787l-.2322,2.09c.929,0,1.858.2322,2.787.2322A24.1421,24.1421,0,0,0,361.9558,239.3734Z"/><path class="cls-4" d="M361.9558,232.87a29.9439,29.9439,0,0,1,13.7028-3.0193,23.1187,23.1187,0,0,1,8.8255,1.858l.929-2.3225a34.8417,34.8417,0,0,0-9.7545-2.09c-6.9675-.2322-11.148,1.6258-14.864,3.0193-3.716,1.6258-6.7353,3.0193-12.077,2.3225l-.2322,2.787h2.787C355.6851,235.4252,358.9366,234.0317,361.9558,232.87Z"/><path class="cls-4" d="M361.9558,226.1352a29.9439,29.9439,0,0,1,13.7028-3.0193,23.1187,23.1187,0,0,1,8.8255,1.858l.929-2.3225a34.8417,34.8417,0,0,0-9.7545-2.09c-6.9675-.2322-11.148,1.6258-14.864,3.0193-3.716,1.6258-6.7353,3.0193-12.077,2.3225l-.4645,2.5548h2.787A21.7421,21.7421,0,0,0,361.9558,226.1352Z"/><path class="cls-4" d="M361.9558,219.6321a29.9439,29.9439,0,0,1,13.7028-3.0193,23.1187,23.1187,0,0,1,8.8255,1.858l.929-2.3225a34.8417,34.8417,0,0,0-9.7545-2.09c-6.9675-.2322-11.148,1.6258-14.864,3.0193-3.716,1.6258-6.7353,3.0193-12.077,2.3225l-.2322,2.787h2.787C355.6851,222.4192,358.9366,220.7934,361.9558,219.6321Z"/><path class="cls-4" d="M405.3866,210.3421a24.9928,24.9928,0,0,1,13.7028,3.0193c3.0193,1.1613,6.503,2.787,10.6835,2.787h2.787l-.2322-2.787c-5.574.6967-8.5933-.929-12.077-2.3225a30.9489,30.9489,0,0,0-14.864-3.0193,28.2365,28.2365,0,0,0-9.7545,2.09l.929,2.3225A17.0693,17.0693,0,0,1,405.3866,210.3421Z"/><path class="cls-4" d="M419.0894,239.3734a22.3436,22.3436,0,0,0,10.9158,3.0193,11.3075,11.3075,0,0,0,2.787-.2322l-.6968-2.787c-5.574.6967-8.5933-.929-12.077-2.787-3.716-1.858-7.8965-3.9483-14.864-3.716a28.2365,28.2365,0,0,0-9.7545,2.09l.929,2.3225a28.8157,28.8157,0,0,1,8.8255-2.09A34.165,34.165,0,0,1,419.0894,239.3734Z"/><path class="cls-4" d="M405.3866,230.0834a24.9928,24.9928,0,0,1,13.7028,3.0193c3.0193,1.1613,6.503,2.787,10.6835,2.787h2.787l-.2322-2.787c-5.574.6967-8.5933-.929-12.077-2.3225a30.9489,30.9489,0,0,0-14.864-3.0193,28.2365,28.2365,0,0,0-9.7545,2.09l.929,2.3225A17.0693,17.0693,0,0,1,405.3866,230.0834Z"/><path class="cls-4" d="M405.3866,223.3481a24.9928,24.9928,0,0,1,13.7028,3.0193c3.0193,1.1613,6.503,2.787,10.6835,2.787h2.787l-.2322-2.787c-5.574.6967-8.5933-.929-12.077-2.3225a30.9489,30.9489,0,0,0-14.864-3.0193,28.2365,28.2365,0,0,0-9.7545,2.09l.929,2.3225A19.7162,19.7162,0,0,1,405.3866,223.3481Z"/><path class="cls-4" d="M405.3866,216.6129a24.9928,24.9928,0,0,1,13.7028,3.0193c3.0193,1.1613,6.503,2.787,10.6835,2.787h2.787l-.2322-2.787c-5.574.6967-8.5933-.929-12.077-2.3225a30.9489,30.9489,0,0,0-14.864-3.0193,28.2365,28.2365,0,0,0-9.7545,2.09l.929,2.3225A28.8152,28.8152,0,0,1,405.3866,216.6129Z"/><path class="cls-1" d="M675.2613,438.18V407.0581h1.1613l40.4115,30.4248c1.1613.6968,4.645,1.1613,7.6643,1.1613,14.4,0,27.1733-9.9868,27.1733-26.4765,0-36.4633-72.6943-27.87-72.6943-76.8748,0-26.4765,23.4573-45.2888,55.9723-45.2888,16.722,0,35.5343,3.2515,42.5018,8.1288V325.77H776.29l-35.302-26.4765a14.9324,14.9324,0,0,0-5.1095-.929c-13.935,0-23.4573,9.5223-23.4573,22.296,0,36.4633,72.6943,27.87,72.6943,76.8748,0,29.728-26.4765,49.4693-65.4945,49.4693C702.8991,447.47,684.0868,443.2891,675.2613,438.18Z"/><path class="cls-1" d="M927.2528,373.3818c0-48.7725,38.3213-83.61,93.1323-83.61,16.0253,0,33.6763,3.0193,43.8953,7.6643v30.4248h-1.1613l-38.089-27.1733c-1.858-.6968-6.0385-1.1613-9.9867-1.1613-28.5667,0-49.0048,26.7088-49.0048,63.6366,0,41.3405,25.3153,73.3911,57.598,73.3911a36.59,36.59,0,0,0,6.503-.6968l-.6967-.2323V367.5755l-9.7545-11.8448v-1.1613H1076.59v1.1613l-9.7545,11.8448v79.6618h-1.1613l-24.6185-7.6643c-9.5223,4.8773-23.9217,8.1288-37.3923,8.1288C958.1421,447.47,927.2528,417.5093,927.2528,373.3818Z"/><path class="cls-1" d="M1082.6281,390.336c0-35.302,23.69-60.85,55.9723-60.85,26.4765,0,42.9663,16.9543,48.7725,50.3983H1110.73c2.09,27.1733,17.4188,44.1275,40.4115,44.1275,14.864,0,27.6378-7.2,36.4633-20.9025l1.1613.6968c-4.8773,27.4055-23.9217,43.8953-51.3273,43.8953C1105.1564,447.47,1082.6281,424.7091,1082.6281,390.336Zm27.87-18.3478h45.0565c-4.18-23.9218-11.148-34.1408-23.4573-34.1408C1117.93,338.08,1110.4982,350.1568,1110.4982,371.9883Z"/><path class="cls-1" d="M1197.592,389.6393c0-35.9988,23.4573-60.1528,58.7593-60.1528,34.373,0,56.9013,22.7605,56.9013,58.0625,0,35.9988-23.4573,59.9206-58.7593,59.9206C1220.12,447.47,1197.592,424.7091,1197.592,389.6393Zm80.8231,5.3417c0-35.07-9.9867-56.6691-25.5475-56.6691-13.006,0-20.438,14.864-20.438,43.8953,0,35.07,9.9867,56.669,25.5475,56.669C1271.2153,438.6441,1278.4151,423.78,1278.4151,394.981Z"/><path class="cls-1" d="M1331.3681,352.7115l-11.6125-11.6125v-.929l40.876-10.6835h2.09l1.6258,23.225h1.1613c9.5222-16.49,17.4188-23.225,27.87-23.225,4.18,0,7.8966,1.1613,9.9867,3.0193v35.07h-.9291l-21.8316-14.6318a7.4712,7.4712,0,0,0-1.858-.2322c-4.645,0-10.9158,4.1805-13.006,9.5223v70.6041l11.6125,10.4513V444.45h-55.2755v-1.1613l9.7545-10.4513V352.7115Z"/><path class="cls-1" d="M1412.888,457.2241c0-3.2515,1.1613-6.503,2.787-7.8965l15.793-5.8063v-.6968c-6.7353-3.716-10.9158-9.9868-10.9158-18.8123,0-12.077,8.5933-21.8315,21.8316-25.3153v-.2322c-14.8641-5.8063-24.3863-17.4188-24.3863-31.586,0-20.9025,20.67-37.16,47.8435-37.16a61.8,61.8,0,0,1,26.4766,5.8063l30.1925-6.503h1.1613v17.8833H1522.51l-25.083-6.9675-.2322.929c10.6835,4.8773,16.722,14.6318,16.722,25.5475,0,20.438-21.367,36.231-48.7725,36.231a58.4188,58.4188,0,0,1-18.3478-2.787,9.3922,9.3922,0,0,0-4.8772,8.5933c0,6.9675,5.5741,11.6125,13.935,11.6125h58.0626c8.5933,3.0193,14.4,12.7738,14.4,23.9218,0,25.3153-27.4055,43.4308-63.6366,43.4308C1434.255,487.4166,1412.888,474.6429,1412.888,457.2241Zm57.83,21.367c18.8122,0,33.4441-9.5223,33.4441-22.296,0-6.9675-3.9483-10.4513-12.077-10.4513h-47.1468a27.308,27.308,0,0,1-9.9867-1.858,14.9537,14.9537,0,0,0-1.858,7.6643C1433.0938,466.9786,1449.3513,478.5911,1470.7183,478.5911Zm10.6835-109.6221c0-20.438-6.7353-32.2828-17.4188-32.2828-9.5222,0-13.935,8.5933-13.935,25.5475,0,20.438,6.7353,32.2828,17.4188,32.2828C1476.7568,394.981,1481.4018,386.3878,1481.4018,368.969Z"/><path class="cls-1" d="M1529.9421,390.336c0-35.302,23.69-60.85,55.9722-60.85,26.4766,0,42.9663,16.9543,48.7725,50.3983h-76.41c2.09,27.1733,17.4188,44.1275,40.4116,44.1275,14.8641,0,27.6378-7.2,36.4633-20.9025l1.1613.6968c-4.8772,27.4055-23.9217,43.8953-51.3272,43.8953C1552.2381,447.47,1529.9421,424.7091,1529.9421,390.336Zm27.87-18.3478h45.0566c-4.18-23.9218-11.148-34.1408-23.4572-34.1408C1565.244,338.08,1557.8121,350.1568,1557.8121,371.9883Z"/><path class="cls-1" d="M1669.989,318.5707c0,5.8063-2.787,12.077-8.5933,18.8123-5.5741,6.503-12.5416,11.6125-21.367,15.793l-.2322-1.858c6.9675-6.503,10.6835-12.7738,10.6835-19.7413,0-7.8965-5.5741-12.7738-13.006-13.006,1.1613-10.6835,7.8966-16.722,17.4188-16.722C1663.2536,302.081,1669.989,308.584,1669.989,318.5707Z"/><path class="cls-1" d="M1668.8277,440.27V413.0966h1.1613l31.1216,24.8508a16.9728,16.9728,0,0,0,7.6642,1.858c10.6835,0,17.651-7.2,17.651-18.3478,0-25.5475-55.74-16.49-55.74-54.3465,0-22.5283,18.3478-37.3923,45.9855-37.3923,11.148,0,25.3153,2.787,32.7472,6.0385v23.69h-1.1613l-24.8508-20.9025a17.152,17.152,0,0,0-6.503-1.1613c-9.9867,0-16.722,6.503-16.722,16.0253,0,25.5475,55.2755,16.722,55.2755,54.3465,0,24.6185-18.58,39.947-48.7725,39.947C1694.84,447.47,1676.7241,443.7536,1668.8277,440.27Z"/><path class="cls-1" d="M857.81,429.5863c-8.5933,0-15.0963-4.8773-15.0963-16.0253V345.0472H867.1l5.574-12.077H842.946v-24.154h-3.9483l-44.36,35.07v1.1613h14.4v82.4488c3.2515,14.6318,15.793,19.9735,28.799,19.9735,15.793,0,30.1925-8.5933,36.4633-22.5283l-.929-.929A25.57,25.57,0,0,1,857.81,429.5863Z"/></svg>