<?xml version="1.0" encoding="UTF-8"?>
<svg id="Layer_2" data-name="Layer 2" xmlns="http://www.w3.org/2000/svg" viewBox="0 0 64 64">
  <g id="Layer_1-2" data-name="Layer 1">
    <g>
      <path d="M48.19,0H15.81C7.08,0,0,7.08,0,15.81V48.19c0,8.73,7.08,15.8,15.81,15.81H48.19c8.73,0,15.8-7.08,15.81-15.81V15.81c0-8.73-7.08-15.8-15.81-15.81Zm9.74,48.19c0,5.37-4.36,9.73-9.74,9.74H15.81c-5.37,0-9.73-4.36-9.74-9.74V15.81c0-5.37,4.36-9.73,9.74-9.74H48.19c5.37,0,9.73,4.36,9.74,9.74V48.19Z"/>
      <path d="M32,16.76c-8.42,0-15.24,6.82-15.24,15.24s6.82,15.24,15.24,15.24c8.42,0,15.24-6.82,15.24-15.24,0-8.41-6.83-15.23-15.24-15.24Zm0,24.41c-5.06,0-9.17-4.1-9.17-9.17s4.1-9.17,9.17-9.17c5.06,0,9.17,4.1,9.17,9.17,0,5.06-4.11,9.16-9.17,9.17Z"/>
      <path d="M47.86,12.07c-2.25,0-4.07,1.82-4.07,4.07,0,2.25,1.82,4.07,4.07,4.07,2.25,0,4.07-1.82,4.07-4.07h0c0-2.25-1.82-4.07-4.07-4.07Z"/>
    </g>
  </g>
</svg>