<svg id="Layer_1" data-name="Layer 1" xmlns="http://www.w3.org/2000/svg" viewBox="0 0 1920 225.1441"><defs><style>.cls-1{fill:#306945;}.cls-2{fill:#ff7557;}</style></defs><path class="cls-1" d="M253.3135,143.4771V122.209c8.3174,5.5806,22.11,9.897,35.1655,9.897,6.7383,0,9.5811-1.0528,9.5811-3.58,0-2.211-1.6846-3.3692-7.0542-4.106l-10.1075-1.4741c-19.0566-2.7373-28.5327-10.002-28.5327-22.7417,0-14.4243,13.1607-25.0581,43.062-25.0581,18.4248,0,29.27,4.2114,34.9551,7.2646v20.7413c-6.1069-3.1582-16.3193-6.3169-29.48-6.3169-9.16,0-11.581,1.3686-11.581,3.685,0,1.6846,1.0527,2.7373,7.37,3.3692l10.8442,1.2631c17.688,2.0005,27.69,8.002,27.69,21.689,0,16.6353-17.1616,26.8477-42.1143,26.8477C276.0552,153.69,262.4731,149.1621,253.3135,143.4771Z"/><path class="cls-1" d="M406.1909,111.26H388.082v40.0083H354.3906V111.26H337.334V88.8335h17.0566V78.7261l33.6914-4.0005V88.8335h18.1089Z"/><path class="cls-1" d="M485.8936,122.42v28.8482H453.4658v-8.9492c-4.4223,6.6328-12.1079,11.0551-22.9526,11.0551-14.0029,0-22.4258-8.2124-22.4258-19.373,0-11.6865,9.897-19.688,24.2158-19.688,9.4756,0,15.898,3.0532,20.8467,8.6333-1.3687-9.0547-8.9492-13.687-20.2148-13.687-8.002,0-16.53,2.8423-22.11,7.2646V94.5191c7.6855-4.8433,18.8457-8.6333,33.6914-8.6333C471.7852,85.8858,485.8936,98.836,485.8936,122.42Zm-32.4278,9.7915c0-3.4746-3.3691-5.79-8.1074-5.79-4.6323,0-7.58,2.4214-7.58,5.79,0,3.4742,2.9478,5.896,7.4751,5.896C450.0967,138.1074,453.4658,135.5806,453.4658,132.2114Z"/><path class="cls-1" d="M575.9146,88.8335l-40.9561,80.8594H497.0557l13.1606-24.3208-27.69-56.5386h35.3759l10.95,28.4273L540.749,88.8335Z"/><path class="cls-1" d="M692.9937,75.4624v75.8057H659.3022V134.6328c-4.0009,13.3716-13.3715,19.0567-27.269,19.0567-18.2144,0-28.9536-14.003-28.9536-33.586-.2105-19.0566,11.5815-34.2177,30.7436-34.2177,13.5816,0,21.6885,6.0009,25.479,18.9511V75.4624Zm-33.5865,44.22c0-6.3174-3.8955-10.4233-10.5283-10.4233-6.5278,0-10.8442,4.1059-10.8442,10.5283,0,6.3174,4.3164,10.5288,10.7387,10.5288C655.4067,130.3164,659.4072,126,659.4072,119.6826Z"/><path class="cls-1" d="M766.8013,89.4653V118.419c-2-1.1582-6.001-2.4214-11.4761-2.4214-12.4238,0-19.583,6.1064-19.583,21.6884v13.5821H702.0508V88.8335h32.9541v20.0044c3.0537-15.1611,9.581-21.689,21.373-21.689A22.7,22.7,0,0,1,766.8013,89.4653Z"/><path class="cls-1" d="M860.8218,88.8335l-40.9561,80.8594H781.9629l13.1606-24.3208-27.69-56.5386H802.81l10.95,28.4273,11.8969-28.4273Z"/><path class="cls-1" d="M1015.5938,88.8335,996.748,151.2681H959.582L949.37,120.63l-9.476,30.6382H904.939L884.4082,88.8335h33.7969l7.1592,32.3228,9.2651-32.3228h31.7964l9.581,32.4282,7.2647-32.4282Z"/><path class="cls-1" d="M1018.9658,82.2007c0-6.7383,7.6865-11.6865,18.4258-11.6865,10.5283,0,17.8984,4.9482,17.8984,11.6865,0,6.8437-7.37,11.6865-17.8984,11.6865C1026.6523,93.8872,1018.9658,89.0444,1018.9658,82.2007ZM1020.335,96.73h33.6914v54.5381H1020.335Z"/><path class="cls-1" d="M1128.3594,111.26H1110.25v40.0083h-33.6914V111.26H1059.502V88.8335h17.0566V78.7261l33.6914-4.0005V88.8335h18.1094Z"/><path class="cls-1" d="M1219.1162,115.8921v35.376h-33.6914V122.3145c0-7.1592-2.5264-11.3706-8.6328-11.3706-6.3174,0-9.16,3.8955-9.16,11.581v28.7432H1133.94V75.4624h33.6914v29.2695c4.3164-12.8452,12.2129-18.8461,25.6895-18.8461C1210.167,85.8858,1219.1162,95.8877,1219.1162,115.8921Z"/><path class="cls-2" d="M1332.8271,102.8369H1308.19v48.4312h-34.2177V102.8369h-25.2686V77.5684h84.123Z"/><path class="cls-2" d="M1337.7764,82.2007c0-6.7383,7.6865-11.6865,18.4257-11.6865,10.5284,0,17.8985,4.9482,17.8985,11.6865,0,6.8437-7.37,11.6865-17.8985,11.6865C1345.4629,93.8872,1337.7764,89.0444,1337.7764,82.2007Zm1.3691,14.5293h33.6914v54.5381h-33.6914Z"/><path class="cls-2" d="M1466.9629,115.8921v35.376h-33.6914V122.3145c0-7.1592-2.5264-11.3706-8.6328-11.3706-6.3174,0-9.16,3.8955-9.16,11.581v28.7432h-33.6914V88.8335h33.2705v17.1616c4.3164-13.687,12.2129-20.1093,26.11-20.1093C1458.0137,85.8858,1466.9629,95.8877,1466.9629,115.8921Z"/><path class="cls-2" d="M1524.9766,151.2681l-16.003-33.27v33.27h-33.6914V75.4624h33.6914v36.85l15.3721-23.479h36.5332L1542.56,114.9443l19.583,36.3238Z"/><path class="cls-2" d="M1565.0928,75.4624h33.6914v75.8057h-33.6914Z"/><path class="cls-2" d="M1684.6963,124.315h-46.7471c3.1592,4.5273,10.2129,7.37,22.11,7.37a45.9006,45.9006,0,0,0,22.5312-5.37V146.32c-7.0547,4.106-19.0566,7.37-32.3232,7.37-28.7422,0-45.0615-14.3189-45.0615-34.6387,0-19.478,15.1611-33.165,40.956-33.165,26.8477,0,38.5342,13.4765,38.5342,32.8491Zm-48.01-10.95h22.32c-.8427-4.6328-4.4218-7.5805-11.0556-7.5805C1641.4238,105.7847,1637.6338,108.7324,1636.6865,113.3652Z"/></svg>