<?xml version="1.0" encoding="utf-8"?>
<!-- Generator: Adobe Illustrator 24.1.3, SVG Export Plug-In . SVG Version: 6.00 Build 0)  -->
<svg version="1.1" id="Layer_1" xmlns="http://www.w3.org/2000/svg" xmlns:xlink="http://www.w3.org/1999/xlink" x="0px" y="0px"
	 viewBox="0 0 1920 1236.4" style="enable-background:new 0 0 1920 1236.4;" xml:space="preserve">
<style type="text/css">
	.st0{enable-background:new    ;}
	.st1{fill:#306945;}
	.st2{fill:#FF7557;}
	.st3{fill:#DFF0DA;}
	.st4{fill:none;stroke:#306945;stroke-width:4.4978;stroke-linecap:round;stroke-linejoin:round;stroke-miterlimit:10;}
	.st5{fill:none;}
	.st6{fill:#F3FDF2;}
</style>
<g id="Layer_1_1_">
</g>
<g id="Layer_2_1_">
	<g class="st0">
		<path class="st1" d="M653.1,760.4c0,21.4-16.9,37-48.9,37h-25v22.3h-44.7v-96.3h76C638.9,723.3,653.1,738.3,653.1,760.4z
			 M607.3,762c0-6.7-4.9-11-14-11h-14.2v22.3h12.2C602,773.3,607.3,768.9,607.3,762z"/>
	</g>
	<g class="st0">
		<path class="st1" d="M745,739v37.8c-2.6-1.5-7.8-3.2-15-3.2c-16.2,0-25.6,8-25.6,28.3v17.7h-44v-81.5h43v26.1
			c4-19.8,12.5-28.3,27.9-28.3C737.4,735.9,742.6,737.6,745,739z"/>
	</g>
	<g class="st0">
		<path class="st1" d="M852.3,784.4h-61c4.1,5.9,13.3,9.6,28.9,9.6c12.4,0,21.8-2.9,29.4-7v26.1c-9.2,5.4-24.9,9.6-42.2,9.6
			c-37.5,0-58.8-18.7-58.8-45.2c0-25.4,19.8-43.3,53.4-43.3c35,0,50.3,17.6,50.3,42.9V784.4z M789.6,770.1h29.1
			c-1.1-6-5.8-9.9-14.4-9.9C795.8,760.3,790.9,764.1,789.6,770.1z"/>
		<path class="st1" d="M1030.3,773.2v46.4h-44v-38.7c0-8.7-2.5-14.2-9.1-14.2s-9.6,5.4-9.6,14v38.9h-43.8v-39.4
			c0-8.1-2.3-13.5-8.9-13.5s-9.6,5.6-9.6,14.8l-0.1-0.1v38.2h-44v-81.5h43.4V759c4.7-17,15-24.7,31.5-24.7
			c16.6,0,26.8,8.7,30.2,24.5c4.7-17,15.1-24.5,31.7-24.5C1019.5,734.3,1030.3,747.9,1030.3,773.2z"/>
		<path class="st1" d="M1039.4,729.5c0-8.8,10-15.2,24-15.2c13.7,0,23.4,6.5,23.4,15.2c0,8.9-9.6,15.2-23.4,15.2
			C1049.4,744.7,1039.4,738.4,1039.4,729.5z M1041.2,748.4h44v71.2h-44V748.4z"/>
		<path class="st1" d="M1206.7,738.1v81.5h-44v-19c-4.8,14-16.1,21.8-33.2,21.8c-22.3,0-33.4-12.5-33.4-34.6v-49.7h44v40.1
			c0,9.3,2.9,14.6,11,14.6c8.1,0,11.7-5.1,11.7-14.8v-39.8H1206.7z"/>
		<path class="st1" d="M1387.7,773.2v46.4h-44v-38.7c0-8.7-2.5-14.2-9.1-14.2s-9.6,5.4-9.6,14v38.9h-43.8v-39.4
			c0-8.1-2.3-13.5-8.9-13.5s-9.6,5.6-9.6,14.8l-0.1-0.1v38.2h-44v-81.5h43.4V759c4.7-17,15-24.7,31.5-24.7
			c16.6,0,26.8,8.7,30.2,24.5c4.7-17,15.1-24.5,31.7-24.5C1376.8,734.3,1387.7,747.9,1387.7,773.2z"/>
	</g>
	<g class="st0">
		<path class="st1" d="M389.1,954.4c0,17.4-13.5,30.1-46.4,30.1H274v-96.2h71c27.2,0,39.8,10.3,39.8,24.5c0,9.3-5.5,15.9-17,18.4
			C382.8,934,389.1,942.7,389.1,954.4z M317.5,913v14h14c5.9,0,8.9-2.6,8.9-6.9c0-4.7-2.9-7.1-8.9-7.1H317.5z M343.5,951.6
			c0-4.8-3.3-7.7-10.6-7.7h-15.4V960h14.6C339.8,960,343.5,956.9,343.5,951.6z"/>
		<path class="st1" d="M396,894.3c0-8.8,10-15.2,24-15.2c13.7,0,23.4,6.5,23.4,15.2c0,8.9-9.6,15.2-23.4,15.2
			C406,909.6,396,903.3,396,894.3z M397.8,913.3h44v71.2h-44V913.3z"/>
		<path class="st1" d="M450,942.4c0-25.1,20.2-43.3,57.8-43.3c37.5,0,57.8,18,57.8,43.3c0,25.3-20.2,45.2-57.8,45.2
			C470.2,987.6,450,967.6,450,942.4z M521.8,943.4c0-8.9-5.1-14.2-14-14.2c-8.9,0-14,5.2-14,14.2c0,8.9,5.1,14.4,14,14.4
			C516.7,957.8,521.8,952.3,521.8,943.4z"/>
		<path class="st1" d="M688.2,885.5v98.9h-44v-21.7c-5.2,17.4-17.4,24.9-35.6,24.9c-23.8,0-37.8-18.3-37.8-43.8
			c-0.3-24.9,15.1-44.7,40.1-44.7c17.7,0,28.3,7.8,33.2,24.7v-38.3H688.2z M644.4,943.3c0-8.2-5.1-13.6-13.7-13.6
			c-8.5,0-14.2,5.4-14.2,13.7c0,8.2,5.6,13.7,14,13.7C639.1,957.1,644.4,951.5,644.4,943.3z"/>
		<path class="st1" d="M800.3,949.3h-61c4.1,5.9,13.3,9.6,28.9,9.6c12.4,0,21.8-2.9,29.4-7V978c-9.2,5.4-24.9,9.6-42.2,9.6
			c-37.5,0-58.8-18.7-58.8-45.2c0-25.4,19.8-43.3,53.4-43.3c35,0,50.3,17.6,50.3,42.9V949.3z M737.6,935h29.1
			c-1.1-6-5.8-9.9-14.4-9.9C743.8,925.1,738.9,929,737.6,935z"/>
		<path class="st1" d="M922.6,903v57.4c0,34.2-24.9,52.8-66.6,52.8c-19.2,0-35.4-4.4-43.1-9.3v-26.9c6.2,4.7,18.8,9.6,32.4,9.6
			c20.6,0,33.4-9.3,33.4-30.5v-0.5c-6.9,17.6-19,23.4-33.8,23.4c-24.7,0-38.7-16.2-38.7-38.7c0-23.4,14.6-40.9,39.6-40.9
			c16.2,0,26.8,7.1,33,23.5V903H922.6z M878.7,940.2c0-7.7-5.1-12.8-13.3-12.8c-8.2,0-13.6,5.1-13.6,12.9c0,7.7,5.4,12.8,13.5,12.8
			C873.5,953.1,878.7,947.9,878.7,940.2z"/>
	</g>
	<g class="st0">
		<path class="st1" d="M1018.4,903.8v37.8c-2.6-1.5-7.8-3.2-15-3.2c-16.2,0-25.6,8-25.6,28.3v17.7h-44V903h43v26.1
			c4-19.8,12.5-28.3,27.9-28.3C1010.9,900.8,1016.1,902.4,1018.4,903.8z"/>
	</g>
	<g class="st0">
		<path class="st1" d="M1122.8,946.8v37.6h-42.3v-11.7c-5.8,8.7-15.8,14.4-30,14.4c-18.3,0-29.3-10.7-29.3-25.3
			c0-15.2,12.9-25.7,31.6-25.7c12.4,0,20.7,4,27.2,11.3c-1.8-11.8-11.7-17.9-26.4-17.9c-10.4,0-21.6,3.7-28.9,9.5v-28.7
			c10-6.3,24.6-11.3,44-11.3C1104.4,899.1,1122.8,916,1122.8,946.8z M1080.5,959.6c0-4.5-4.4-7.6-10.6-7.6c-6,0-9.9,3.2-9.9,7.6
			c0,4.5,3.8,7.7,9.8,7.7C1076.1,967.3,1080.5,964,1080.5,959.6z"/>
		<path class="st1" d="M1247.6,885.5v98.9h-44v-21.7c-5.2,17.4-17.4,24.9-35.6,24.9c-23.8,0-37.8-18.3-37.8-43.8
			c-0.3-24.9,15.1-44.7,40.1-44.7c17.7,0,28.3,7.8,33.2,24.7v-38.3H1247.6z M1203.7,943.3c0-8.2-5.1-13.6-13.7-13.6
			c-8.5,0-14.2,5.4-14.2,13.7c0,8.2,5.6,13.7,14,13.7C1198.5,957.1,1203.7,951.5,1203.7,943.3z"/>
		<path class="st1" d="M1357.5,946.8v37.6h-42.3v-11.7c-5.8,8.7-15.8,14.4-30,14.4c-18.3,0-29.3-10.7-29.3-25.3
			c0-15.2,12.9-25.7,31.6-25.7c12.4,0,20.7,4,27.2,11.3c-1.8-11.8-11.7-17.9-26.4-17.9c-10.4,0-21.6,3.7-28.9,9.5v-28.7
			c10-6.3,24.6-11.3,44-11.3C1339.1,899.1,1357.5,916,1357.5,946.8z M1315.2,959.6c0-4.5-4.4-7.6-10.6-7.6c-6,0-9.9,3.2-9.9,7.6
			c0,4.5,3.8,7.7,9.8,7.7C1310.8,967.3,1315.2,964,1315.2,959.6z"/>
		<path class="st1" d="M1485.4,943.4c0,26.2-15.2,44.2-39.2,44.2c-16.1,0-28.2-6.5-34.3-22.4v19.2h-44v-98.9h44v38.7
			c4.7-16.8,16.3-25.1,35-25.1C1471.1,899.1,1485.4,918.4,1485.4,943.4z M1439.5,943.4c0-8.2-5.5-13.7-14-13.7
			c-8.5,0-13.7,5.6-13.7,13.9c0,8.1,5.1,13.6,13.6,13.6C1434,957.1,1439.5,951.6,1439.5,943.4z"/>
		<path class="st1" d="M1494,885.5h44v98.9h-44V885.5z"/>
		<path class="st1" d="M1650.1,949.3h-61c4.1,5.9,13.3,9.6,28.9,9.6c12.4,0,21.8-2.9,29.4-7V978c-9.2,5.4-24.9,9.6-42.2,9.6
			c-37.5,0-58.8-18.7-58.8-45.2c0-25.4,19.8-43.3,53.4-43.3c35,0,50.3,17.6,50.3,42.9V949.3z M1587.5,935h29.1
			c-1.1-6-5.8-9.9-14.4-9.9C1593.6,925.1,1588.7,929,1587.5,935z"/>
	</g>
	<g class="st0">
		<path class="st2" d="M464,1120.9v28.4h-95.6v-96.2h95.3v28.4H413v8.5h48.5v21.4H413v9.3H464z"/>
	</g>
	<g class="st0">
		<path class="st2" d="M471,1107.7c0-24.6,19.2-43.7,57.2-43.7c16.9,0,29,3.6,37.5,8.2v28.2c-5.2-2.9-13.7-5.6-23.4-5.6
			c-16.2,0-24.9,5.6-24.9,13.5c0,7.3,7.6,13.5,24.9,13.5c9.2,0,17.6-2.3,23.5-5.1v27.3c-10.3,5.5-23.6,8.4-38.2,8.4
			C489.1,1152.4,471,1132.3,471,1107.7z"/>
	</g>
	<g class="st0">
		<path class="st2" d="M572.5,1107.3c0-25.1,20.2-43.3,57.8-43.3c37.5,0,57.8,18,57.8,43.3c0,25.3-20.2,45.2-57.8,45.2
			C592.7,1152.5,572.5,1132.4,572.5,1107.3z M644.3,1108.3c0-8.9-5.1-14.2-14-14.2c-8.9,0-14,5.2-14,14.2c0,8.9,5.1,14.4,14,14.4
			C639.3,1122.7,644.3,1117.2,644.3,1108.3z"/>
		<path class="st2" d="M697,1085.2h70.3v35.9H697V1085.2z"/>
		<path class="st2" d="M890.7,1103.2v46.2h-44v-37.8c0-9.3-3.3-14.8-11.3-14.8c-8.2,0-12,5.1-12,15.1v37.5h-44v-81.5h43.4v22.4
			c5.6-17.9,15.9-26.2,34.1-26.2C879,1064,890.7,1077.1,890.7,1103.2z"/>
		<path class="st2" d="M999.6,1111.7v37.6h-42.3v-11.7c-5.8,8.7-15.8,14.4-30,14.4c-18.3,0-29.3-10.7-29.3-25.3
			c0-15.2,12.9-25.7,31.6-25.7c12.4,0,20.7,4,27.2,11.3c-1.8-11.8-11.7-17.9-26.4-17.9c-10.4,0-21.6,3.7-28.9,9.5v-28.7
			c10-6.3,24.6-11.3,44-11.3C981.2,1064,999.6,1080.9,999.6,1111.7z M957.3,1124.5c0-4.5-4.4-7.6-10.6-7.6c-6,0-9.9,3.2-9.9,7.6
			c0,4.5,3.8,7.7,9.8,7.7C952.9,1132.2,957.3,1128.9,957.3,1124.5z"/>
		<path class="st2" d="M1127.4,1108.3c0,26.2-15.1,44.2-39,44.2c-16.3,0-28.3-6.2-34.3-21.2v42h-44v-105.5h44v21.2
			c4.8-16.8,16.3-25,35-25C1113.2,1064,1127.4,1083.2,1127.4,1108.3z M1081.6,1108.3c0-8.2-5.5-13.7-14-13.7
			c-8.5,0-13.7,5.6-13.7,13.9c0,8.1,5.1,13.6,13.6,13.6C1076.1,1122,1081.6,1116.5,1081.6,1108.3z"/>
		<path class="st2" d="M1253.4,1108.3c0,26.2-15.1,44.2-39,44.2c-16.3,0-28.3-6.2-34.3-21.2v42h-44v-105.5h44v21.2
			c4.8-16.8,16.3-25,35-25C1239.2,1064,1253.4,1083.2,1253.4,1108.3z M1207.6,1108.3c0-8.2-5.5-13.7-14-13.7
			c-8.5,0-13.7,5.6-13.7,13.9c0,8.1,5.1,13.6,13.6,13.6C1202.1,1122,1207.6,1116.5,1207.6,1108.3z"/>
		<path class="st2" d="M1260.2,1059.2c0-8.8,10-15.2,24-15.2c13.7,0,23.4,6.5,23.4,15.2c0,8.9-9.6,15.2-23.4,15.2
			C1270.3,1074.5,1260.2,1068.1,1260.2,1059.2z M1262,1078.2h44v71.2h-44V1078.2z"/>
		<path class="st2" d="M1418,1114.2h-61c4.1,5.9,13.3,9.6,28.9,9.6c12.4,0,21.8-2.9,29.4-7v26.1c-9.2,5.4-24.9,9.6-42.2,9.6
			c-37.5,0-58.8-18.7-58.8-45.2c0-25.4,19.8-43.3,53.4-43.3c35,0,50.3,17.6,50.3,42.9V1114.2z M1355.3,1099.9h29.1
			c-1.1-6-5.8-9.9-14.4-9.9C1361.5,1090,1356.5,1093.8,1355.3,1099.9z"/>
		<path class="st2" d="M1424.8,1140.1v-25.8c9.1,7.3,29.1,12.6,43.4,12.6c5.1,0,7.3-1.5,7.3-3.4c0-1.9-1.1-3.3-7.7-4.5l-13.3-2.6
			c-21.6-4.1-28.7-12-28.7-24.2c0-17.3,19.1-28.2,48.5-28.2c18.3,0,33.7,3.8,42.2,8.5v24.5c-8.9-4.4-21.7-7.6-34.1-7.6
			c-8.8,0-11.4,1.4-11.4,3.4c0,2.1,2.1,3,7.4,3.8l12.6,1.6c19.8,2.3,30.1,8.5,30.1,25.6c0,16.8-15.9,28.2-47.4,28.2
			C1455.6,1152.1,1438,1147.7,1424.8,1140.1z"/>
	</g>
	<g>
		<path class="st3" d="M1223,558.7c-60.4,0-109.3,8.3-109.3,18.6s49,18.6,109.3,18.6c60.4,0,109.3-11.2,109.3-18.6
			C1332.4,567.1,1283.4,558.7,1223,558.7"/>
	</g>
	<path class="st4" d="M1089.9,471.5l-63.6-23.8l-3.9-10.3l55.9,12.4 M1084.7,400.5c-3.4-8-1-17.6,6.6-22.7
		c8.5-5.9,20.2-3.7,26.3,4.7c5.9,8.4,3.8,20.1-4.7,26 M1140.4,436.7l-50.4,34.7l-27-55.4l31.9-22L1140.4,436.7z"/>
	<path class="st3" d="M1006.3,425.1c-0.5,0-1,0.1-1.4,0.4l-8.3,5.5c-1.1,0.8-1.5,2.3-0.7,3.4c0.5,0.7,1.3,1.1,2.1,1.1
		c0.5,0,1-0.1,1.4-0.4l8.3-5.5c1.1-0.8,1.5-2.3,0.7-3.4C1007.9,425.5,1007.1,425.1,1006.3,425.1 M987.6,437.5c-0.5,0-1,0.1-1.4,0.4
		l-8.3,5.5c-1.1,0.8-1.5,2.3-0.7,3.4c0.5,0.7,1.3,1.1,2.1,1.1c0.5,0,1-0.1,1.4-0.4l8.3-5.5c1.2-0.8,1.5-2.3,0.7-3.4
		C989.2,437.9,988.4,437.5,987.6,437.5 M968.9,449.8c-0.5,0-1,0.1-1.4,0.4l-8.3,5.5c-1.1,0.8-1.5,2.3-0.7,3.4
		c0.5,0.7,1.3,1.1,2.1,1.1c0.5,0,1-0.1,1.4-0.4l8.3-5.5c1.1-0.8,1.5-2.3,0.7-3.4C970.5,450.2,969.7,449.8,968.9,449.8 M950.1,462.2
		c-0.5,0-1,0.1-1.4,0.4l-8.3,5.5c-1.1,0.8-1.5,2.3-0.7,3.4c0.5,0.7,1.3,1.1,2.1,1.1c0.5,0,1-0.1,1.4-0.4l8.3-5.5
		c1.1-0.8,1.5-2.3,0.7-3.4C951.7,462.6,950.9,462.2,950.1,462.2"/>
	<path class="st3" d="M1012.3,433.7c-0.6,0-1.2,0.2-1.7,0.7l-7.3,6.8c-1,0.9-1.1,2.5-0.1,3.5c0.5,0.5,1.2,0.8,1.8,0.8
		s1.2-0.2,1.7-0.7l7.3-6.8c1-0.9,1.1-2.5,0.1-3.5C1013.6,433.9,1012.9,433.7,1012.3,433.7 M995.9,448.9c-0.6,0-1.2,0.2-1.7,0.7
		l-7.3,6.8c-1,0.9-1.1,2.5-0.1,3.5c0.5,0.5,1.2,0.8,1.8,0.8s1.2-0.2,1.7-0.7l7.3-6.8c1-0.9,1.1-2.5,0.1-3.5
		C997.2,449.2,996.6,448.9,995.9,448.9 M979.5,464.2c-0.6,0-1.2,0.2-1.7,0.7l-7.3,6.8c-1,0.9-1.1,2.5-0.1,3.5
		c0.5,0.5,1.2,0.8,1.8,0.8s1.2-0.2,1.7-0.7l7.3-6.8c1-0.9,1.1-2.5,0.1-3.5C980.8,464.5,980.2,464.2,979.5,464.2 M963.1,479.5
		c-0.6,0-1.2,0.2-1.7,0.7l-1.8,1.7c-1,0.9-1.1,2.5-0.1,3.5c0.5,0.5,1.2,0.8,1.8,0.8s1.2-0.2,1.7-0.7l1.8-1.7c1-0.9,1.1-2.5,0.1-3.5
		C964.4,479.8,963.8,479.5,963.1,479.5"/>
	<path class="st3" d="M1017.9,443c-0.9,0-1.9,0.5-2.3,1.4l-4.2,9c-0.6,1.2,0,2.7,1.2,3.3c0.3,0.2,0.7,0.2,1,0.2
		c0.9,0,1.9-0.5,2.3-1.4l4.2-9c0.6-1.2,0-2.7-1.2-3.3C1018.6,443.1,1018.3,443,1017.9,443 M1008.6,463.3c-0.9,0-1.9,0.5-2.3,1.4
		l-4.2,9c-0.6,1.2,0,2.7,1.2,3.3c0.3,0.2,0.7,0.2,1,0.2c0.9,0,1.9-0.5,2.3-1.4l4.2-9c0.6-1.2,0-2.7-1.2-3.3
		C1009.3,463.4,1008.9,463.3,1008.6,463.3"/>
	<path class="st1" d="M1257.6,344.5c-0.5,0-1.1-0.1-1.5-0.1c-0.2,0-0.3-0.1-0.4-0.1c-0.4-0.1-0.9-0.3-1.2-0.5
		c-0.3-0.2-0.8-0.5-1-0.7c-0.4-0.3-0.6-0.7-1-1.2c-0.2-0.3-0.4-0.9-0.5-1.2l-0.1-0.3c-0.1-0.8-0.2-1.6,0-2.4c0.2-0.7,0.6-1.5,1.2-2
		c0.6-0.6,1.2-0.8,2-1.2l0.4-0.1c0.3-0.2,0.5-0.4,1-0.5c0.9-0.3,1.7-0.2,2.6,0c0.4,0.1,1,0.3,1.4,0.5c0.9,0.5,1.2,0.8,1.7,1.7
		c0.3,0.4,0.4,0.8,0.6,1.4c0.1,0.4,0.2,1,0.2,1.5c0,1.1-0.2,1.4-0.6,2.3l-0.1,0.2c-0.2,0.3-0.4,0.6-0.7,0.8
		c-0.3,0.3-0.7,0.6-1.1,0.8c-0.4,0.2-0.9,0.4-1.4,0.6C1258.6,344.4,1258.2,344.4,1257.6,344.5 M1204.8,489.8c-0.2,1-0.7,1.8-1.5,2.4
		c-0.6,0.6-1.6,1.2-2.5,1.5c-0.4,0.1-1,0.2-1.5,0.2c-1.1-0.1-1.4-0.2-2.4-0.6c-0.4-0.2-0.9-0.5-1.3-0.9l-0.4-0.4
		c-0.4-0.5-0.9-1.2-1.3-1.8c-0.3-0.6-0.5-1.3-0.5-1.9c0-0.3,0.1-0.6,0.1-1c0.2-0.6,0.5-1.2,1-1.7c0.2-0.1,0.3-0.2,0.5-0.4
		c0.4-0.5,0.7-0.8,1.5-1.4c0.4-0.3,0.9-0.4,1.3-0.5c1-0.3,1.9-0.2,3,0c0.4,0.1,1,0.3,1.3,0.5l0.3,0.2c0.9,0.6,1.1,0.8,1.6,1.6
		c0.2,0.3,0.4,0.8,0.5,1.3C1205.1,487.6,1205.1,488.8,1204.8,489.8 M1218.1,340.8c-0.1,0.4-0.3,0.7-0.5,1.2c-0.2,0.3-0.5,0.6-0.8,1
		l-0.3,0.3c-0.8,0.6-1.6,1.2-2.6,1.4c-1.1,0.2-1.4,0.2-2.5,0c-0.4-0.1-1-0.3-1.4-0.5c-0.2-0.1-0.4-0.3-0.6-0.4s-0.4-0.3-0.6-0.4
		c-0.3-0.3-0.6-0.7-1-1.2c-0.2-0.3-0.4-0.7-0.6-1.1c-0.3-0.6-0.5-1.3-0.5-1.9c0-0.3,0.1-0.6,0.1-1c0.2-0.6,0.5-1.2,1-1.7
		c0.2-0.2,0.5-0.4,0.8-0.6l0.1-0.2c0.2-0.2,0.4-0.3,0.5-0.4c0.2-0.1,0.4-0.3,0.6-0.4c0.4-0.2,0.9-0.4,1.4-0.5c1-0.2,1.9-0.2,3,0.1
		c1.8,0.5,3.3,1.9,3.9,3.7c0.1,0.4,0.2,1,0.2,1.5C1218.4,339.8,1218.3,340.4,1218.1,340.8 M1178.1,359c-1,1.3-2.6,1.7-4.2,2.2
		c-0.8,0.2-1.6,0.5-2.3,1c-1.7,1.2-2.7,3.1-4,4.7c-2.4,2.9-4.6,5.9-8.8,3.9c-3.9-1.9-9.3-7.2-10.2-11.6c-1.8-9,14.3-7.6,19.3-7.4
		C1171.7,351.8,1183.3,352.2,1178.1,359 M1333.3,493.4c-0.4-16.9-2.8-33.9-9.3-49.4c-5.8-13.7-15.2-26.2-27.8-34.3
		c-1-1.2-1.9-2.2-3-3.4c0.5-0.4,0.9-1.1,1.1-1.7c2.8-10.5,8.1-20,11.5-30.2c2.9-9,3.5-18.1,1.9-27.1c7.8-2.4,14.2-9.5,14.9-17.6
		c1-10-6.8-20.1-16.7-21.9c-2.7-0.5-5.6-0.4-8,0.7c-2.4,1.2-4.2,3.1-6,5.1c-0.5-0.5-1-1.1-1.5-1.6c-3.5-3.4-6.9-7-11.6-9.3
		c-5.8-3-12-4.5-18.4-5.1c-5.4-0.5-10.7-0.6-16-0.2c-0.6-3-2.1-5.8-4.2-8.1c-3.3-3.6-8.1-5.5-13.1-5.6c-9-0.2-19.9,6.2-19,16.1
		c0.2,1.8,0.8,3.4,1.5,4.9c-10.6,3.5-21,7.6-31,11.7c-8.3,3.3-16.5,6.7-24.3,11.2c-7.1,4-14.8,9.3-18.7,16.7
		c-7.8,14.8,2.1,31.2,12,42.2c4.4,4.9,9.4,9.3,14.8,13.2h0.1c16.2,8.2,36.1,9,53.9,7.6c9.1-0.7,18.2-2.2,26.9-5.1
		c5.7-1.9,11.9-4.7,16.2-9.1c0,0.3,0.4,0,1.6-1.7c1.5-1.9,4.7,0,3.3,1.9c-1.1,1.5-2.4,2.8-3.8,4c-0.3,0.2-0.5,0.5-0.9,0.7
		c-1.3,1.2-2.8,2.1-4.3,3.1c-0.3,0.2-0.6,0.4-1,0.5c-1.4,0.7-2.8,1.5-4.3,2.1c-0.3,0.1-0.6,0.3-1,0.4c-1.6,0.6-3.3,1.3-5,1.8
		c-0.5,0.2-1.2,0.3-1.7,0.5c-1.6,0.5-3.3,1-4.9,1.3c-6.5,1.5-13.1,2.3-18.9,2.9c-11.7,1.1-24.3,1.2-36.3-1c-3.3,5.8-6.8,12.2-10,19
		c-5.6,2.9-10.6-1.3-14.6-5.2c-5.3-5.5-9.1-12.2-15.1-17c-6.1-4.9-14.1-7.1-22-5.5c-7.3,1.5-13.4,6.8-16.1,13.6
		c-2.8,7.2-0.6,14.7,3.6,20.8c9,12.8,22.2,25.6,37.8,29.7c4,1.1,8.3,1.6,12.3,1.3c0.4,0,0.9-0.1,1.2-0.1
		c-2.4,13.3-2.1,26.3,2.8,37.9c10.9,25.7,39.7,40.4,67.2,38.8h1.3c1.8,1.8,3.2,4.1,4.2,6.3c0.7,1.7,1.6,4.1,1.1,5.9
		c-0.8,2.4-3.6,3.9-5.3,5.9c-4.2,5.4-4.3,12.6,2.3,16.2c7.3,3.9,16.1,3.7,24,3.1c4.1-0.3,8.3-0.7,12.4-0.7s8.1,0.5,12.2,0.4
		c7.5-0.3,14.9-2.4,20-8.1c9.3-10.2,10.3-23.9,7.9-36.9c-1.9-10.3-5.7-20.5-10.6-29.9c1.8-5.4,3.8-10.8,5.5-16.2
		c0.9,1.7,1.7,3.3,2.8,4.8c4.3,6.2,11.8,10.8,19.2,9.2c1.7-0.4,3.5-1.2,4.6-2.5C1333.4,498.7,1333.4,495.9,1333.3,493.4"/>
	<path class="st1" d="M1212.2,546.7c-16.4-2.1-29.8-10.2-40-21.3c0.9,7.6-1.5,15.2-5.8,22.2c-2.4,3.7-5,7.1-8,10.4
		c-3.4,3.8-5,8.5-0.5,12.4c3.5,3.1,8.5,3.6,12.9,4.1c5,0.6,10.1,1,15.1,1c9.2,0,21.7,0.1,29.4-5.6c7-5.3,7.9-14.5,9.6-22.7
		C1220.6,547.3,1216.4,547.2,1212.2,546.7"/>
	<g>
		<path class="st3" d="M816.8,547.8c-125,0-226.4,12.2-226.4,27.3s101.4,27.3,226.4,27.3s226.4-12.2,226.4-27.3
			S941.8,547.8,816.8,547.8"/>
		<rect x="582.2" y="541.4" class="st5" width="469.2" height="61.8"/>
	</g>
	<path class="st4" d="M668.5,209.1h12.7h1h12.7c-5.4,11.3-5.7,27.6-5.7,45.6s0.4,34.3,5.7,45.6h-12.7h-1h-12.7
		c5.4-11.3,5.7-27.6,5.7-45.6C674.1,236.7,673.7,220.4,668.5,209.1z M668.5,118h12.7h1h12.7c-5.4,11.3-5.7,27.6-5.7,45.6
		s0.4,34.3,5.7,45.6h-12.7h-1h-12.7c5.4-11.3,5.7-27.6,5.7-45.6C674.1,145.5,673.7,129.2,668.5,118z M717.4,144.7h12.7h1h12.7
		c-5.4,13-5.7,31.6-5.7,52.4s0.4,39.3,5.7,52.4H731h-1h-12.7c5.4-13,5.7-31.6,5.7-52.4C723.1,176.3,722.7,157.7,717.4,144.7z
		 M717.4,39.9h12.7h1h12.7c-5.4,13-5.7,31.6-5.7,52.4s0.4,39.3,5.7,52.4H731h-1h-12.7c5.4-13,5.7-31.6,5.7-52.4
		S722.7,52.9,717.4,39.9z M773.3,202.2H786h1h12.7c-5.4,12.1-5.7,29.4-5.7,48.5c0,19.2,0.4,36.5,5.7,48.5H787h-1h-12.7
		c5.4-12.1,5.7-29.4,5.7-48.5C779,231.5,778.6,214.2,773.3,202.2z M773.3,105.1H786h1h12.7c-5.4,12.1-5.7,29.4-5.7,48.5
		c0,19.2,0.4,36.5,5.7,48.5H787h-1h-12.7c5.4-12.1,5.7-29.4,5.7-48.5S778.6,117.2,773.3,105.1z M827.2,154.5h12.7h1h12.7
		c-5.4,13-5.7,31.6-5.7,52.4s0.4,39.3,5.7,52.4h-12.7h-1h-12.7c5.4-13,5.7-31.6,5.7-52.4C832.9,186.2,832.5,167.6,827.2,154.5z
		 M827.2,49.8h12.7h1h12.7c-5.4,13-5.7,31.6-5.7,52.4s0.4,39.3,5.7,52.4h-12.7h-1h-12.7c5.4-13,5.7-31.6,5.7-52.4
		S832.5,62.8,827.2,49.8z M668.5,573.6c5.4-11.3,5.7-27.6,5.7-45.6s-0.4-34.3-5.7-45.6h12.7h1h12.7c-5.4,11.3-5.7,27.6-5.7,45.6
		s0.4,34.3,5.7,45.6 M668.5,300.2h12.7h1h12.7c-5.4,11.3-5.7,27.6-5.7,45.6s0.4,34.3,5.7,45.6h-12.7h-1h-12.7
		c5.4-11.3,5.7-27.6,5.7-45.6C674.1,327.8,673.7,311.5,668.5,300.2z M668.5,391.3h12.7h1h12.7c-5.4,11.3-5.7,27.6-5.7,45.6
		s0.4,34.3,5.7,45.6h-12.7h-1h-12.7c5.4-11.3,5.7-27.6,5.7-45.6C674.1,418.9,673.7,402.6,668.5,391.3z M717.4,563.7
		c5.4-13,5.7-31.6,5.7-52.4c0-20.8-0.4-39.3-5.7-52.4h12.7h1h12.7c-5.4,13-5.7,31.6-5.7,52.4c0,20.8,0.4,39.3,5.7,52.4 M717.4,249.4
		h12.7h1h12.7c-5.4,13-5.7,31.6-5.7,52.4s0.4,39.3,5.7,52.4H731h-1h-12.7c5.4-13,5.7-31.6,5.7-52.4
		C723.1,281,722.7,262.5,717.4,249.4z M717.4,354.2h12.7h1h12.7c-5.4,13-5.7,31.6-5.7,52.4s0.4,39.3,5.7,52.4H731h-1h-12.7
		c5.4-13,5.7-31.6,5.7-52.4C723.1,385.8,722.7,367.2,717.4,354.2z M773.3,590.4c5.4-12.1,5.7-29.4,5.7-48.5
		c0-19.2-0.4-36.5-5.7-48.5H786h1h12.7c-5.4,12.1-5.7,29.4-5.7,48.5c0,19.2,0.4,36.5,5.7,48.5 M773.3,299.2H786h1h12.7
		c-5.4,12.1-5.7,29.4-5.7,48.5c0,19.2,0.4,36.5,5.7,48.5H787h-1h-12.7c5.4-12.1,5.7-29.4,5.7-48.5S778.6,311.3,773.3,299.2z
		 M773.3,396.3H786h1h12.7c-5.4,12.1-5.7,29.4-5.7,48.5c0,19.2,0.4,36.5,5.7,48.5H787h-1h-12.7c5.4-12.1,5.7-29.4,5.7-48.5
		C779,425.6,778.6,408.3,773.3,396.3z M827.2,573.6c5.4-13,5.7-31.6,5.7-52.4c0-20.8-0.4-39.3-5.7-52.4h12.7h1h12.7
		c-5.4,13-5.7,31.6-5.7,52.4s0.4,39.3,5.7,52.4 M827.2,259.3h12.7h1h12.7c-5.4,13-5.7,31.6-5.7,52.4s0.4,39.3,5.7,52.4h-12.7h-1
		h-12.7c5.4-13,5.7-31.6,5.7-52.4S832.5,272.3,827.2,259.3z M827.2,364.1h12.7h1h12.7c-5.4,13-5.7,31.6-5.7,52.4s0.4,39.3,5.7,52.4
		h-12.7h-1h-12.7c5.4-13,5.7-31.6,5.7-52.4S832.5,377.1,827.2,364.1z M1010.9,532.1c-11.3,10.5-30.6,8.1-30.6,8.1
		s-1.1-19.3,10.2-29.7c11.3-10.5,30.6-8.1,30.6-8.1S1022.1,521.6,1010.9,532.1z M871.6,209.4c-8.9,8.1-8.1,23.1-8.1,23.1
		s15.1,1.9,24-6.2c8.9-8.1,8.1-23.1,8.1-23.1S880.5,201.3,871.6,209.4z M878.9,220.2c-15.3,8.1-25.6,23-25.6,40.1 M943,510.3
		c11.3,10.4,10.4,29.6,10.4,29.6s-19.4,2.5-30.6-7.9c-11.3-10.4-10.4-29.6-10.4-29.6S931.6,500,943,510.3z M1000.4,524.2
		c-19.6,10.4-32.6,29.6-32.6,51.4 M933.7,524.2c19.6,10.4,32.6,29.6,32.6,51.4"/>
	<path class="st6" d="M755.7,345.8c8.9,8.1,8.1,23.1,8.1,23.1s-15.1,1.9-23.9-6.2c-8.9-8.1-8.1-23.1-8.1-23.1
		S746.9,337.7,755.7,345.8"/>
	<path class="st4" d="M748.4,356.4c15.4,8.2,25.8,23.2,25.8,40.4 M755.8,345.6c9,8.2,8.2,23.3,8.2,23.3s-15.2,1.9-24.2-6.3
		c-9-8.2-8.2-23.3-8.2-23.3S746.8,337.4,755.8,345.6z"/>
	<path class="st6" d="M650.1,249c8.9,8.1,8.1,23.1,8.1,23.1s-15.1,1.9-23.9-6.2c-8.9-8.1-8.1-23.1-8.1-23.1S641.2,240.9,650.1,249"
		/>
	<path class="st4" d="M642.7,259.7c15.4,8.2,25.8,23.2,25.8,40.4 M650.1,248.8c9,8.2,8.2,23.3,8.2,23.3s-15.2,1.9-24.2-6.3
		s-8.2-23.3-8.2-23.3S641.1,240.6,650.1,248.8z"/>
	<path class="st6" d="M762.9,196.6c-8.9,8.1-8.1,23.1-8.1,23.1s15.1,1.9,23.9-6.2c8.9-8.1,8.1-23.1,8.1-23.1
		S771.8,188.5,762.9,196.6"/>
	<path class="st4" d="M770.2,207.3c-15.4,8.2-25.8,23.2-25.8,40.4 M762.9,196.5c-9,8.2-8.2,23.3-8.2,23.3s15.2,1.9,24.2-6.3
		s8.2-23.3,8.2-23.3S771.9,188.3,762.9,196.5z"/>
</g>
</svg>
