<?xml version="1.0" encoding="utf-8"?>
<!-- Generator: Adobe Illustrator 24.1.3, SVG Export Plug-In . SVG Version: 6.00 Build 0)  -->
<svg version="1.1" id="Layer_1" xmlns="http://www.w3.org/2000/svg" xmlns:xlink="http://www.w3.org/1999/xlink" x="0px" y="0px"
	 viewBox="0 0 677.6 308.1" style="enable-background:new 0 0 677.6 308.1;" xml:space="preserve">
<style type="text/css">
	.st0{fill:#306642;}
</style>
<g>
	<path class="st0" d="M334.1,198.5c-2.3-0.9-4.1-1.6-4.1-4.5c0,0,0,0,0,0l0.7-39.7c0.3-8.1-2.1-14.9-6.8-19.7
		c-4.4-4.6-10.7-7.1-17.7-7.1c-13.5,0-24.1,4.5-32.5,13.8l-0.1-0.3c-1.5-8.5-7.4-13.1-16.8-13.1c-5.1,0-9.6,1.1-15.6,3.8
		c-7.3,3.3-10.9,7.2-10.9,12.1c0,5.9,4,7.7,7.5,8.5c1.6,0.5,2.6,2.1,2.6,4.4v49.1c0,9.5,6.4,14.7,18,14.7c11.3,0,17.8-5.3,17.8-14.7
		V169c0-7.1,5.8-15.4,13.3-15.4c3.8,0,5.9,3.2,5.9,8.7l-0.5,41.5c-0.1,4.4,1.4,8.3,4.4,11.4c3.4,3.5,8.5,5.5,14,5.5
		c0.3,0,0.6,0,0.9,0c5.3,0,10.4-0.9,15.4-2.8c7-2.7,10.2-6.3,10.2-11.7C340,200.7,336.7,199.5,334.1,198.5z M307.5,129
		C307.5,129,307.6,129,307.5,129l0,0.1L307.5,129L307.5,129z M247.7,143.8L247.7,143.8C247.7,143.8,247.7,143.8,247.7,143.8
		L247.7,143.8z"/>
	<path class="st0" d="M486.9,198c-2.3-0.9-4.2-1.7-4.2-4.6v-87.2c0-9.3-6.4-14.7-17.7-14.7c-11.3,0-17.3,5.1-17.3,14.7v97
		c0,10,7.9,17.5,18.4,17.5c0.4,0,0.9,0,1.3,0c5.2,0,10.3-1,15.1-3c7.3-2.7,10.5-6.2,10.5-11.3C493.1,200.5,489.7,199.1,486.9,198z
		 M468.8,99.9l-0.4,0c0,0-0.1,0-0.1,0l0-0.2c0.2,0,0.3-0.1,0.4-0.2c0,0,0,0,0,0V99.9z"/>
	<path class="st0" d="M437.5,199.2C437.5,199.2,437.4,199.2,437.5,199.2c-3-0.6-5.7-2.2-7.6-4.3l-20.5-30.7l20.6-19.6
		c2.4-2.3,3.7-4.9,3.8-7.7c0.1-2.6-1-5.1-2.9-7.1c-2.9-3-5.6-3.6-9.3-3.6c0,0,0,0,0,0c-6.8-0.2-9.6,2.3-14,6.7L383,158.9v-52.7
		c0-9.7-6.5-15.2-17.9-15.2c-11,0-17.3,5.5-17.3,15.2v99.7c0,9.7,5.6,14.7,16.6,14.7c6.5,0,11.8-1.8,15-5.1c2.4-2.5,3.6-5.7,3.6-9.6
		l-0.2-22.1l1.4-1.8l16.1,29.1c3.4,6.2,9.3,9.7,16.7,9.7c6.4,0,10-0.6,15.4-2.8c6.5-2.5,10-6.2,10-11
		C442.5,202.9,439.9,199.8,437.5,199.2z"/>
	<path class="st0" d="M224.2,199.5c-2.5-1.2-4.6-2.2-4.7-5.1l0.2-45.6c0-9.4-6.5-14.8-17.8-14.8c-11.3,0-17.9,5.4-17.9,14.8v50.4
		c0,14.3,7.7,21.5,22.9,21.5c4.8,0,9.7-0.8,14.3-2.2c6.3-1.9,9.4-5.5,9.4-11C230.4,202.6,227.1,201,224.2,199.5z"/>
	<path class="st0" d="M193.8,121.4c0.1,0,0.1,0,0.2,0c3.7-0.6,6.7-3.9,8.4-9.2c1.4-4.3,1.9-9.7,1.2-13.9
		c-1.3-8.1-6.7-11.8-15.8-10.6c-15.7,2.1-65.4,10.1-87.6,14.3c-9,1.6-13,6.8-11.7,15.1c0.9,5.5,4.5,13.3,9.6,17
		c2.2,1.6,4.5,2.2,6.8,1.9c1.2-0.2,3.2-0.7,5.6-1.3c3.5-0.9,7.5-1.9,10.4-2.3c3.3-0.4,7.7-0.5,10,1.6c1.1,1,1.6,2.3,1.6,4.1v4.3
		c0,0.1,0,0.2,0.1,0.3c0,0,0,0,0,0.1v61.9c0,10.7,6,16.2,17.8,16.2c11.8,0,17.8-5.4,17.8-16.2l-0.1-72.1c0-6.2,3.8-8.2,9.6-9.4
		c2.9-0.6,7.2-0.9,10.6-1.2C190.6,121.7,192.5,121.5,193.8,121.4z M153.4,208.6L153.4,208.6C153.4,208.6,153.4,208.6,153.4,208.6
		L153.4,208.6z"/>
	<path class="st0" d="M565.7,191.5c-6.4,4.4-12.7,6.7-18.6,6.7c-7.7,0-12.8-1.8-15.6-5.5c-1.8-2.4-2.8-5.3-3-8.3
		c0-1.5,0.5-2.2,1.5-2.2l35.1-0.2c17.8-0.1,20.1-10.5,20.1-19.6c0,0,0-0.1,0-0.1c-0.3-13.4-7.8-25.6-19.6-31.9c-7.3-4-16-6-26.1-6
		c-25.5,0-46.3,22.9-46.3,51.1c0,13.9,3,23.7,9.7,31.9c3,3.6,6.5,6.5,10.6,8.7c0.1,0.1,0.3,0.1,0.4,0c0,0.2,0.1,0.3,0.3,0.4
		c6.9,3.5,15.5,5.2,26.4,5.2c1.3,0,2.6,0,3.8-0.1c0.1,0,0.1,0,0.2,0c0,0,0.1,0,0.1,0c16.9-0.9,28.6-7.8,34-13.9
		c4.1-4.5,4.7-9.9,1.5-14.1C577.3,189.7,571.5,187.5,565.7,191.5z M550.3,162.3c0,0-0.1,0-0.1,0h-21.2c1-6,4.2-15.5,13.7-15.5
		c6.7,0,10.7,4.7,10.7,12.7C553.3,161.7,551.7,162.2,550.3,162.3z M523.2,213.1c0,0.1,0,0.2,0,0.2l-0.1,0
		C523.1,213.3,523.1,213.2,523.2,213.1C523.1,213.1,523.1,213.1,523.2,213.1L523.2,213.1z M513.7,172c0,0,0,0.1,0,0.1
		c-0.1,0-0.1,0.1-0.2,0.2c-0.1,0-0.1-0.1-0.2-0.1l-0.1-0.2C513.4,172,513.5,172,513.7,172z M580,163.4L580,163.4
		c-0.1,0-0.1,0-0.1-0.2l0.3-0.5c0,0,0-0.1,0-0.1c0,0.1-0.1,0.3-0.1,0.4C580,163,580,163.2,580,163.4z M495.2,180.1L495.2,180.1
		L495.2,180.1L495.2,180.1z"/>
</g>
</svg>
